<svg width="1560" height="926" viewBox="0 0 1560 926" fill="none" xmlns="http://www.w3.org/2000/svg" xmlns:xlink="http://www.w3.org/1999/xlink">

<rect x="166" y="200" width="62" height="62" rx="31" transform="rotate(-90 166 200)" fill="#FF6100"/>
<path d="M198.612 176H197.028C196.848 176 196.758 175.91 196.758 175.73V165.65L194.85 166.964C194.718 167.06 194.598 167.03 194.49 166.874L193.752 165.686C193.656 165.554 193.68 165.428 193.824 165.308L196.902 163.22C196.974 163.16 197.082 163.13 197.226 163.13H198.612C198.78 163.13 198.864 163.22 198.864 163.4V175.73C198.864 175.91 198.78 176 198.612 176Z" fill="white"/>
<rect x="635" y="510" width="62" height="62" rx="31" transform="rotate(-90 635 510)" fill="#FF6100"/>
<path d="M669.95 481.896C669.95 483.216 669.53 484.266 668.69 485.046C667.85 485.826 666.776 486.216 665.468 486.216C663.836 486.216 662.372 485.652 661.076 484.524C660.968 484.404 660.968 484.278 661.076 484.146L661.958 483.12C662.078 483 662.204 483 662.336 483.12C662.864 483.504 663.35 483.786 663.794 483.966C664.25 484.146 664.808 484.236 665.468 484.236C666.176 484.236 666.74 484.032 667.16 483.624C667.592 483.204 667.808 482.61 667.808 481.842C667.808 480.39 666.962 479.664 665.27 479.664C664.898 479.664 664.52 479.706 664.136 479.79C664.004 479.826 663.896 479.772 663.812 479.628L663.47 478.89C663.41 478.758 663.434 478.632 663.542 478.512L665.306 476.586C666.074 475.77 666.584 475.266 666.836 475.074H661.958C661.79 475.074 661.706 474.984 661.706 474.804V473.4C661.706 473.22 661.79 473.13 661.958 473.13H669.302C669.47 473.13 669.554 473.22 669.554 473.4V474.444C669.554 474.552 669.512 474.66 669.428 474.768L666.17 478.224L666.188 478.26C667.196 478.236 668.072 478.554 668.816 479.214C669.572 479.862 669.95 480.756 669.95 481.896Z" fill="white"/>
<rect x="819" y="417" width="62" height="62" rx="31" transform="rotate(-90 819 417)" fill="#FF6100"/>
<path d="M852.744 393H851.178C850.998 393 850.908 392.91 850.908 392.73V390.354H845.238C845.058 390.354 844.968 390.264 844.968 390.084V388.914C844.968 388.794 844.998 388.686 845.058 388.59L849.468 380.328C849.54 380.196 849.642 380.13 849.774 380.13H851.592C851.7 380.13 851.772 380.166 851.808 380.238C851.844 380.298 851.838 380.37 851.79 380.454L847.542 388.428H850.908L850.944 385.926C850.968 385.758 851.058 385.674 851.214 385.674H852.744C852.924 385.674 853.014 385.758 853.014 385.926V388.428H854.112C854.292 388.428 854.382 388.512 854.382 388.68V390.084C854.382 390.264 854.292 390.354 854.112 390.354H853.014V392.73C853.014 392.91 852.924 393 852.744 393Z" fill="white"/>
<rect x="989" y="463" width="62" height="62" rx="31" transform="rotate(-90 989 463)" fill="#FF6100"/>
<path d="M1024.24 434.734C1024.24 436.09 1023.84 437.176 1023.03 437.992C1022.23 438.808 1021.14 439.216 1019.76 439.216C1018.11 439.216 1016.68 438.658 1015.47 437.542C1015.38 437.422 1015.38 437.296 1015.47 437.164L1016.46 436.084C1016.57 435.964 1016.7 435.97 1016.84 436.102C1017.78 436.834 1018.75 437.2 1019.77 437.2C1020.53 437.2 1021.11 436.984 1021.5 436.552C1021.91 436.108 1022.11 435.502 1022.11 434.734C1022.11 433.222 1021.34 432.466 1019.79 432.466C1018.84 432.466 1018.08 432.724 1017.49 433.24C1017.37 433.348 1017.25 433.378 1017.13 433.33L1015.9 432.916C1015.75 432.88 1015.67 432.778 1015.67 432.61L1015.9 426.4C1015.9 426.22 1015.99 426.13 1016.17 426.13H1023.27C1023.45 426.13 1023.54 426.22 1023.54 426.4V427.84C1023.54 428.02 1023.45 428.11 1023.27 428.11H1017.94L1017.85 431.098C1018.46 430.726 1019.19 430.54 1020.04 430.54C1021.34 430.54 1022.36 430.912 1023.1 431.656C1023.86 432.388 1024.24 433.414 1024.24 434.734Z" fill="white"/>
<rect x="1156" y="538" width="62" height="62" rx="31" transform="rotate(-90 1156 538)" fill="#FF6100"/>
<path d="M1184.72 506.548C1185.44 505.996 1186.3 505.72 1187.3 505.72C1188.6 505.72 1189.64 506.08 1190.39 506.8C1191.15 507.508 1191.53 508.516 1191.53 509.824C1191.53 511.12 1191.11 512.176 1190.27 512.992C1189.44 513.808 1188.37 514.216 1187.06 514.216C1185.74 514.216 1184.67 513.82 1183.84 513.028C1183.01 512.236 1182.6 511.21 1182.6 509.95V505.252C1182.6 503.872 1183.02 502.804 1183.86 502.048C1184.7 501.292 1185.75 500.914 1187.03 500.914C1188.48 500.914 1189.76 501.34 1190.88 502.192C1191.01 502.3 1191.02 502.426 1190.91 502.57L1190.1 503.722C1190 503.866 1189.88 503.884 1189.74 503.776C1188.95 503.188 1188.05 502.894 1187.04 502.894C1186.37 502.894 1185.81 503.092 1185.37 503.488C1184.94 503.872 1184.72 504.43 1184.72 505.162V506.548ZM1184.72 509.95C1184.72 510.634 1184.93 511.18 1185.35 511.588C1185.78 511.996 1186.36 512.2 1187.08 512.2C1187.8 512.2 1188.36 511.99 1188.77 511.57C1189.18 511.15 1189.38 510.568 1189.38 509.824C1189.38 508.36 1188.64 507.628 1187.15 507.628C1186.43 507.628 1185.84 507.808 1185.39 508.168C1184.94 508.516 1184.72 509.056 1184.72 509.788V509.95Z" fill="white"/>
<rect x="1304" y="476" width="62" height="62" rx="31" transform="rotate(-90 1304 476)" fill="#FF6100"/>
<path d="M1333.58 452H1331.75C1331.65 452 1331.58 451.97 1331.55 451.91C1331.51 451.85 1331.52 451.772 1331.57 451.676L1336.55 441.164H1330.74C1330.56 441.164 1330.47 441.074 1330.47 440.894V439.4C1330.47 439.22 1330.56 439.13 1330.74 439.13H1338.98C1339.16 439.13 1339.25 439.22 1339.25 439.4V440.354C1339.25 440.45 1339.22 440.558 1339.16 440.678L1333.89 451.802C1333.84 451.934 1333.74 452 1333.58 452Z" fill="white"/>
<g class="house-complex js-house-floor" data-floor="1">
  <path d="M438 698V699H439H524H525V698V695H582V698V699H583H609H610V698V695H626.694H627.694V694V384.837V383.837H626.694H623.083V360.38V359.442L622.146 359.382L594.029 357.596V354.382V353.498L593.152 353.389L484.778 340.008L483.655 339.869V341V343.586L447.862 340.005L447.188 339.938L446.875 340.538L441.341 351.151L441.22 351.384L441.229 351.648L442.138 378.035L438.226 382.819L438 383.095V383.452V698Z" fill="#FF6100" fill-opacity="0.2" stroke="#FF6100" stroke-width="2"/>
  <rect x="439" y="417" width="62" height="62" rx="31" transform="rotate(-90 439 417)" fill="#FF6100"/>
  <path d="M473.5 393H465.418C465.25 393 465.166 392.91 465.166 392.73V391.65C465.166 391.518 465.208 391.41 465.292 391.326L468.946 387.528C469.786 386.652 470.41 385.926 470.818 385.35C471.226 384.762 471.43 384.18 471.43 383.604C471.43 383.124 471.274 382.722 470.962 382.398C470.65 382.062 470.176 381.894 469.54 381.894C468.556 381.894 467.596 382.374 466.66 383.334C466.54 383.478 466.42 383.472 466.3 383.316L465.454 382.164C465.358 382.044 465.364 381.924 465.472 381.804C466.636 380.544 467.992 379.914 469.54 379.914C470.728 379.914 471.694 380.232 472.438 380.868C473.194 381.504 473.572 382.404 473.572 383.568C473.572 384.348 473.368 385.086 472.96 385.782C472.564 386.478 471.934 387.318 471.07 388.302C470.338 389.142 469.444 390.06 468.388 391.056H473.5C473.68 391.056 473.77 391.146 473.77 391.326V392.73C473.77 392.91 473.68 393 473.5 393Z" fill="white"/>
</g>
</svg>
