<svg width="60" height="113" viewBox="0 0 60 113" fill="none" xmlns="http://www.w3.org/2000/svg">
<mask id="path-1-inside-1_2501_38512" fill="white">
<path fill-rule="evenodd" clip-rule="evenodd" d="M29.5504 2.1624L0.726306 8.40013C0.302469 8.49186 0 8.86678 0 9.30043C0 9.70397 0.262666 10.0605 0.64807 10.1802L2.84958 10.8635C3.0832 10.936 3.33158 10.947 3.5707 10.8954L4.02618 10.7972V13.581H6.71005V10.2183L10.7355 9.35013V13.5812H14.7613V8.48184L28.1809 5.5875V13.5807H36.2326V4.31923C37.8537 4.17711 39.5175 4.09301 40.818 4.15909C43.7119 4.30613 45.73 4.97139 46.3265 5.25166L46.9679 5.57386V13.5813H50.9937V7.59639L55.0982 9.65849C55.7954 10.0088 56.5885 10.1198 57.3551 9.97461L57.8876 9.87374C59.1986 9.62537 59.476 7.87067 58.3055 7.23005L51.7157 3.62349C50.5099 2.84265 46.997 1.36885 41.7955 1.06228C36.5773 0.754711 31.487 1.66038 29.5504 2.1624ZM50.9937 6.80097L55.4173 9.02337C55.9751 9.30358 56.6096 9.39245 57.2228 9.27626L57.7553 9.17539C58.2278 9.08588 58.4317 8.60506 58.2896 8.22359C58.4315 8.60501 58.2275 9.0856 57.7552 9.17509L57.2227 9.27596C56.6094 9.39214 55.975 9.30327 55.4172 9.02306L50.9937 6.80071V6.80097ZM0.723515 9.37258C0.745587 9.43299 0.794769 9.48147 0.858774 9.50134L3.06028 10.1847C3.17709 10.2209 3.30128 10.2264 3.42084 10.2007L4.02618 10.0701V10.0698L3.42073 10.2003C3.30117 10.2261 3.17698 10.2206 3.06017 10.1844L0.85866 9.50103C0.794764 9.4812 0.745641 9.43285 0.723515 9.37258ZM6.41334 9.55523L10.7355 8.62302V8.62268L6.41179 9.55523H6.41334ZM14.7613 7.75473L28.1809 4.86039V4.86005L14.7613 7.7544V7.75473ZM36.2326 3.60579C37.8608 3.46472 39.5331 3.38212 40.854 3.44924C43.8359 3.60074 45.9523 4.28793 46.6377 4.61259L46.9679 4.77844V4.77818L46.6376 4.61228C45.9522 4.28763 43.8357 3.60043 40.8539 3.44893C39.533 3.38181 37.8608 3.46441 36.2326 3.60547V3.60579Z"/>
</mask>
<path fill-rule="evenodd" clip-rule="evenodd" d="M29.5504 2.1624L0.726306 8.40013C0.302469 8.49186 0 8.86678 0 9.30043C0 9.70397 0.262666 10.0605 0.64807 10.1802L2.84958 10.8635C3.0832 10.936 3.33158 10.947 3.5707 10.8954L4.02618 10.7972V13.581H6.71005V10.2183L10.7355 9.35013V13.5812H14.7613V8.48184L28.1809 5.5875V13.5807H36.2326V4.31923C37.8537 4.17711 39.5175 4.09301 40.818 4.15909C43.7119 4.30613 45.73 4.97139 46.3265 5.25166L46.9679 5.57386V13.5813H50.9937V7.59639L55.0982 9.65849C55.7954 10.0088 56.5885 10.1198 57.3551 9.97461L57.8876 9.87374C59.1986 9.62537 59.476 7.87067 58.3055 7.23005L51.7157 3.62349C50.5099 2.84265 46.997 1.36885 41.7955 1.06228C36.5773 0.754711 31.487 1.66038 29.5504 2.1624ZM50.9937 6.80097L55.4173 9.02337C55.9751 9.30358 56.6096 9.39245 57.2228 9.27626L57.7553 9.17539C58.2278 9.08588 58.4317 8.60506 58.2896 8.22359C58.4315 8.60501 58.2275 9.0856 57.7552 9.17509L57.2227 9.27596C56.6094 9.39214 55.975 9.30327 55.4172 9.02306L50.9937 6.80071V6.80097ZM0.723515 9.37258C0.745587 9.43299 0.794769 9.48147 0.858774 9.50134L3.06028 10.1847C3.17709 10.2209 3.30128 10.2264 3.42084 10.2007L4.02618 10.0701V10.0698L3.42073 10.2003C3.30117 10.2261 3.17698 10.2206 3.06017 10.1844L0.85866 9.50103C0.794764 9.4812 0.745641 9.43285 0.723515 9.37258ZM6.41334 9.55523L10.7355 8.62302V8.62268L6.41179 9.55523H6.41334ZM14.7613 7.75473L28.1809 4.86039V4.86005L14.7613 7.7544V7.75473ZM36.2326 3.60579C37.8608 3.46472 39.5331 3.38212 40.854 3.44924C43.8359 3.60074 45.9523 4.28793 46.6377 4.61259L46.9679 4.77844V4.77818L46.6376 4.61228C45.9522 4.28763 43.8357 3.60043 40.8539 3.44893C39.533 3.38181 37.8608 3.46441 36.2326 3.60547V3.60579Z" fill="#F9F9F9"/>
<path d="M0.726306 8.40013L0.5127 7.41307H0.512699L0.726306 8.40013ZM29.5504 2.1624L29.764 3.14946L29.7841 3.14513L29.8039 3.14L29.5504 2.1624ZM0.64807 10.1802L0.947452 9.21564H0.947452L0.64807 10.1802ZM2.84958 10.8635L2.5502 11.828H2.5502L2.84958 10.8635ZM3.5707 10.8954L3.78361 11.8827L3.78362 11.8827L3.5707 10.8954ZM4.02618 10.7972H5.03609V9.54626L3.81326 9.81L4.02618 10.7972ZM4.02618 13.581H3.01627V14.591H4.02618V13.581ZM6.71005 13.581V14.591H7.71996V13.581H6.71005ZM6.71005 10.2183L6.49713 9.23114L5.70014 9.40303V10.2183H6.71005ZM10.7355 9.35013H11.7455V8.09918L10.5226 8.36292L10.7355 9.35013ZM10.7355 13.5812H9.72563V14.5911H10.7355V13.5812ZM14.7613 13.5812V14.5911H15.7713V13.5812H14.7613ZM14.7613 8.48184L14.5484 7.49463L13.7514 7.66653V8.48184H14.7613ZM28.1809 5.5875H29.1908V4.33655L27.968 4.60029L28.1809 5.5875ZM28.1809 13.5807H27.171V14.5906H28.1809V13.5807ZM36.2326 13.5807V14.5906H37.2425V13.5807H36.2326ZM36.2326 4.31923L36.1444 3.31317L35.2226 3.39397V4.31923H36.2326ZM40.818 4.15909L40.8692 3.15048L40.818 4.15909ZM46.3265 5.25166L46.7799 4.34923L46.768 4.34326L46.756 4.3376L46.3265 5.25166ZM46.9679 5.57386H47.9778V4.95104L47.4212 4.67143L46.9679 5.57386ZM46.9679 13.5813H45.9579V14.5912H46.9679V13.5813ZM50.9937 13.5813V14.5912H52.0036V13.5813H50.9937ZM50.9937 7.59639L51.447 6.69396L49.9838 5.95883V7.59639H50.9937ZM55.0982 9.65849L55.5516 8.75606L55.5516 8.75606L55.0982 9.65849ZM57.3551 9.97461L57.1672 8.98235L57.1671 8.98235L57.3551 9.97461ZM57.8876 9.87374L58.0756 10.866H58.0756L57.8876 9.87374ZM58.3055 7.23005L58.7903 6.34414L58.7903 6.34414L58.3055 7.23005ZM51.7157 3.62349L51.1667 4.47118L51.1981 4.49147L51.2308 4.5094L51.7157 3.62349ZM41.7955 1.06228L41.855 0.0541144L41.7955 1.06228ZM50.9937 6.80097H49.9838V7.42379L50.5403 7.70339L50.9937 6.80097ZM55.4173 9.02337L55.8707 8.12094L55.8707 8.12094L55.4173 9.02337ZM57.2228 9.27626L57.0349 8.284L57.2228 9.27626ZM57.7553 9.17539L57.5673 8.18313L57.5673 8.18313L57.7553 9.17539ZM58.2896 8.22359L59.236 7.87104L57.3431 8.57569L58.2896 8.22359ZM57.7552 9.17509L57.9431 10.1673H57.9431L57.7552 9.17509ZM57.2227 9.27596L57.0347 8.28369L57.0347 8.28369L57.2227 9.27596ZM55.4172 9.02306L54.9638 9.92548V9.92548L55.4172 9.02306ZM50.9937 6.80071L51.447 5.89829L49.9838 5.16315V6.80071H50.9937ZM0.723515 9.37258L1.67155 9.02453L-0.225067 9.71915L0.723515 9.37258ZM0.858774 9.50134L0.559391 10.4659L0.559392 10.4659L0.858774 9.50134ZM3.06028 10.1847L2.7609 11.1492L2.76091 11.1492L3.06028 10.1847ZM3.42084 10.2007L3.63376 11.1879L3.63376 11.1879L3.42084 10.2007ZM4.02618 10.0701L4.2391 11.0573L5.03609 10.8854V10.0701H4.02618ZM4.02618 10.0698H5.03609V8.81881L3.81326 9.08255L4.02618 10.0698ZM3.42073 10.2003L3.20781 9.21314H3.20781L3.42073 10.2003ZM3.06017 10.1844L2.76079 11.1489L2.76079 11.1489L3.06017 10.1844ZM0.85866 9.50103L1.15804 8.53652L1.15804 8.53651L0.85866 9.50103ZM6.41334 9.55523V10.5651H6.52101L6.62626 10.5424L6.41334 9.55523ZM10.7355 8.62302L10.9485 9.61023L11.7455 9.43833V8.62302H10.7355ZM10.7355 8.62268H11.7455V7.37173L10.5226 7.63547L10.7355 8.62268ZM6.41179 9.55523L6.19887 8.56802L6.41179 10.5651V9.55523ZM14.7613 7.75473H13.7514V9.00568L14.9743 8.74194L14.7613 7.75473ZM28.1809 4.86039L28.3939 5.8476L29.1908 5.6757V4.86039H28.1809ZM28.1809 4.86005H29.1908V3.6091L27.968 3.87284L28.1809 4.86005ZM14.7613 7.7544L14.5484 6.76719L13.7514 6.93908V7.7544H14.7613ZM36.2326 3.60579H35.2226V4.70698L36.3197 4.61193L36.2326 3.60579ZM40.854 3.44924L40.8028 4.45785L40.854 3.44924ZM46.6377 4.61259L47.0911 3.71017L47.0806 3.7049L47.07 3.69988L46.6377 4.61259ZM46.9679 4.77844L46.5145 5.68086L47.9778 6.416V4.77844H46.9679ZM46.9679 4.77818H47.9778V4.15536L47.4212 3.87576L46.9679 4.77818ZM46.6376 4.61228L47.091 3.70986L47.0805 3.70459L47.0699 3.69957L46.6376 4.61228ZM40.8539 3.44893L40.8027 4.45754L40.8539 3.44893ZM36.2326 3.60547L36.1454 2.59933L35.2226 2.67927V3.60547H36.2326ZM0.939913 9.3872L29.764 3.14946L29.3368 1.17534L0.5127 7.41307L0.939913 9.3872ZM1.00991 9.30043C1.00991 9.34223 0.98076 9.37836 0.939914 9.3872L0.512699 7.41307C-0.375821 7.60535 -1.00991 8.39133 -1.00991 9.30043H1.00991ZM0.947452 9.21564C0.984596 9.22717 1.00991 9.26154 1.00991 9.30043H-1.00991C-1.00991 10.1464 -0.459265 10.8939 0.348688 11.1447L0.947452 9.21564ZM0.348687 11.1447L2.5502 11.828L3.14896 9.89899L0.947452 9.21564L0.348687 11.1447ZM2.5502 11.828C2.94979 11.9521 3.37463 11.9709 3.78361 11.8827L3.35778 9.90824C3.28853 9.92317 3.21661 9.91998 3.14896 9.89899L2.5502 11.828ZM3.81326 9.81L3.35777 9.90824L3.78362 11.8827L4.2391 11.7844L3.81326 9.81ZM3.01627 10.7972V13.581H5.03609V10.7972H3.01627ZM4.02618 14.591H6.71005V12.5711H4.02618V14.591ZM7.71996 13.581V10.2183H5.70014V13.581H7.71996ZM10.5226 8.36292L6.49713 9.23114L6.92298 11.2056L10.9485 10.3373L10.5226 8.36292ZM9.72563 9.35013V13.5812H11.7455V9.35013H9.72563ZM10.7355 14.5911H14.7613V12.5713H10.7355V14.5911ZM15.7713 13.5812V8.48184H13.7514V13.5812H15.7713ZM27.968 4.60029L14.5484 7.49463L14.9743 9.46905L28.3939 6.57471L27.968 4.60029ZM27.171 5.5875V13.5807H29.1908V5.5875H27.171ZM28.1809 14.5906H36.2326V12.5707H28.1809V14.5906ZM37.2425 13.5807V4.31923H35.2226V13.5807H37.2425ZM40.8692 3.15048C39.4985 3.08084 37.7798 3.16981 36.1444 3.31317L36.3207 5.32528C37.9276 5.18442 39.5365 5.10519 40.7667 5.1677L40.8692 3.15048ZM46.756 4.3376C46.0221 3.99284 43.872 3.30305 40.8692 3.15048L40.7667 5.1677C43.5519 5.30921 45.4378 5.94995 45.8971 6.16571L46.756 4.3376ZM47.4212 4.67143L46.7799 4.34923L45.8731 6.15408L46.5145 6.47629L47.4212 4.67143ZM45.9579 5.57386V13.5813H47.9778V5.57386H45.9579ZM46.9679 14.5912H50.9937V12.5714H46.9679V14.5912ZM52.0036 13.5813V7.59639H49.9838V13.5813H52.0036ZM55.5516 8.75606L51.447 6.69396L50.5403 8.49882L54.6449 10.5609L55.5516 8.75606ZM57.1671 8.98235C56.6184 9.08631 56.0507 9.00679 55.5516 8.75606L54.6449 10.5609C55.5402 11.0107 56.5587 11.1534 57.5431 10.9669L57.1671 8.98235ZM57.6996 8.88148L57.1672 8.98235L57.5431 10.9669L58.0756 10.866L57.6996 8.88148ZM57.8206 8.11596C58.1595 8.30146 58.0792 8.80956 57.6996 8.88148L58.0756 10.866C60.318 10.4412 60.7924 7.43988 58.7903 6.34414L57.8206 8.11596ZM51.2308 4.5094L57.8206 8.11596L58.7903 6.34414L52.2006 2.73758L51.2308 4.5094ZM41.7361 2.07044C46.7996 2.36888 50.1353 3.80325 51.1667 4.47118L52.2646 2.7758C50.8845 1.88204 47.1944 0.368817 41.855 0.0541144L41.7361 2.07044ZM29.8039 3.14C31.6632 2.658 36.6459 1.77042 41.7361 2.07044L41.855 0.0541144C36.5086 -0.261 31.3108 0.662768 29.297 1.18481L29.8039 3.14ZM50.5403 7.70339L54.9639 9.92579L55.8707 8.12094L51.447 5.89854L50.5403 7.70339ZM54.9639 9.92579C55.7198 10.3055 56.5797 10.426 57.4108 10.2685L57.0349 8.284C56.6394 8.35892 56.2303 8.30161 55.8707 8.12094L54.9639 9.92579ZM57.4108 10.2685L57.9433 10.1677L57.5673 8.18313L57.0349 8.284L57.4108 10.2685ZM57.9433 10.1677C59.1066 9.94727 59.5687 8.76416 59.236 7.87104L57.3433 8.57614C57.3123 8.49299 57.3209 8.41289 57.3552 8.34633C57.3978 8.26375 57.4821 8.19927 57.5673 8.18313L57.9433 10.1677ZM57.9431 10.1673C59.1061 9.94702 59.5683 8.76446 59.2362 7.87149L57.3431 8.57569C57.3122 8.49258 57.3208 8.41251 57.3551 8.34596C57.3977 8.26341 57.4821 8.19895 57.5672 8.18282L57.9431 10.1673ZM57.4107 10.2682L57.9431 10.1673L57.5672 8.18282L57.0347 8.28369L57.4107 10.2682ZM54.9638 9.92548C55.7197 10.3052 56.5796 10.4257 57.4107 10.2682L57.0347 8.28369C56.6393 8.35861 56.2302 8.30131 55.8706 8.12063L54.9638 9.92548ZM50.5403 7.70314L54.9638 9.92548L55.8706 8.12063L51.447 5.89829L50.5403 7.70314ZM52.0036 6.80097V6.80071H49.9838V6.80097H52.0036ZM-0.225067 9.71915C-0.0973155 10.0688 0.187648 10.3505 0.559391 10.4659L1.15816 8.53683C1.40189 8.61248 1.58849 8.79717 1.6721 9.02601L-0.225067 9.71915ZM3.35967 9.22017L1.15816 8.53683L0.559392 10.4659L2.7609 11.1492L3.35967 9.22017ZM3.20793 9.21344C3.25824 9.20259 3.31051 9.20491 3.35966 9.22017L2.76091 11.1492C3.04368 11.237 3.34433 11.2503 3.63376 11.1879L3.20793 9.21344ZM3.63376 11.1879L4.2391 11.0573L3.81326 9.08288L3.20792 9.21344L3.63376 11.1879ZM3.01627 10.0698V10.0701H5.03609V10.0698H3.01627ZM3.63365 11.1876L4.2391 11.057L3.81326 9.08255L3.20781 9.21314L3.63365 11.1876ZM2.76079 11.1489C3.04357 11.2367 3.34421 11.25 3.63365 11.1876L3.20781 9.21314C3.25813 9.20228 3.31039 9.2046 3.35955 9.21986L2.76079 11.1489ZM0.559278 10.4655L2.76079 11.1489L3.35955 9.21986L1.15804 8.53652L0.559278 10.4655ZM-0.224524 9.72064C-0.0964611 10.0695 0.188163 10.3504 0.559283 10.4655L1.15804 8.53651C1.40137 8.61204 1.58774 8.79624 1.67155 9.02453L-0.224524 9.72064ZM6.62626 10.5424L10.9485 9.61023L10.5226 7.63581L6.20042 8.56802L6.62626 10.5424ZM9.72563 8.62268V8.62302H11.7455V8.62268H9.72563ZM6.62471 10.5424L10.9485 9.60989L10.5226 7.63547L6.19887 8.56802L6.62471 10.5424ZM6.41334 8.54532H6.41179V10.5651H6.41334V8.54532ZM14.9743 8.74194L28.3939 5.8476L27.968 3.87318L14.5484 6.76752L14.9743 8.74194ZM27.171 4.86005V4.86039H29.1908V4.86005H27.171ZM14.9743 8.74161L28.3939 5.84726L27.968 3.87284L14.5484 6.76719L14.9743 8.74161ZM15.7713 7.75473V7.7544H13.7514V7.75473H15.7713ZM36.3197 4.61193C37.933 4.47216 39.5512 4.39425 40.8028 4.45785L40.9053 2.44063C39.515 2.36999 37.7886 2.45729 36.1454 2.59965L36.3197 4.61193ZM40.8028 4.45785C43.676 4.60384 45.6591 5.26652 46.2055 5.52531L47.07 3.69988C46.2455 3.30935 43.9957 2.59765 40.9053 2.44063L40.8028 4.45785ZM46.1844 5.51502L46.5145 5.68086L47.4212 3.87601L47.0911 3.71017L46.1844 5.51502ZM45.9579 4.77818V4.77844H47.9778V4.77818H45.9579ZM46.1843 5.51471L46.5145 5.68061L47.4212 3.87576L47.091 3.70986L46.1843 5.51471ZM40.8027 4.45754C43.6759 4.60353 45.6589 5.26621 46.2053 5.525L47.0699 3.69957C46.2454 3.30904 43.9956 2.59734 40.9052 2.44032L40.8027 4.45754ZM36.3197 4.61161C37.933 4.47185 39.5511 4.39394 40.8027 4.45754L40.9052 2.44032C39.515 2.36968 37.7885 2.45697 36.1454 2.59933L36.3197 4.61161ZM37.2425 3.60579V3.60547H35.2226V3.60579H37.2425Z" fill="#9D9D9D" mask="url(#path-1-inside-1_2501_38512)"/>
<path d="M29.7152 2.85089L0.876809 9.09171C0.780014 9.11266 0.710938 9.19828 0.710938 9.29732C0.710938 9.38948 0.770924 9.47091 0.858942 9.49823L3.06045 10.1816C3.17726 10.2178 3.30145 10.2233 3.42101 10.1975L31.0861 4.23071C33.0997 3.90606 37.8724 3.29462 40.8542 3.44612C43.836 3.59763 45.9524 4.28482 46.6379 4.60948L55.4175 9.02025C55.9752 9.30047 56.6097 9.38934 57.223 9.27315L57.7554 9.17228C58.411 9.0481 58.5496 8.17074 57.9644 7.85044L51.3506 4.23071C50.2938 3.5363 46.895 2.07172 41.7539 1.7687C36.6128 1.46569 31.586 2.36391 29.7152 2.85089Z" fill="#F9F9F9"/>
<rect x="2.17864" y="13.0763" width="54.6874" height="98.6946" rx="2.52478" stroke="#9D9D9D" stroke-width="1.00991"/>
<path d="M2.68359 15.6011C2.68359 14.4856 3.5879 13.5813 4.70342 13.5813H54.3412C55.4567 13.5813 56.361 14.4856 56.361 15.6011V21.6329H2.68359V15.6011Z" fill="#F9F9F9"/>
<rect x="2.68359" y="21.6329" width="53.6775" height="8.05162" fill="#F9F9F9"/>
<rect x="2.68359" y="29.6846" width="53.6775" height="8.05162" fill="#F9F9F9"/>
<rect x="2.68359" y="37.7362" width="53.6775" height="8.05162" fill="#FF6100"/>
<rect x="2.68359" y="45.7877" width="53.6775" height="8.05162" fill="#F9F9F9"/>
<rect x="2.68359" y="53.8394" width="53.6775" height="8.05162" fill="#F9F9F9"/>
<rect x="2.68359" y="61.891" width="53.6775" height="8.05162" fill="#F9F9F9"/>
<rect x="2.68359" y="69.9429" width="53.6775" height="8.05162" fill="#F9F9F9"/>
<rect x="2.68359" y="77.994" width="53.6775" height="8.05162" fill="#F9F9F9"/>
<rect x="2.68359" y="86.0459" width="53.6775" height="8.05162" fill="#F9F9F9"/>
<path d="M2.68359 94.0975H56.361V109.246C56.361 110.362 55.4567 111.266 54.3412 111.266H4.70341C3.5879 111.266 2.68359 110.362 2.68359 109.246V94.0975Z" fill="#F9F9F9"/>
<path d="M2.68359 94.0975H13.3879V109.246C13.3879 110.362 12.4836 111.266 11.3681 111.266H4.70341C3.5879 111.266 2.68359 110.362 2.68359 109.246V94.0975Z" fill="#F9F9F9"/>
<path d="M2.17864 95.4395V98.7473V109.924C2.17864 110.944 3.00552 111.771 4.02553 111.771H11.8395C12.3893 111.771 12.9104 111.526 13.2613 111.103L22.836 99.555C22.995 99.3633 23.2311 99.2523 23.4803 99.2523H55.0191C56.0391 99.2523 56.866 98.4254 56.866 97.4054V95.4395C56.866 94.4195 56.0391 93.5926 55.0191 93.5926H4.02553C3.00552 93.5926 2.17864 94.4195 2.17864 95.4395Z" fill="#F9F9F9" stroke="#9D9D9D" stroke-width="1.00991"/>
</svg>
