<svg width="1560" height="1348" viewBox="0 0 1560 1348" fill="none" xmlns="http://www.w3.org/2000/svg" xmlns:xlink="http://www.w3.org/1999/xlink">
  <g class="house-floor">
     <path d="M566.5 602L409 666V729L566.5 675L841 693L957 671.5L1105.5 679V610.5L957 600L841 619L566.5 602Z" fill="#FF6100" fill-opacity="0.2" stroke="#FF6100" stroke-width="2"/>
  </g>
  <g class="house-floor">
    <path d="M566.5 676L409 740V803L566.5 749L841 767L957 745.5L1105.5 753V684.5L957 674L841 693L566.5 676Z" fill="#FF6100" fill-opacity="0.2" stroke="#FF6100" stroke-width="2"/>
  </g>
  <g class="house-floor house-floor--sold-out">
    <path d="M566.5 881L409 900.5V963.5L566.5 954L841 963.5L957 958H1105.5V881L957 879L846.5 884L566.5 881Z" fill="#665551" fill-opacity="0.42"/>
  </g>
</svg>
