<svg width="1560" height="926" viewBox="0 0 1560 926" fill="none" xmlns="http://www.w3.org/2000/svg" xmlns:xlink="http://www.w3.org/1999/xlink">
  <rect width="1560" height="926" fill="url(#pattern0_427_617)"/>
  <path d="M290.571 709.501L290.561 709.502L290.551 709.503L262.5 712.249V650.485L291.615 649.6L291.633 649.599L291.65 649.598L373.811 641.302L389.471 642.199L389.502 642.201L389.532 642.199L518.799 633.901L531.665 634.799L531.702 634.802L531.738 634.799L651.838 625.599L651.846 625.598L651.854 625.597L660.154 624.697L660.166 624.696L722.427 616.467L723.301 634.424L723.325 634.923L723.824 634.9L802.324 631.2L802.369 631.197L802.414 631.187L814.362 628.399L924.208 626.6L924.262 626.599L924.314 626.587L936.277 623.796L1031.4 616.402L1040.55 617.298L1040.62 617.305L1040.69 617.291L1078.97 609.991L1080.7 623.364L1080.76 623.822L1081.22 623.8L1099.7 622.9H1099.71H1110H1110.01L1110.03 622.899L1219.02 616.4L1219.03 616.399L1294.82 612.7L1294.86 612.698L1294.89 612.692L1330.31 606.296L1331.19 649.614L1299.33 657.803L1218.08 661.501L1218.05 661.502L1218.02 661.507L1206.96 663.301L1113.7 664.2L1113.68 664.2L1113.66 664.202L1082.88 666.946L1083.7 661.069L1083.81 660.271L1083.04 660.526L1071.98 664.212L1039.75 668.803L1027.76 669.701L1027.76 669.702L936.265 676.201L936.265 676.201L923.376 677.101L923.365 677.101L809.81 682.599L799.644 681.702L799.611 681.699L799.578 681.701L735.9 684.5H735.889H723.5V676.7V675.943L722.804 676.24L709.962 681.715L679.525 686.306L679.521 686.306L661.921 689.106L661.913 689.108L651.738 690.903L600.968 694.601L600.964 694.602L529.884 699.2L529.868 699.201L389.484 703.8L389.484 703.8L389.471 703.801L290.571 709.501Z" fill="#FF6100" fill-opacity="0.2" stroke="#FF6100"/>
  <path d="M661.18 563.594L724.282 555.371L723.4 584.385L723.383 584.936L723.934 584.899L804.334 579.399L804.344 579.398L804.354 579.397L812.638 578.499L936.422 572.999L936.429 572.999L1029.73 567.499L1029.75 567.498L1029.77 567.494L1079.12 560.176L1080 579.922L1080.02 580.451L1080.55 580.397L1098.11 578.602L1109.16 579.498L1109.19 579.501L1109.22 579.499L1216.42 574.9L1216.43 574.899L1295.83 569.399L1295.88 569.396L1295.92 569.386L1303.28 567.594L1332.28 564.852L1330.52 605.481L1301.33 610.905L1301.31 610.908L1294.87 611.801L1294.83 611.805L1220.07 616.401L1220.06 616.401L1208.08 617.3L1208.06 617.301L1111.1 621.9H1111.09H1098H1097.99L1097.97 621.901L1081.84 622.775L1080.1 609.336L1080.03 608.809L1079.51 608.909L1040.73 616.304L1029.67 617.201L1029.66 617.201L936.371 622.701L936.328 622.703L936.286 622.713L924.334 625.502L812.583 629.2L812.576 629.2L812.569 629.201L737.8 633.8H737.785H724.376L723.499 615.776L723.473 615.225L722.928 615.305L660.144 624.503L649.065 625.401L649.06 625.401L531.782 633.7H518.9H518.886L518.871 633.701L389.6 641.099L373.929 640.201L373.889 640.198L373.85 640.202L291.575 648.5H281.4H281.388L281.377 648.5L262.5 649.376V588.5H289.7H289.782L289.86 588.474L298.102 585.693L389.533 578.299L389.54 578.298L520.725 571.799L520.737 571.798L532.723 570.899L532.737 570.898L651.923 565.399L651.96 565.398L651.996 565.39L661.18 563.594Z" fill="#FF6100" fill-opacity="0.2" stroke="#FF6100"/>
  <path d="M661.046 499.898L720.524 494.446L722.301 533.623L722.322 534.1H722.8H734.8H734.824L734.848 534.098L802.224 527.6H816.1H816.115L816.13 527.6L925.13 521.1L925.135 521.099L938.027 520.2L938.035 520.199L1039.63 514.7L1039.65 514.699L1039.67 514.696L1078.84 509.269L1080.6 534.635L1080.63 535.115L1081.12 535.1L1110.72 534.2L1110.73 534.2L1208.6 528.7H1208.61H1217.8H1217.81L1217.83 528.7L1295.4 524.1H1295.41H1302.8H1302.82L1302.85 524.098L1331.9 521.35V563.545L1302.75 566.303L1302.72 566.306L1302.68 566.315L1295.32 568.105L1216 573.6H1215.98H1208H1207.99L1207.98 573.601L1107.3 577.3H1107.29H1098H1097.97L1097.95 577.303L1080.88 579.049L1080 559.278L1079.98 558.73L1079.43 558.805L1039.73 564.305L1039.72 564.306L1039.71 564.308L1029.54 566.103L936.271 571.601L936.248 571.603L936.226 571.606L924.252 573.402L813.379 578.001L813.371 578.001L813.363 578.002L801.364 578.902L801.363 578.902L737.682 583.5H724.315L725.2 554.416L725.218 553.829L724.635 553.905L660.935 562.205L660.92 562.207L660.904 562.21L651.738 564.003L530.786 570.5H517.9H517.886L517.871 570.501L388.571 577.901L388.565 577.902L375.665 578.802L375.661 578.802L297.962 584.802L297.902 584.806L297.845 584.825L289.621 587.5H282.3H262.5V531.3H282.3H282.419L282.525 531.247L295.34 524.79L377.445 517.398L377.46 517.397L377.474 517.395L389.453 515.598L519.696 507.302L530.76 508.199L530.797 508.202L530.834 508.199L651.817 499.9H661H661.023L661.046 499.898Z" fill="#FF6100" fill-opacity="0.2" stroke="#FF6100"/>
  <path d="M290.054 529.935L290.164 529.894L290.262 529.827L295.649 526.171L324.99 523.396L324.994 523.396L375.79 518.796L375.809 518.794L375.828 518.792L389.696 516.996L519.891 508.703L530.919 509.597L530.994 509.603L531.068 509.598L652.034 501.3H661.2H661.246L661.291 501.296L720.248 495.891L722.001 534.545L722.044 535.5H723H735H735.042L735.084 535.497L800.684 529.997L800.692 529.996L800.699 529.995L811.657 528.898L811.699 528.895L925.257 522.398L925.269 522.398L925.281 522.397L936.359 521.498L936.381 521.497L1029.63 516H1039.8H1039.87L1039.94 515.991L1078.58 510.637L1080.3 535.469L1080.37 536.4H1081.3H1097H1107.2H1107.23L1107.26 536.398L1207.03 530.9H1216.3H1216.33L1216.36 530.898L1293.96 526.298L1293.98 526.297L1294.01 526.294L1302.29 525.396L1302.31 525.394L1332.79 522.596L1333.68 522.514L1333.7 521.619L1334.6 475.419L1334.62 474.302L1333.51 474.404L1303.01 477.204L1302.97 477.207L1302.94 477.213L1291.89 479.005L1217.14 483.602L1217.13 483.603L1217.11 483.604L1206.93 484.502L1206.91 484.504L1107.17 491H1098H1097.95L1097.9 491.005L1080.47 492.795L1079.6 458.774L1079.57 457.727L1078.53 457.803L1039.73 460.603L1039.68 460.606L1039.64 460.613L1034.19 461.504L938.152 466.101L938.141 466.102L938.13 466.102L925.236 467.002L925.23 467.002L810.568 474.4H802.3H802.253L802.207 474.404L723.881 481.704L723 431.982L722.982 430.947L721.947 431.001L651.747 434.701L651.738 434.702L531.639 442.102L531.625 442.103L519.628 443.003L519.625 443.003L390.33 452.302L390.328 452.303L377.43 453.202L377.398 453.205L377.366 453.209L288.666 465.209L288.423 465.242L288.222 465.384L281.982 469.8H262H261V470.8V531.8V532.8H262H282.3H282.483L282.654 532.735L290.054 529.935Z" fill="#FF6100" fill-opacity="0.2" stroke="#FF6100" stroke-width="2"/>
</svg>