<svg width="1560" height="926" viewBox="0 0 1560 926" fill="none" xmlns="http://www.w3.org/2000/svg">

<path d="M143.03 616.5L142 616.469V617.5V666V666.905L142.9 666.995L257.9 678.495L257.969 678.502L258.038 678.499L560.457 667.002L828.376 700.492L828.707 700.534L828.996 700.368L853.266 686.5H861.415L865.628 693.99L865.915 694.5H866.5H889.202L891.5 704.612V713.5V714.348L892.336 714.487L982.836 729.487L983.034 729.519L983.229 729.473L1000.03 725.519L1057.34 734.987L1057.49 735.013L1057.65 734.988L1099.45 728.519L1149.76 740.971L1149.95 741.017L1150.14 740.99L1192.5 735.011L1265.35 745.989L1265.65 746.034L1265.93 745.904L1353.93 704.404L1354.5 704.134V703.5V647V645.673L1353.22 646.039L1264.42 671.482L1192.62 662.508L1192.48 662.49L1192.34 662.513L1149.99 669.489L1099.64 662.509L1099.53 662.494L1099.42 662.503L1057.53 665.994L1000.14 658.01L999.939 657.982L999.744 658.033L982.914 662.488L893.5 654.584V652H896.5H897.5V651V646V645.049L896.55 645.001L867.5 643.549V635V634.168L866.682 634.017L853.182 631.517L852.913 631.467L852.655 631.561L828.376 640.48L560.609 611.006L560.54 610.998L560.47 611L258 620L143.03 616.5Z" fill="#FF6100" fill-opacity="0.2" stroke="#FF6100" stroke-width="2"/>
<path d="M829 642.906V698.924" stroke="#FF6100"/>
<path d="M853 632.903V685.92" stroke="#FF6100"/>
<path d="M867 644.907V693.922" stroke="#FF6100"/>
<path d="M893 656.911L893 713.929" stroke="#FF6100"/>
<path d="M983 663.913L983 728.933" stroke="#FF6100"/>
<path d="M1000 659.912L1000 724.932" stroke="#FF6100"/>
<path d="M1058 666.914L1058 735.935" stroke="#FF6100"/>
<path d="M1099 663.913L1099 727.933" stroke="#FF6100"/>
<path d="M1150 670.915L1150 739.936" stroke="#FF6100"/>
<path d="M1193 663.913L1193 734.935" stroke="#FF6100"/>
<path d="M1265 672.916L1265 745.939" stroke="#FF6100"/>
<path d="M259 621.5V677.5" stroke="#FF6100"/>

</svg>
