<svg width="28" height="28" viewBox="0 0 28 28" fill="none" xmlns="http://www.w3.org/2000/svg">
<path d="M5.83398 8.16602H10.5007C11.1195 8.16602 11.713 8.41185 12.1506 8.84943C12.5882 9.28702 12.834 9.88051 12.834 10.4993V17.4993C12.834 18.1182 12.5882 18.7117 12.1506 19.1493C11.713 19.5869 11.1195 19.8327 10.5007 19.8327H5.83398V17.4993H10.5007V15.166H7.00065V12.8327H10.5007V10.4993H5.83398V8.16602ZM15.1673 8.16602H18.6673C19.5956 8.16602 20.4858 8.53476 21.1422 9.19114C21.7986 9.84752 22.1673 10.7378 22.1673 11.666V16.3327C22.1673 17.2609 21.7986 18.1512 21.1422 18.8076C20.4858 19.4639 19.5956 19.8327 18.6673 19.8327H15.1673V8.16602ZM18.6673 17.4993C18.9767 17.4993 19.2735 17.3764 19.4923 17.1576C19.7111 16.9388 19.834 16.6421 19.834 16.3327V11.666C19.834 11.3566 19.7111 11.0599 19.4923 10.8411C19.2735 10.6223 18.9767 10.4993 18.6673 10.4993H17.5007V17.4993H18.6673Z" fill="black" fill-opacity="0.4"/>
</svg>
