<svg width="40" height="40" viewBox="0 0 40 40" fill="none" xmlns="http://www.w3.org/2000/svg">
<path fill-rule="evenodd" clip-rule="evenodd" d="M17.6423 3.50603C18.2323 2.91682 19.0217 2.57011 19.8547 2.53432C20.6878 2.49853 21.504 2.77625 22.1423 3.31269L22.3556 3.50769L25.5223 6.67269H29.999C30.8396 6.67285 31.6492 6.99064 32.2655 7.56242C32.8818 8.1342 33.2593 8.91772 33.3223 9.75602L33.3323 10.006V14.4827L36.499 17.6494C37.0887 18.2394 37.4356 19.0291 37.4714 19.8626C37.5072 20.696 37.2292 21.5126 36.6923 22.151L36.4973 22.3627L33.3306 25.5294V30.006C33.3309 30.847 33.0133 31.657 32.4415 32.2736C31.8697 32.8902 31.0859 33.268 30.2473 33.331L29.999 33.3394H25.524L22.3573 36.506C21.7672 37.0957 20.9775 37.4427 20.1441 37.4785C19.3107 37.5143 18.4941 37.2363 17.8556 36.6994L17.644 36.506L14.4773 33.3394H9.99898C9.15801 33.3396 8.34803 33.022 7.73139 32.4502C7.11476 31.8784 6.73705 31.0946 6.67397 30.256L6.66564 30.006V25.5294L3.49897 22.3627C2.9093 21.7726 2.5623 20.9829 2.52651 20.1495C2.49072 19.316 2.76873 18.4995 3.30564 17.861L3.49897 17.6494L6.66564 14.4827V10.006C6.6658 9.16535 6.98359 8.35578 7.55537 7.7395C8.12715 7.12322 8.91067 6.74574 9.74897 6.68269L9.99898 6.67269H14.4756L17.6423 3.50603ZM25.1306 14.9777L18.0573 22.051L15.1106 19.1044C14.7979 18.7918 14.3738 18.6164 13.9317 18.6165C13.4896 18.6167 13.0657 18.7925 12.7531 19.1052C12.4406 19.4179 12.2651 19.842 12.2653 20.2841C12.2655 20.7262 12.4412 21.1502 12.754 21.4627L16.7606 25.4694C16.9309 25.6397 17.133 25.7748 17.3555 25.867C17.578 25.9592 17.8165 26.0066 18.0573 26.0066C18.2981 26.0066 18.5366 25.9592 18.7591 25.867C18.9816 25.7748 19.1837 25.6397 19.354 25.4694L27.4873 17.3344C27.7909 17.02 27.9589 16.599 27.9551 16.162C27.9513 15.725 27.776 15.307 27.467 14.998C27.158 14.689 26.74 14.5137 26.303 14.5099C25.866 14.5061 25.445 14.6741 25.1306 14.9777Z" fill="currentColor"/>
</svg>
