<svg width="13" height="13" viewBox="0 0 13 13" fill="none" xmlns="http://www.w3.org/2000/svg">
<path d="M3.75483 0.922962C3.57421 0.742346 3.28138 0.742346 3.10076 0.922962L0.930779 3.09294C0.750157 3.27356 0.750157 3.5664 0.930779 3.74702C1.11139 3.92763 1.40423 3.92763 1.58485 3.74702L3.4278 1.90407L5.27078 3.74702C5.45138 3.92764 5.74423 3.92763 5.92485 3.74702C6.10547 3.5664 6.10547 3.27356 5.92485 3.09294L3.75483 0.922962Z" fill="currentColor" stroke="currentColor" stroke-width="0.05"/>
<path d="M3.89219 1.25C3.89219 0.99457 3.68512 0.7875 3.42969 0.7875C3.17426 0.7875 2.96719 0.99457 2.96719 1.25V11.75C2.96719 12.0054 3.17426 12.2125 3.42969 12.2125C3.68512 12.2125 3.89219 12.0054 3.89219 11.75V1.25Z" fill="currentColor" stroke="currentColor" stroke-width="0.05"/>
<path d="M7.07916 9.25303L7.07917 9.25302C7.25978 9.07246 7.55264 9.0724 7.73326 9.25302L9.57624 11.096L11.4192 9.25302L7.07916 9.25303ZM7.07916 9.25303C6.8986 9.43365 6.8986 9.7265 7.07922 9.90712L9.24922 12.0771C9.42984 12.2577 9.7227 12.2577 9.90326 12.0771C9.90326 12.0771 9.90326 12.0771 9.90326 12.0771M7.07916 9.25303L12.0556 9.2707C12.2264 9.44156 12.2264 9.71858 12.0556 9.88944L9.88558 12.0594L9.90326 12.0771M9.90326 12.0771L12.0733 9.90712L9.90326 12.0771Z" fill="currentColor" stroke="currentColor" stroke-width="0.05"/>
<path d="M10.0406 1.25C10.0406 0.99457 9.83355 0.7875 9.57812 0.7875C9.3227 0.7875 9.11562 0.99457 9.11562 1.25V11.75C9.11562 12.0054 9.3227 12.2125 9.57812 12.2125C9.83355 12.2125 10.0406 12.0054 10.0406 11.75V1.25Z" fill="currentColor" stroke="currentColor" stroke-width="0.05"/>
</svg>
