<svg width="22" height="22" viewBox="0 0 22 22" fill="none" xmlns="http://www.w3.org/2000/svg">
<path fill-rule="evenodd" clip-rule="evenodd" d="M9.58825 3.00848C9.7523 2.81167 9.95578 2.65143 10.1856 2.5381C10.4154 2.42477 10.6663 2.36086 10.9223 2.3505C11.1783 2.34014 11.4337 2.38354 11.6719 2.47793C11.9101 2.57231 12.1258 2.71558 12.3053 2.89848L12.4043 3.00848L16.0086 7.33331H18.7448C18.9372 7.3329 19.1275 7.37313 19.3032 7.45137C19.479 7.52961 19.6362 7.64409 19.7646 7.78731C19.8931 7.93054 19.9898 8.09927 20.0485 8.28247C20.1071 8.46567 20.1265 8.6592 20.1052 8.85039L20.0208 9.55256L19.9292 10.2309L19.854 10.7387L19.7669 11.2841L19.6679 11.8571L19.5561 12.4511L19.4314 13.057C19.3654 13.3622 19.2948 13.6684 19.2188 13.9727C19.0158 14.7776 18.761 15.5685 18.4561 16.3405L18.2535 16.8355L18.0573 17.2828L17.8722 17.6806L17.786 17.8585L17.5578 18.3076C17.2644 18.8668 16.7108 19.1968 16.125 19.2445L15.9783 19.25H6.005C5.68452 19.2525 5.36938 19.1678 5.09328 19.0051C4.81719 18.8423 4.59051 18.6076 4.4375 18.326L4.22484 17.9135L4.05984 17.5743C4.03046 17.5118 4.00143 17.4492 3.97275 17.3864L3.78942 16.9748C3.37091 16.0027 3.03126 14.9984 2.77375 13.9718C2.72401 13.7725 2.67634 13.5726 2.63075 13.3723L2.50059 12.7783L2.38417 12.1971L2.2815 11.6352L2.18984 11.0971L2.11009 10.5893L2.04225 10.1191L1.95975 9.49297L1.89925 8.98331C1.89397 8.93657 1.88878 8.88982 1.88367 8.84306C1.86446 8.66292 1.88132 8.48077 1.93327 8.30722C1.98522 8.13367 2.07122 7.97221 2.18625 7.83227C2.30128 7.69232 2.44303 7.57669 2.60324 7.49212C2.76345 7.40755 2.93889 7.35575 3.11934 7.33973L3.244 7.33331H5.98392L9.58825 3.00848ZM9.12717 11.6618C9.06516 11.4455 8.92577 11.2596 8.73555 11.1394C8.54532 11.0193 8.31755 10.9733 8.09561 11.0102C7.87366 11.0471 7.67304 11.1644 7.53195 11.3396C7.39087 11.5149 7.31917 11.7359 7.3305 11.9606L7.34242 12.067L7.80075 14.817L7.82367 14.9215C7.88568 15.1378 8.02507 15.3237 8.21529 15.4438C8.40552 15.564 8.63329 15.61 8.85523 15.5731C9.07718 15.5362 9.2778 15.4189 9.41889 15.2436C9.55997 15.0684 9.63168 14.8474 9.62034 14.6226L9.60842 14.5163L9.15009 11.7663L9.12717 11.6618ZM13.8966 11.0128C13.675 10.9759 13.4476 11.0215 13.2575 11.1412C13.0674 11.2608 12.9279 11.4461 12.8653 11.6618L12.8424 11.7663L12.3841 14.5163C12.3458 14.7469 12.3971 14.9835 12.5275 15.1775C12.6579 15.3716 12.8575 15.5085 13.0855 15.5603C13.3134 15.612 13.5526 15.5747 13.754 15.456C13.9554 15.3372 14.1038 15.146 14.1688 14.9215L14.1918 14.817L14.6501 12.067C14.6898 11.8273 14.6328 11.5816 14.4915 11.3839C14.3502 11.1863 14.1362 11.0528 13.8966 11.0128ZM10.9963 4.18181L8.37 7.33331H13.6225L10.9963 4.18181Z" fill="currentColor"/>
</svg>
