<svg width="18" height="18" viewBox="0 0 18 18" fill="none" xmlns="http://www.w3.org/2000/svg">
<path d="M2 2.77778C2 2.34822 2.34822 2 2.77778 2H7.44444C7.874 2 8.22222 2.34822 8.22222 2.77778V7.44444C8.22222 7.874 7.874 8.22222 7.44444 8.22222H2.77778C2.34822 8.22222 2 7.874 2 7.44444V2.77778Z" fill="currentColor"/>
<path d="M2 10.5556C2 10.126 2.34822 9.77778 2.77778 9.77778H7.44444C7.874 9.77778 8.22222 10.126 8.22222 10.5556V15.2222C8.22222 15.6518 7.874 16 7.44444 16H2.77778C2.34822 16 2 15.6518 2 15.2222V10.5556Z" fill="currentColor"/>
<path d="M9.77778 2.77778C9.77778 2.34822 10.126 2 10.5556 2H15.2222C15.6518 2 16 2.34822 16 2.77778V7.44444C16 7.874 15.6518 8.22222 15.2222 8.22222H10.5556C10.126 8.22222 9.77778 7.874 9.77778 7.44444V2.77778Z" fill="currentColor"/>
<path d="M9.77778 10.5556C9.77778 10.126 10.126 9.77778 10.5556 9.77778H15.2222C15.6518 9.77778 16 10.126 16 10.5556V15.2222C16 15.6518 15.6518 16 15.2222 16H10.5556C10.126 16 9.77778 15.6518 9.77778 15.2222V10.5556Z" fill="currentColor"/>
</svg>
