<svg width="20" height="20" viewBox="0 0 20 20" fill="none" xmlns="http://www.w3.org/2000/svg">
<path d="M17.4993 5.83333H12.4993C12.2783 5.83333 12.0664 5.92113 11.9101 6.07741C11.7538 6.23369 11.666 6.44565 11.666 6.66667V9.16667H9.99935V3.33333C9.99935 3.11232 9.91155 2.90036 9.75527 2.74408C9.59899 2.5878 9.38703 2.5 9.16602 2.5H2.49935C2.27834 2.5 2.06637 2.5878 1.91009 2.74408C1.75381 2.90036 1.66602 3.11232 1.66602 3.33333V16.6667C1.66602 16.8877 1.75381 17.0996 1.91009 17.2559C2.06637 17.4122 2.27834 17.5 2.49935 17.5H17.4993C17.7204 17.5 17.9323 17.4122 18.0886 17.2559C18.2449 17.0996 18.3327 16.8877 18.3327 16.6667V6.66667C18.3327 6.44565 18.2449 6.23369 18.0886 6.07741C17.9323 5.92113 17.7204 5.83333 17.4993 5.83333ZM6.66602 5H8.33268V6.66667H6.66602V5ZM4.99935 13.3333H3.33268V11.6667H4.99935V13.3333ZM4.99935 10H3.33268V8.33333H4.99935V10ZM4.99935 6.66667H3.33268V5H4.99935V6.66667ZM8.33268 13.3333H6.66602V11.6667H8.33268V13.3333ZM8.33268 10H6.66602V8.33333H8.33268V10ZM15.8327 13.3333H14.166V11.6667H15.8327V13.3333ZM15.8327 10H14.166V8.33333H15.8327V10Z" fill="currentColor"/>
</svg>
