<svg width="24" height="24" viewBox="0 0 24 24" fill="none" xmlns="http://www.w3.org/2000/svg">
<path d="M20.2416 6.23906H15.1216V4.31906C15.1209 3.97986 14.9859 3.6541 14.7459 3.4141C14.5065 3.17474 14.1808 3.0397 13.8416 3.03906H4.88156C4.54236 3.0397 4.2166 3.1741 3.9766 3.4141C3.7366 3.6541 3.6022 3.97986 3.60156 4.31906V19.6791C3.6022 20.0183 3.73724 20.344 3.9766 20.5834C4.2166 20.8234 4.54236 20.9584 4.88156 20.9591H20.2416C20.5808 20.9584 20.9059 20.8234 21.1459 20.5834C21.3859 20.3434 21.5209 20.0183 21.5216 19.6791V7.51906C21.5209 7.17986 21.3859 6.8541 21.1459 6.6141C20.9065 6.37474 20.5808 6.2397 20.2416 6.23906ZM10.6416 19.6791H8.08156V16.4791H10.6416V19.6791ZM13.8416 19.6791H11.9216V16.4791C11.9209 16.1399 11.7859 15.8141 11.5459 15.5747C11.3065 15.3347 10.9808 15.1997 10.6416 15.1991H8.08156C7.74236 15.1997 7.4166 15.3347 7.1766 15.5747C6.93724 15.8141 6.8022 16.1399 6.80156 16.4791V19.6791H4.88156L4.88092 4.31906H13.8416V19.6791ZM20.2416 19.6791H15.1216V7.51906H20.2416V19.6791ZM18.3216 11.9991C18.3216 12.1258 18.2838 12.2493 18.2134 12.3549C18.1436 12.4599 18.0432 12.5418 17.9267 12.5904C17.8096 12.6391 17.6809 12.6512 17.5568 12.6269C17.4326 12.6019 17.3187 12.5411 17.2291 12.4515C17.1395 12.3619 17.0787 12.248 17.0537 12.1239C17.0294 11.9997 17.0416 11.8711 17.0902 11.7539C17.1388 11.6375 17.2208 11.537 17.3257 11.4672C17.4313 11.3968 17.5548 11.3591 17.6816 11.3591C17.8512 11.3591 18.0144 11.4263 18.134 11.5466C18.2544 11.6663 18.3216 11.8295 18.3216 11.9991ZM17.0416 9.43906C17.0416 9.31234 17.0793 9.18882 17.1497 9.08322C17.2195 8.97826 17.32 8.89634 17.4364 8.8477C17.5536 8.79906 17.6822 8.7869 17.8064 8.81122C17.9305 8.83618 18.0444 8.89698 18.134 8.98658C18.2236 9.07618 18.2844 9.1901 18.3094 9.31426C18.3337 9.43842 18.3216 9.56706 18.2729 9.68418C18.2243 9.80066 18.1424 9.90114 18.0374 9.9709C17.9318 10.0413 17.8083 10.0791 17.6816 10.0791C17.512 10.0791 17.3488 10.0119 17.2291 9.89154C17.1088 9.77186 17.0416 9.60866 17.0416 9.43906ZM11.9216 11.9991C11.9216 12.1258 11.8838 12.2493 11.8134 12.3549C11.7436 12.4599 11.6432 12.5418 11.5267 12.5904C11.4096 12.6391 11.2809 12.6512 11.1568 12.6269C11.0326 12.6019 10.9187 12.5411 10.8291 12.4515C10.7395 12.3619 10.6787 12.248 10.6537 12.1239C10.6294 11.9997 10.6416 11.8711 10.6902 11.7539C10.7388 11.6375 10.8208 11.537 10.9257 11.4672C11.0313 11.3968 11.1548 11.3591 11.2816 11.3591C11.4512 11.3591 11.6144 11.4263 11.734 11.5466C11.8544 11.6663 11.9216 11.8295 11.9216 11.9991ZM11.9216 9.43906C11.9216 9.56578 11.8838 9.6893 11.8134 9.7949C11.7436 9.89986 11.6432 9.98178 11.5267 10.0304C11.4096 10.0791 11.2809 10.0912 11.1568 10.0669C11.0326 10.0419 10.9187 9.98114 10.8291 9.89154C10.7395 9.80194 10.6787 9.68802 10.6537 9.56386C10.6294 9.4397 10.6416 9.31106 10.6902 9.19394C10.7388 9.07746 10.8208 8.97698 10.9257 8.90722C11.0313 8.83682 11.1548 8.79906 11.2816 8.79906C11.4512 8.79906 11.6144 8.86626 11.734 8.98658C11.8544 9.10626 11.9216 9.26946 11.9216 9.43906ZM11.9216 6.87906C11.9216 7.00578 11.8838 7.1293 11.8134 7.2349C11.7436 7.33986 11.6432 7.42178 11.5267 7.47042C11.4096 7.51906 11.2809 7.53122 11.1568 7.5069C11.0326 7.48194 10.9187 7.42114 10.8291 7.33154C10.7395 7.24194 10.6787 7.12802 10.6537 7.00386C10.6294 6.8797 10.6416 6.75106 10.6902 6.63394C10.7388 6.51746 10.8208 6.41698 10.9257 6.34722C11.0313 6.27682 11.1548 6.23906 11.2816 6.23906C11.4512 6.23906 11.6144 6.30626 11.734 6.42658C11.8544 6.54626 11.9216 6.70946 11.9216 6.87906ZM8.08156 11.9991C8.08156 12.1258 8.0438 12.2493 7.9734 12.3549C7.90364 12.4599 7.80316 12.5418 7.68668 12.5904C7.56956 12.6391 7.44092 12.6512 7.31676 12.6269C7.1926 12.6019 7.07868 12.5411 6.98908 12.4515C6.89948 12.3619 6.83868 12.248 6.81372 12.1239C6.7894 11.9997 6.80156 11.8711 6.8502 11.7539C6.89884 11.6375 6.98076 11.537 7.08572 11.4672C7.19132 11.3968 7.31484 11.3591 7.44156 11.3591C7.61116 11.3591 7.77436 11.4263 7.89404 11.5466C8.01436 11.6663 8.08156 11.8295 8.08156 11.9991ZM8.08156 9.43906C8.08156 9.56578 8.0438 9.6893 7.9734 9.7949C7.90364 9.89986 7.80316 9.98178 7.68668 10.0304C7.56956 10.0791 7.44092 10.0912 7.31676 10.0669C7.1926 10.0419 7.07868 9.98114 6.98908 9.89154C6.89948 9.80194 6.83868 9.68802 6.81372 9.56386C6.7894 9.4397 6.80156 9.31106 6.8502 9.19394C6.89884 9.07746 6.98076 8.97698 7.08572 8.90722C7.19132 8.83682 7.31484 8.79906 7.44156 8.79906C7.61116 8.79906 7.77436 8.86626 7.89404 8.98658C8.01436 9.10626 8.08156 9.26946 8.08156 9.43906ZM8.08156 6.87906C8.08156 7.00578 8.0438 7.1293 7.9734 7.2349C7.90364 7.33986 7.80316 7.42178 7.68668 7.47042C7.56956 7.51906 7.44092 7.53122 7.31676 7.5069C7.1926 7.48194 7.07868 7.42114 6.98908 7.33154C6.89948 7.24194 6.83868 7.12802 6.81372 7.00386C6.7894 6.8797 6.80156 6.75106 6.8502 6.63394C6.89884 6.51746 6.98076 6.41698 7.08572 6.34722C7.19132 6.27682 7.31484 6.23906 7.44156 6.23906C7.61116 6.23906 7.77436 6.30626 7.89404 6.42658C8.01436 6.54626 8.08156 6.70946 8.08156 6.87906Z" fill="currentColor"/>
</svg>
