<svg width="16" height="16" viewBox="0 0 16 16" fill="none" xmlns="http://www.w3.org/2000/svg">
<path fill-rule="evenodd" clip-rule="evenodd" d="M6.12973 0.302948C6.19976 0.223499 6.29049 0.165075 6.3918 0.134199C6.49311 0.103322 6.601 0.101207 6.70344 0.12809C7.97087 0.458376 9.9183 1.31666 11.5594 2.84466C13.2132 4.38638 14.5663 6.62295 14.5663 9.67323C14.5663 10.8812 14.2954 12.3589 13.3572 13.5829C12.404 14.8287 10.8234 15.7315 8.37087 15.8835H8.36401C5.09544 16.0481 2.80059 14.3498 1.8783 12.0104C0.964013 9.69152 1.4223 6.80695 3.48287 4.61838C3.53738 4.56031 3.60342 4.51428 3.67677 4.48323C3.75011 4.45219 3.82913 4.43682 3.90876 4.43811C3.98839 4.43941 4.06688 4.45733 4.13917 4.49073C4.21147 4.52414 4.27599 4.57229 4.32859 4.63209L5.7743 6.27323C6.30344 5.32923 6.56059 4.50638 6.59944 3.68238C6.63944 2.84466 6.4543 1.96009 6.02801 0.893805C5.98872 0.79546 5.97753 0.688131 5.9957 0.583797C6.01386 0.479464 6.06066 0.38223 6.13087 0.302948H6.12973ZM6.07259 8.99438C6.07259 8.88181 6.09476 8.77035 6.13783 8.66636C6.18091 8.56237 6.24404 8.46788 6.32364 8.38828C6.40323 8.30869 6.49772 8.24555 6.60171 8.20248C6.70571 8.1594 6.81717 8.13723 6.92973 8.13723C7.04229 8.13723 7.15375 8.1594 7.25774 8.20248C7.36174 8.24555 7.45623 8.30869 7.53582 8.38828C7.61541 8.46788 7.67855 8.56237 7.72162 8.66636C7.7647 8.77035 7.78687 8.88181 7.78687 8.99438C7.78687 9.2217 7.69657 9.43972 7.53582 9.60047C7.37507 9.76121 7.15706 9.85152 6.92973 9.85152C6.7024 9.85152 6.48438 9.76121 6.32364 9.60047C6.16289 9.43972 6.07259 9.2217 6.07259 8.99438ZM10.6326 9.13838C10.6856 9.08525 10.7277 9.02219 10.7564 8.9528C10.7851 8.88341 10.7998 8.80905 10.7998 8.73397C10.7997 8.65889 10.7849 8.58455 10.7561 8.5152C10.7273 8.44586 10.6851 8.38286 10.632 8.3298C10.5789 8.27675 10.5158 8.23468 10.4464 8.206C10.3771 8.17731 10.3027 8.16258 10.2276 8.16263C10.1525 8.16268 10.0782 8.17752 10.0088 8.20631C9.9395 8.23509 9.8765 8.27725 9.82344 8.33038L6.07144 12.0824C6.01687 12.1351 5.97333 12.1981 5.94338 12.2679C5.91344 12.3376 5.89767 12.4126 5.89701 12.4884C5.89635 12.5643 5.91081 12.6396 5.93954 12.7098C5.96828 12.78 6.01071 12.8438 6.06436 12.8975C6.11801 12.9511 6.18181 12.9935 6.25204 13.0223C6.32227 13.051 6.39751 13.0655 6.47339 13.0648C6.54926 13.0641 6.62424 13.0484 6.69396 13.0184C6.76368 12.9885 6.82673 12.945 6.87944 12.8904L10.6314 9.13838H10.6326ZM9.11259 12.2275C9.11259 12.0002 9.20289 11.7822 9.36364 11.6214C9.52438 11.4607 9.7424 11.3704 9.96973 11.3704C10.1971 11.3704 10.4151 11.4607 10.5758 11.6214C10.7366 11.7822 10.8269 12.0002 10.8269 12.2275C10.8269 12.4548 10.7366 12.6729 10.5758 12.8336C10.4151 12.9944 10.1971 13.0847 9.96973 13.0847C9.7424 13.0847 9.52438 12.9944 9.36364 12.8336C9.20289 12.6729 9.11259 12.4548 9.11259 12.2275Z" fill="currentColor"/>
</svg>
