<svg width="16" height="16" viewBox="0 0 16 16" fill="none" xmlns="http://www.w3.org/2000/svg">
<path d="M12.0013 7.33203H4.0013V3.9987H12.0013M11.0013 11.332C10.7361 11.332 10.4817 11.2267 10.2942 11.0391C10.1067 10.8516 10.0013 10.5972 10.0013 10.332C10.0013 10.0668 10.1067 9.81246 10.2942 9.62492C10.4817 9.43739 10.7361 9.33203 11.0013 9.33203C11.2665 9.33203 11.5209 9.43739 11.7084 9.62492C11.8959 9.81246 12.0013 10.0668 12.0013 10.332C12.0013 10.5972 11.8959 10.8516 11.7084 11.0391C11.5209 11.2267 11.2665 11.332 11.0013 11.332ZM5.0013 11.332C4.73609 11.332 4.48173 11.2267 4.2942 11.0391C4.10666 10.8516 4.0013 10.5972 4.0013 10.332C4.0013 10.0668 4.10666 9.81246 4.2942 9.62492C4.48173 9.43739 4.73609 9.33203 5.0013 9.33203C5.26652 9.33203 5.52087 9.43739 5.70841 9.62492C5.89595 9.81246 6.0013 10.0668 6.0013 10.332C6.0013 10.5972 5.89595 10.8516 5.70841 11.0391C5.52087 11.2267 5.26652 11.332 5.0013 11.332ZM2.66797 10.6654C2.66797 11.252 2.92797 11.7787 3.33464 12.1454V13.332C3.33464 13.5088 3.40487 13.6784 3.5299 13.8034C3.65492 13.9285 3.82449 13.9987 4.0013 13.9987H4.66797C4.84478 13.9987 5.01435 13.9285 5.13937 13.8034C5.2644 13.6784 5.33464 13.5088 5.33464 13.332V12.6654H10.668V13.332C10.668 13.5088 10.7382 13.6784 10.8632 13.8034C10.9883 13.9285 11.1578 13.9987 11.3346 13.9987H12.0013C12.1781 13.9987 12.3477 13.9285 12.4727 13.8034C12.5977 13.6784 12.668 13.5088 12.668 13.332V12.1454C13.0746 11.7787 13.3346 11.252 13.3346 10.6654V3.9987C13.3346 1.66536 10.948 1.33203 8.0013 1.33203C5.05464 1.33203 2.66797 1.66536 2.66797 3.9987V10.6654Z" fill="currentColor"/>
</svg>
