<svg width="16" height="16" viewBox="0 0 16 16" fill="none" xmlns="http://www.w3.org/2000/svg">
<path d="M5.87456 3.25C5.87456 3.15054 5.83505 3.05516 5.76473 2.98483C5.6944 2.91451 5.59902 2.875 5.49956 2.875C5.40011 2.875 5.30472 2.91451 5.2344 2.98483C5.16407 3.05516 5.12456 3.15054 5.12456 3.25V4.04C4.40456 4.0975 3.93256 4.2385 3.58556 4.586C3.23806 4.933 3.09706 5.4055 3.03906 6.125H12.9601C12.9021 5.405 12.7611 4.933 12.4136 4.586C12.0666 4.2385 11.5941 4.0975 10.8746 4.0395V3.25C10.8746 3.15054 10.8351 3.05516 10.7647 2.98483C10.6944 2.91451 10.599 2.875 10.4996 2.875C10.4001 2.875 10.3047 2.91451 10.2344 2.98483C10.1641 3.05516 10.1246 3.15054 10.1246 3.25V4.0065C9.79206 4 9.41906 4 8.99956 4H6.99956C6.58006 4 6.20706 4 5.87456 4.0065V3.25Z" fill="currentColor"/>
<path fill-rule="evenodd" clip-rule="evenodd" d="M3 8C3 7.5805 3 7.2075 3.0065 6.875H12.9935C13 7.2075 13 7.5805 13 8V9C13 10.8855 13 11.8285 12.414 12.414C11.8285 13 10.8855 13 9 13H7C5.1145 13 4.1715 13 3.586 12.414C3 11.8285 3 10.8855 3 9V8ZM10.5 9C10.6326 9 10.7598 8.94732 10.8536 8.85355C10.9473 8.75979 11 8.63261 11 8.5C11 8.36739 10.9473 8.24021 10.8536 8.14645C10.7598 8.05268 10.6326 8 10.5 8C10.3674 8 10.2402 8.05268 10.1464 8.14645C10.0527 8.24021 10 8.36739 10 8.5C10 8.63261 10.0527 8.75979 10.1464 8.85355C10.2402 8.94732 10.3674 9 10.5 9ZM10.5 11C10.6326 11 10.7598 10.9473 10.8536 10.8536C10.9473 10.7598 11 10.6326 11 10.5C11 10.3674 10.9473 10.2402 10.8536 10.1464C10.7598 10.0527 10.6326 10 10.5 10C10.3674 10 10.2402 10.0527 10.1464 10.1464C10.0527 10.2402 10 10.3674 10 10.5C10 10.6326 10.0527 10.7598 10.1464 10.8536C10.2402 10.9473 10.3674 11 10.5 11ZM8.5 8.5C8.5 8.63261 8.44732 8.75979 8.35355 8.85355C8.25979 8.94732 8.13261 9 8 9C7.86739 9 7.74021 8.94732 7.64645 8.85355C7.55268 8.75979 7.5 8.63261 7.5 8.5C7.5 8.36739 7.55268 8.24021 7.64645 8.14645C7.74021 8.05268 7.86739 8 8 8C8.13261 8 8.25979 8.05268 8.35355 8.14645C8.44732 8.24021 8.5 8.36739 8.5 8.5ZM8.5 10.5C8.5 10.6326 8.44732 10.7598 8.35355 10.8536C8.25979 10.9473 8.13261 11 8 11C7.86739 11 7.74021 10.9473 7.64645 10.8536C7.55268 10.7598 7.5 10.6326 7.5 10.5C7.5 10.3674 7.55268 10.2402 7.64645 10.1464C7.74021 10.0527 7.86739 10 8 10C8.13261 10 8.25979 10.0527 8.35355 10.1464C8.44732 10.2402 8.5 10.3674 8.5 10.5ZM5.5 9C5.63261 9 5.75979 8.94732 5.85355 8.85355C5.94732 8.75979 6 8.63261 6 8.5C6 8.36739 5.94732 8.24021 5.85355 8.14645C5.75979 8.05268 5.63261 8 5.5 8C5.36739 8 5.24021 8.05268 5.14645 8.14645C5.05268 8.24021 5 8.36739 5 8.5C5 8.63261 5.05268 8.75979 5.14645 8.85355C5.24021 8.94732 5.36739 9 5.5 9ZM5.5 11C5.63261 11 5.75979 10.9473 5.85355 10.8536C5.94732 10.7598 6 10.6326 6 10.5C6 10.3674 5.94732 10.2402 5.85355 10.1464C5.75979 10.0527 5.63261 10 5.5 10C5.36739 10 5.24021 10.0527 5.14645 10.1464C5.05268 10.2402 5 10.3674 5 10.5C5 10.6326 5.05268 10.7598 5.14645 10.8536C5.24021 10.9473 5.36739 11 5.5 11Z" fill="currentColor"/>
</svg>
