<svg width="33" height="33" viewBox="0 0 33 33" fill="none" xmlns="http://www.w3.org/2000/svg">
<path d="M23.1667 14.5V9.83333C23.1667 9.47971 23.0262 9.14057 22.7761 8.89052C22.5261 8.64048 22.187 8.5 21.8333 8.5H5.83333C5.47971 8.5 5.14057 8.64048 4.89052 8.89052C4.64048 9.14057 4.5 9.47971 4.5 9.83333V23.1667C4.5 23.5203 4.64048 23.8594 4.89052 24.1095C5.14057 24.3595 5.47971 24.5 5.83333 24.5H21.8333C22.187 24.5 22.5261 24.3595 22.7761 24.1095C23.0262 23.8594 23.1667 23.5203 23.1667 23.1667V18.5L28.5 23.8333V9.16667L23.1667 14.5Z" fill="currentColor"/>
</svg>
