<svg width="22" height="22" viewBox="0 0 22 22" fill="none" xmlns="http://www.w3.org/2000/svg">

<path fill-rule="evenodd" clip-rule="evenodd" d="M8.66508 4.26667e-06C7.09804 0.0002482 5.56039 0.425369 4.21578 1.23012C2.87117 2.03487 1.76992 3.18914 1.02923 4.57008C0.288539 5.95101 -0.0638705 7.50694 0.00950857 9.07225C0.0828876 10.6376 0.579309 12.1537 1.44594 13.4593L0.287796 16.5581C0.258663 16.6362 0.250742 16.7206 0.26484 16.8027C0.278938 16.8849 0.314551 16.9618 0.368052 17.0257C0.421553 17.0895 0.49103 17.1381 0.569406 17.1664C0.647781 17.1947 0.732256 17.2017 0.814224 17.1867L4.87322 16.456C5.27551 16.6524 5.69194 16.8174 6.11779 16.9494C5.77489 15.4566 5.81711 13.9011 6.2405 12.429C6.6639 10.957 7.45456 9.6167 8.5382 8.53415C9.62185 7.45161 10.9629 6.66231 12.4354 6.24041C13.9079 5.81851 15.4634 5.77787 16.9559 6.12229C16.4117 4.34852 15.3125 2.79632 13.8199 1.69417C12.3274 0.592026 10.5204 -0.00183656 8.66508 4.26667e-06ZM19.9275 9.92829C19.2233 9.2234 18.378 8.67529 17.4471 8.3199C16.5162 7.96452 15.5207 7.80987 14.5259 7.86611C13.5311 7.92234 12.5594 8.18818 11.6744 8.6462C10.7895 9.10423 10.0114 9.74409 9.39108 10.5239C8.39129 11.7791 7.84816 13.337 7.85091 14.9417C7.85365 16.5464 8.40212 18.1025 9.40621 19.3542C10.4103 20.606 11.8103 21.479 13.3762 21.8299C14.942 22.1808 16.5807 21.9886 18.0229 21.285L21.1846 21.8539C21.2665 21.8685 21.3508 21.8613 21.4289 21.8328C21.5071 21.8044 21.5763 21.7558 21.6296 21.692C21.6829 21.6281 21.7183 21.5514 21.7324 21.4694C21.7464 21.3874 21.7385 21.3032 21.7095 21.2253L20.8169 18.8383C21.7196 17.4786 22.1243 15.8486 21.9621 14.2246C21.8 12.6006 21.0812 11.0827 19.9275 9.92829Z" fill="currentColor"/>

</svg>
