<svg width="20" height="20" viewBox="0 0 20 20" fill="none" xmlns="http://www.w3.org/2000/svg">
<path fill-rule="evenodd" clip-rule="evenodd" d="M8.82116 1.75289C9.11614 1.45829 9.51084 1.28494 9.92736 1.26704C10.3439 1.24915 10.752 1.38801 11.0712 1.65622L11.1778 1.75372L12.7612 3.33622H14.9995C15.4198 3.3363 15.8246 3.4952 16.1328 3.78109C16.4409 4.06698 16.6296 4.45874 16.6612 4.87789L16.6662 5.00289V7.24122L18.2495 8.82456C18.5443 9.11959 18.7178 9.51445 18.7357 9.93117C18.7536 10.3479 18.6146 10.7562 18.3462 11.0754L18.2487 11.1812L16.6653 12.7646V15.0029C16.6655 15.4234 16.5066 15.8284 16.2207 16.1367C15.9348 16.445 15.543 16.6339 15.1237 16.6654L14.9995 16.6696H12.762L11.1787 18.2529C10.8836 18.5477 10.4888 18.7212 10.072 18.7391C9.65533 18.757 9.24705 18.618 8.92782 18.3496L8.82199 18.2529L7.23865 16.6696H4.99949C4.57901 16.6697 4.17402 16.5109 3.8657 16.225C3.55738 15.9391 3.36852 15.5472 3.33699 15.1279L3.33282 15.0029V12.7646L1.74949 11.1812C1.45465 10.8862 1.28115 10.4913 1.26325 10.0746C1.24536 9.6579 1.38436 9.24962 1.65282 8.93039L1.74949 8.82456L3.33282 7.24122V5.00289C3.3329 4.58255 3.4918 4.17777 3.77768 3.86963C4.06357 3.56149 4.45533 3.37275 4.87449 3.34122L4.99949 3.33622H7.23782L8.82116 1.75289ZM12.5653 7.48872L9.02865 11.0254L7.55532 9.55206C7.39895 9.3958 7.18692 9.30806 6.96586 9.30814C6.7448 9.30822 6.53283 9.39611 6.37657 9.55247C6.22031 9.70884 6.13257 9.92088 6.13265 10.1419C6.13273 10.363 6.22062 10.575 6.37699 10.7312L8.38032 12.7346C8.46545 12.8197 8.56652 12.8873 8.67776 12.9334C8.78901 12.9795 8.90824 13.0032 9.02865 13.0032C9.14907 13.0032 9.2683 12.9795 9.37955 12.9334C9.49079 12.8873 9.59186 12.8197 9.67699 12.7346L13.7437 8.66706C13.8955 8.50989 13.9794 8.29939 13.9776 8.08089C13.9757 7.86239 13.888 7.65338 13.7335 7.49887C13.579 7.34437 13.37 7.25673 13.1515 7.25483C12.933 7.25293 12.7225 7.33693 12.5653 7.48872Z" fill="currentColor"/>
</svg>
