<svg width="20" height="20" viewBox="0 0 20 20" fill="none" xmlns="http://www.w3.org/2000/svg">
<g clip-path="url(#clip0_2501_26420)">
<path d="M9.99995 0.300034C6.07682 0.300142 2.53994 2.66357 1.03862 6.2881C-0.462732 9.91272 0.367192 14.0849 3.14138 16.859C6.92934 20.647 13.0711 20.647 16.8592 16.859L16.7178 16.7176L16.8592 16.859C20.6471 13.071 20.6472 6.92952 16.8596 3.14152C15.9608 2.23788 14.8917 1.52146 13.7142 1.03372C12.5368 0.54602 11.2744 0.296647 9.99995 0.300034ZM9.99995 0.300034C9.99986 0.300034 9.99977 0.300035 9.99968 0.300035L10.0002 0.500034V0.300034C10.0001 0.300034 10 0.300034 9.99995 0.300034ZM10.0002 18.4284C5.35286 18.4284 1.57183 14.6473 1.57183 9.99998C1.57183 5.35279 5.35286 1.57159 10.0002 1.57159C14.6474 1.57159 18.4286 5.35279 18.4286 9.99998C18.4286 14.6473 14.6474 18.4284 10.0002 18.4284Z" fill="black" stroke="black" stroke-width="0.4"/>
<path d="M9.4783 10.4496L9.47844 10.4498L11.4258 12.3973L11.4258 12.3974C11.6742 12.6457 12.0767 12.6457 12.3251 12.3974L12.3251 12.3973C12.5731 12.149 12.5733 11.7465 12.3251 11.4983C12.3251 11.4983 12.3251 11.4983 12.3251 11.4983L10.5637 9.73684V6.01186C10.5637 5.66073 10.2792 5.37608 9.92796 5.37608C9.57677 5.37608 9.29219 5.66073 9.29219 6.01186V10.0001C9.29219 10.1688 9.35931 10.3304 9.4783 10.4496Z" fill="black" stroke="black" stroke-width="0.4"/>
</g>
<defs>
</defs>
</svg>
