<svg width="18" height="20" viewBox="0 0 18 20" fill="none" xmlns="http://www.w3.org/2000/svg">
<path d="M15.6606 16.7778H16.9333V18H2.93335V16.7778H4.20608V7.61111C4.20608 7.44903 4.27312 7.2936 4.39246 7.17899C4.5118 7.06438 4.67367 7 4.84244 7H11.2061C11.3749 7 11.5367 7.06438 11.6561 7.17899C11.7754 7.2936 11.8424 7.44903 11.8424 7.61111V16.7778H13.1152V10.6667H15.0243C15.193 10.6667 15.3549 10.7311 15.4742 10.8457C15.5936 10.9603 15.6606 11.1157 15.6606 11.2778V16.7778ZM6.75153 11.8889V13.1111H9.29699V11.8889H6.75153ZM6.75153 9.44444V10.6667H9.29699V9.44444H6.75153Z" fill="white"/>
</svg>
