<svg width="22" height="22" viewBox="0 0 22 22" fill="none" xmlns="http://www.w3.org/2000/svg">
<path fill-rule="evenodd" clip-rule="evenodd" d="M4.86516 0.9057L14.1523 0.900985V4.51998L4.86516 4.5247C4.44569 4.52518 4.03709 4.39136 3.69916 4.14284L2.19373 3.03184C2.14434 2.99531 2.1042 2.94771 2.07654 2.89285C2.04889 2.838 2.03448 2.77742 2.03448 2.71599C2.03448 2.65455 2.04889 2.59397 2.07654 2.53912C2.1042 2.48426 2.14434 2.43666 2.19373 2.40013L3.70073 1.28756C4.0376 1.03911 4.44502 0.904776 4.86359 0.904128L4.86516 0.9057ZM17.9756 4.51684L16.1166 4.51841V0.899414H17.9756H17.9819C18.9782 0.915128 19.7403 1.79984 19.7403 2.70656C19.7403 3.61484 18.9782 4.50113 17.9819 4.51684H17.9756ZM8.65545 8.14684C9.18188 8.35741 9.62973 8.58841 10.0179 8.81784V21.999C9.41906 21.549 8.76398 21.1792 8.06931 20.899C6.91431 20.437 5.24859 20.0551 2.70759 20.0551C2.60441 20.0551 2.50224 20.0348 2.40691 19.9953C2.31158 19.9558 2.22497 19.898 2.15201 19.825C2.00466 19.6776 1.92188 19.4778 1.92188 19.2694V7.97398C1.92188 7.7656 2.00466 7.56575 2.15201 7.4184C2.29936 7.27105 2.49921 7.18827 2.70759 7.18827C5.41045 7.18827 7.28045 7.59527 8.65545 8.14684ZM13.9292 20.899C13.0806 21.24 12.485 21.6313 11.9806 21.9974V8.81627C12.3687 8.58684 12.8182 8.35584 13.3446 8.14527C14.7196 7.5937 16.5896 7.1867 19.2925 7.1867C19.5008 7.1867 19.7007 7.26948 19.848 7.41683C19.9954 7.56418 20.0782 7.76403 20.0782 7.97241V19.2678C20.0782 19.4762 19.9954 19.6761 19.848 19.8234C19.7007 19.9708 19.5008 20.0536 19.2925 20.0536C16.7515 20.0536 15.0857 20.4354 13.9292 20.899Z" fill="currentColor"/>
</svg>
