<svg width="18" height="18" viewBox="0 0 18 18" fill="none" xmlns="http://www.w3.org/2000/svg">
<path d="M13.1369 6.34835L10.4853 9L13.1369 11.6516C13.2776 11.7923 13.3566 11.9831 13.3566 12.182C13.3566 12.3809 13.2776 12.5717 13.1369 12.7123C12.9963 12.853 12.8055 12.932 12.6066 12.932C12.4077 12.932 12.2169 12.853 12.0763 12.7123L9.42462 10.0607L6.77297 12.7123C6.63232 12.853 6.44155 12.932 6.24264 12.932C6.04373 12.932 5.85296 12.853 5.71231 12.7123C5.57166 12.5717 5.49264 12.3809 5.49264 12.182C5.49264 11.9831 5.57166 11.7923 5.71231 11.6517L8.36396 9L5.71231 6.34835C5.57166 6.2077 5.49264 6.01693 5.49264 5.81802C5.49264 5.61911 5.57166 5.42834 5.71231 5.28769C5.85296 5.14704 6.04373 5.06802 6.24264 5.06802C6.44155 5.06802 6.63232 5.14704 6.77297 5.28769L9.42462 7.93934L12.0763 5.28769C12.2169 5.14704 12.4077 5.06802 12.6066 5.06802C12.8055 5.06802 12.9963 5.14704 13.1369 5.28769C13.2776 5.42834 13.3566 5.61911 13.3566 5.81802C13.3566 6.01693 13.2776 6.2077 13.1369 6.34835Z" fill="currentColor"/>
</svg>
