<svg width="88" height="28" viewBox="0 0 88 28" fill="none" xmlns="http://www.w3.org/2000/svg">

<path fill-rule="evenodd" clip-rule="evenodd" d="M47.3162 9.33091C47.5278 9.55234 49.4327 14.8277 49.6319 15.4789C49.8303 16.1767 50.1105 16.8461 50.4661 17.4718C51.126 17.6281 51.1883 16.9378 51.3875 16.3907C52.4707 13.4339 54.1141 9.1225 54.9358 6.21783C55.5086 4.81108 55.5584 4.43334 54.525 4.43334C53.4916 4.43334 53.6036 5.13671 53.1928 6.04849C52.8317 7.78088 51.4373 11.441 50.9268 13.1213C50.9268 13.3428 50.9268 13.3428 50.6653 13.3428C49.8062 10.8419 48.8102 7.78088 47.8391 5.30604C47.5776 4.8241 47.1169 4.7199 46.8057 5.80101C46.2828 7.52037 45.5606 9.56537 45.0004 11.2326C45.0004 11.2326 44.328 13.3428 44.2782 13.447C43.9222 12.848 43.6615 12.1926 43.5063 11.5062C42.7344 9.51327 42.0621 7.36407 41.4022 5.37117C41.2403 4.99343 41.2403 4.772 40.8793 4.55057C40.5173 4.41026 40.126 4.37427 39.7463 4.44636C38.7253 4.61569 39.3852 5.47537 39.5969 6.11362C40.8419 9.61747 42.2239 13.8247 43.6059 17.1592C43.6383 17.2418 43.6909 17.3141 43.7584 17.3687C43.8259 17.4233 43.906 17.4583 43.9906 17.4701C44.0752 17.482 44.1613 17.4704 44.2402 17.4364C44.3191 17.4024 44.388 17.3472 44.4401 17.2764C44.6393 16.8727 47.1667 9.33091 47.3162 9.33091Z" fill="currentColor"/>
<path fill-rule="evenodd" clip-rule="evenodd" d="M0.202962 4.65291C0.151496 4.8699 0.168978 5.09852 0.252764 5.30419C0.464422 6.21597 -0.158102 16.6103 0.00375449 17.0271C0.507718 17.2642 1.07275 17.3192 1.60987 17.1834C1.85888 16.9099 1.75927 16.6494 1.75927 16.2195C1.75927 14.3829 1.90868 12.6115 1.90868 10.7228C1.97093 10.0194 2.02073 9.53746 2.02073 9.10762C2.02073 8.67778 2.02073 8.72988 2.12034 8.62568C2.21994 8.52147 3.85095 11.4913 4.01281 11.8169C4.32407 12.4552 4.93414 13.4321 5.34501 14.1875C5.96754 15.3729 6.2788 14.5653 6.4282 14.2918C6.78927 13.8098 9.57817 8.6908 9.77738 8.5866C9.96414 8.79501 9.96414 13.914 9.96414 14.2918C9.96414 17.0922 9.65288 17.3658 11.3461 17.2485C11.8691 17.2485 11.9189 16.8187 11.8691 16.3368C11.8691 15.425 11.8691 14.396 11.8691 13.4842C11.7321 11.1656 11.6325 8.52147 11.6325 6.21597C11.6325 5.94243 11.7321 4.91342 11.7321 4.75712C11.5797 4.57742 11.3732 4.45753 11.1468 4.41727C10.9204 4.377 10.6877 4.41878 10.4871 4.53568C10.126 4.75712 10.0264 5.23906 9.76493 5.5647C8.71909 7.50549 7.31219 9.70679 6.3286 11.5434C5.96754 12.1947 5.96754 11.9732 5.65627 11.5434C4.98395 10.5144 4.11241 8.74291 3.50234 7.7139L2.25729 5.5647C2.08423 5.19121 1.86212 4.84485 1.59742 4.53568C1.2488 4.27517 0.564026 4.48358 0.202962 4.65291Z" fill="currentColor"/>
<path fill-rule="evenodd" clip-rule="evenodd" d="M65.9022 10.6843C66.3429 10.3082 66.8656 10.0518 67.4239 9.93822C67.9822 9.82459 68.5587 9.85717 69.102 10.0331C70.7455 10.7885 70.9571 13.3285 70.235 14.5659C69.9274 15.0482 69.4844 15.4187 68.967 15.6263C68.4496 15.834 67.8834 15.8685 67.3465 15.7252C66.8263 15.6178 66.334 15.3958 65.9022 15.0739V10.6843ZM65.9022 8.84773C65.8246 7.42912 65.8246 6.00702 65.9022 4.58841C65.9022 4.00226 65.703 3.89806 65.1801 4.10647C63.935 4.65354 63.935 4.4321 64.1093 5.61742C64.2089 6.21659 64.1093 13.1592 64.1093 14.1361C64.1093 16.0638 63.8479 16.5067 66.5247 17.3143C67.287 17.4815 68.0736 17.4858 68.8375 17.3269C69.6013 17.168 70.3265 16.8491 70.9696 16.3895C73.5966 14.1361 72.8745 7.77965 68.0811 8.26159C67.6632 8.28524 67.2473 8.33746 66.836 8.41789C66.6741 8.47 66.0641 8.84773 65.9894 8.84773H65.9022Z" fill="currentColor"/>
<path fill-rule="evenodd" clip-rule="evenodd" d="M29.5957 17.1454C29.7904 16.4662 29.8455 15.7515 29.7575 15.0483C29.7066 14.3112 29.7066 13.5712 29.7575 12.834C29.9069 12.834 30.0688 13.1076 30.38 13.4332C30.6913 13.7588 33.2561 16.5593 33.667 16.8719C33.8103 17.0115 33.9831 17.1137 34.1713 17.1703C34.3595 17.2269 34.5579 17.2362 34.7502 17.1975C35.1112 17.1975 35.684 17.1975 35.8832 16.937C35.8832 16.5593 35.161 15.9601 34.8498 15.6345C34.5385 15.3089 34.1401 14.892 33.779 14.4492C32.9871 13.72 32.2465 12.9321 31.5628 12.0916C31.5628 11.9743 34.3891 9.48648 34.912 9.01756C35.1112 8.79613 35.3229 8.74402 35.2731 8.41839C34.6323 8.21158 33.9467 8.21158 33.3059 8.41839C33.0569 8.53562 31.3512 10.1508 30.8905 10.5806C30.7411 10.7369 29.8571 11.7138 29.7575 11.6617C29.6081 11.1668 29.7575 4.4326 29.6579 4.05486C29.5583 3.67712 27.8028 4.27629 27.8526 4.92757C27.9502 5.38516 28.0003 5.85244 28.002 6.32129V15.6345C28.002 15.9601 27.9024 16.937 28.1141 17.0933C28.5985 17.2229 29.104 17.2406 29.5957 17.1454Z" fill="currentColor"/>
<path fill-rule="evenodd" clip-rule="evenodd" d="M16.186 12.7307C16.7587 12.5744 18.6761 13.0564 18.7632 13.5904C18.813 14.1667 18.813 14.7465 18.7632 15.3228C18.4021 15.8047 15.9245 16.7686 15.1028 15.0493C14.992 14.805 14.9346 14.5381 14.9346 14.2677C14.9346 13.9974 14.992 13.7304 15.1028 13.4862C15.2223 13.2876 15.3806 13.1177 15.5673 12.9875C15.7539 12.8573 15.9648 12.7698 16.186 12.7307ZM18.813 12.0794C18.3292 11.7441 17.7881 11.5097 17.2193 11.3891C16.5106 11.307 15.7935 11.36 15.1028 11.5454C14.5212 11.7197 14.0084 12.0846 13.6398 12.5864C13.2713 13.0883 13.0663 13.7006 13.0552 14.3334C13.044 14.9662 13.2272 15.586 13.5779 16.1017C13.9285 16.6175 14.4281 17.0019 15.0032 17.1985C15.988 17.5498 17.0563 17.5498 18.0411 17.1985C18.2527 17.0943 18.6636 16.8207 18.813 16.7686C18.9624 16.7165 19.0247 17.1464 19.2239 17.2506C19.4231 17.3548 20.3569 17.2506 20.6183 16.99C20.8798 16.7295 20.9296 16.7686 20.7677 16.3909C20.5268 15.8925 20.4398 15.3281 20.5187 14.7757V10.8941C20.5839 10.3445 20.4555 9.78891 20.1577 9.33108C19.1741 7.28608 13.2476 8.09366 13.7208 9.82604C14.1939 11.5584 14.9658 9.22687 17.5804 9.55251C18.9873 9.70882 18.8379 11.1156 18.8379 12.0794H18.813Z" fill="currentColor"/>
<path fill-rule="evenodd" clip-rule="evenodd" d="M79.7601 11.8193H75.4896C75.5469 11.2845 75.7802 10.7871 76.1495 10.4125C76.5527 10.0427 77.0592 9.81881 77.5938 9.7743C77.8722 9.75024 78.1524 9.78513 78.4177 9.87688C78.6829 9.96864 78.9278 10.1154 79.1376 10.3083C79.3489 10.4902 79.5156 10.7221 79.6238 10.9849C79.7321 11.2477 79.7788 11.5338 79.7601 11.8193ZM75.3776 13.213C75.6888 13.0567 80.3578 13.213 81.2044 13.213C82.051 13.213 81.6651 10.3083 80.1212 9.12303C79.4905 8.63109 78.7396 8.3358 77.9553 8.27125C77.171 8.20671 76.3853 8.37554 75.6888 8.75826C74.9923 9.14097 74.4135 9.72196 74.0191 10.4342C73.6248 11.1463 73.431 11.9607 73.4602 12.7832C73.4306 13.582 73.6083 14.3743 73.9744 15.0761C74.3405 15.7778 74.8813 16.3628 75.5394 16.769C76.9214 17.7459 80.6317 17.6938 81.0923 16.1828C81.6651 14.242 80.3204 15.3231 79.8473 15.5316C79.4494 15.7022 79.0301 15.8119 78.6022 15.8572C75.8507 16.1828 75.1784 13.6429 75.3776 13.213Z" fill="currentColor"/>
<path fill-rule="evenodd" clip-rule="evenodd" d="M56.6887 11.8181C56.7324 11.2618 56.9742 10.7429 57.3661 10.3642C57.7581 9.98544 58.2717 9.7745 58.8053 9.77311C59.876 9.65588 61.1211 10.6328 60.9094 11.8181H56.6887ZM56.4771 13.1207C56.7385 13.1207 61.5818 13.1207 62.2541 13.1207C62.9264 13.1207 62.8144 12.6908 62.7646 12.1568C62.7282 11.4335 62.5129 10.7326 62.1397 10.1226C61.7665 9.51259 61.2483 9.01446 60.6358 8.67698C60.0232 8.33951 59.3374 8.17427 58.6455 8.19746C57.9536 8.22064 57.2793 8.43145 56.6887 8.80923C56.0246 9.2197 55.4815 9.81375 55.1191 10.5261C54.7566 11.2385 54.5889 12.0415 54.6344 12.8471C54.5815 13.6423 54.7527 14.4363 55.1267 15.1308C55.5007 15.8254 56.061 16.3899 56.7385 16.7548C58.494 17.888 61.9428 17.406 62.2541 16.1165C62.2541 15.7388 62.5031 14.814 61.9428 15.0354C61.266 15.4357 60.5293 15.7131 59.764 15.856C59.356 15.913 58.9412 15.8848 58.5437 15.773C58.1462 15.6613 57.7739 15.4681 57.4482 15.2047C57 14.827 56.2778 13.6938 56.4771 13.1207Z" fill="currentColor"/>
<path fill-rule="evenodd" clip-rule="evenodd" d="M84.4407 17.1972C84.752 16.8715 84.7022 16.7152 84.7022 16.2333V14.9308C84.7022 13.2114 84.3909 10.3588 86.2959 9.92898C86.7067 9.82477 86.8063 10.1895 87.3292 10.0853C87.6376 9.79584 87.8692 9.42791 88.0016 9.0172C88.0016 8.19659 86.7565 8.04029 85.6235 8.57433C85.2625 8.74366 84.9637 9.32981 84.7022 9.38191C84.7022 8.89997 84.8018 8.69156 84.4905 8.26172C84.0915 8.30175 83.7052 8.43054 83.3575 8.63946C82.8471 8.89997 82.7475 8.89997 82.8471 9.55124C82.9467 10.2025 82.8471 14.6702 82.8471 15.7383C82.8969 17.3665 82.8969 17.3144 84.4407 17.1972Z" fill="currentColor"/>
<path fill-rule="evenodd" clip-rule="evenodd" d="M23.7348 17.1451V17.0409C23.8793 15.7179 23.9168 14.3846 23.8468 13.0551C23.8468 12.026 24.0958 10.3588 25.179 10.0332C26.0506 9.70752 26.1004 10.5672 26.6731 10.0332C28.0053 8.5743 26.2124 7.98816 25.1292 8.4701C24.046 8.95204 24.1954 9.32978 23.8842 9.43398C23.8592 9.22204 23.8592 9.00768 23.8842 8.79574C23.8842 8.5222 23.7721 8.5222 23.6725 8.3659C23.2733 8.3625 22.8811 8.47524 22.5395 8.69153C22.0291 8.89994 21.8672 8.95204 22.0291 9.60331C22.1386 10.6019 22.1719 11.6081 22.1287 12.6122V15.582C22.2407 17.1972 22.0291 17.3144 23.7348 17.1451Z" fill="currentColor"/>
<path fill-rule="evenodd" clip-rule="evenodd" d="M46.9551 18.8795C44.8998 19.1448 42.8788 19.6472 40.9291 20.3774C40.319 20.651 39.6841 20.8073 39.074 21.0808C37.8289 21.5628 36.6586 21.9926 35.426 22.4876C35.0151 22.6439 32.0768 23.5557 31.5663 23.6729C29.0762 24.3111 25.3411 25.0666 22.9631 23.9334C21.8301 23.3472 21.718 25.1708 24.2953 25.8221C25.8024 26.0982 27.349 26.0271 28.8272 25.6137C30.0723 25.3401 31.5663 24.8582 32.7491 24.4805C33.9319 24.1027 35.3264 23.6729 36.6088 23.2951C36.92 23.1779 37.1691 23.0737 37.5301 22.9695L39.435 22.3703C39.7961 22.2661 40.0576 22.1098 40.3688 21.9926L42.336 21.5107C42.6971 21.4065 42.9585 21.3023 43.2698 21.185C45.8766 20.6032 48.5353 20.315 51.2007 20.3253C51.8606 20.3253 52.8442 20.4947 53.5165 20.5989C54.7616 20.7552 54.4877 20.0648 53.6659 19.622C51.5294 18.7655 49.2157 18.5095 46.9551 18.8795Z" fill="currentColor"/>

</svg>
