<svg width="32" height="32" viewBox="0 0 32 32" fill="none" xmlns="http://www.w3.org/2000/svg">
<path fill-rule="evenodd" clip-rule="evenodd" d="M18.9974 3.33333C18.9974 3.24493 18.9623 3.16014 18.8998 3.09763C18.8373 3.03512 18.7525 3 18.6641 3H9.33073C8.35827 3 7.42564 3.38631 6.738 4.07394C6.05037 4.76158 5.66406 5.69421 5.66406 6.66667V25.3333C5.66406 26.3058 6.05037 27.2384 6.738 27.9261C7.42564 28.6137 8.35827 29 9.33073 29H22.6641C23.6365 29 24.5692 28.6137 25.2568 27.9261C25.9444 27.2384 26.3307 26.3058 26.3307 25.3333V12.196C26.3307 12.1076 26.2956 12.0228 26.2331 11.9603C26.1706 11.8978 26.0858 11.8627 25.9974 11.8627H19.9974C19.7322 11.8627 19.4778 11.7573 19.2903 11.5698C19.1028 11.3822 18.9974 11.1279 18.9974 10.8627V3.33333ZM19.9974 16.3333C20.2626 16.3333 20.517 16.4387 20.7045 16.6262C20.892 16.8138 20.9974 17.0681 20.9974 17.3333C20.9974 17.5985 20.892 17.8529 20.7045 18.0404C20.517 18.228 20.2626 18.3333 19.9974 18.3333H11.9974C11.7322 18.3333 11.4778 18.228 11.2903 18.0404C11.1028 17.8529 10.9974 17.5985 10.9974 17.3333C10.9974 17.0681 11.1028 16.8138 11.2903 16.6262C11.4778 16.4387 11.7322 16.3333 11.9974 16.3333H19.9974ZM19.9974 21.6667C20.2626 21.6667 20.517 21.772 20.7045 21.9596C20.892 22.1471 20.9974 22.4015 20.9974 22.6667C20.9974 22.9319 20.892 23.1862 20.7045 23.3738C20.517 23.5613 20.2626 23.6667 19.9974 23.6667H11.9974C11.7322 23.6667 11.4778 23.5613 11.2903 23.3738C11.1028 23.1862 10.9974 22.9319 10.9974 22.6667C10.9974 22.4015 11.1028 22.1471 11.2903 21.9596C11.4778 21.772 11.7322 21.6667 11.9974 21.6667H19.9974Z" fill="currentColor"/>
<path d="M21 3.76983C21 3.5245 21.2573 3.3685 21.448 3.52183C21.6093 3.6525 21.7547 3.8045 21.8787 3.97783L25.896 9.57383C25.9867 9.70183 25.888 9.86717 25.7307 9.86717H21.3333C21.2449 9.86717 21.1601 9.83205 21.0976 9.76953C21.0351 9.70702 21 9.62224 21 9.53383V3.76983Z" fill="currentColor"/>

</svg>
