<svg width="20" height="20" viewBox="0 0 20 20" fill="none" xmlns="http://www.w3.org/2000/svg">
<path d="M10.4218 11.8928L18.2625 5.09756V14.9688C18.2625 15.2687 18.0187 15.5125 17.7187 15.5125H2.28126C1.98127 15.5125 1.7375 15.2687 1.7375 14.9687V5.09756L9.57818 11.8928L9.57821 11.8929C9.69953 11.9978 9.84982 12.05 10 12.05C10.1502 12.05 10.3005 11.9978 10.4218 11.8928L10.4218 11.8928ZM17.7187 2.45H2.28126C1.2714 2.45 0.45 3.2714 0.45 4.28126V14.9688C0.45 15.9786 1.2714 16.8 2.28126 16.8H17.7187C18.7286 16.8 19.55 15.9786 19.55 14.9688V4.28126C19.55 3.2714 18.7286 2.45 17.7187 2.45ZM17.7187 3.73749C17.763 3.73749 17.806 3.743 17.8472 3.75321L10 10.5544L2.15276 3.7532C2.19473 3.74286 2.23788 3.73756 2.2813 3.73749H17.7187Z" fill="black" stroke="black" stroke-width="0.1"/>
</svg>
