<svg width="18" height="18" viewBox="0 0 18 18" fill="none" xmlns="http://www.w3.org/2000/svg">
<path d="M3.39509 3.3923C3.39509 3.14604 3.49296 2.90981 3.66707 2.73571C3.84118 2.5616 4.0774 2.46373 4.32366 2.46373L12.6808 2.46373C12.9271 2.46373 13.1633 2.5616 13.3374 2.73571C13.5115 2.90981 13.6094 3.14604 13.6094 3.3923L13.6094 13.6066C13.6094 13.8529 13.5115 14.089 13.3374 14.2632C13.1633 14.4373 12.9271 14.5352 12.6808 14.5352L6.64509 14.5352L3.39509 11.2852L3.39509 3.3923Z" stroke="currentColor" stroke-linecap="round" stroke-linejoin="round"/>
<path d="M6.64509 8.96317L8.50223 10.8203L10.3594 8.96317" stroke="currentColor" stroke-linecap="round" stroke-linejoin="round"/>
<path d="M8.50391 10.8203L8.50391 5.71317" stroke="currentColor" stroke-linecap="round" stroke-linejoin="round"/>
</svg>
