<svg width="24" height="24" viewBox="0 0 24 24" fill="none" xmlns="http://www.w3.org/2000/svg">

<path d="M29.767 31.9305C29.767 30.4777 29.767 29.0185 29.767 27.5193C29.767 26.0201 29.767 24.4798 29.767 22.8638C29.767 21.2132 29.9867 19.1529 30.0966 17.3353C30.2065 15.5177 30.2059 13.9433 29.767 13.2638C29.7318 13.21 29.3729 13.21 29.0017 13.2233C28.631 13.2366 28.2481 13.2638 28.167 13.2638C25.975 13.2638 25.6075 12.355 24.4337 11.6638C23.1905 10.9316 22.7537 10.5726 21.2337 10.5972C18.0971 10.6478 16.8417 13.3177 14.3003 13.2638C11.7174 13.2094 9.67421 9.98757 7.36701 10.0638C5.27528 10.1332 3.30035 13.2516 0.967013 13.2638C-1.79672 13.2788 -3.17272 10.0537 -5.43299 11.1305C-4.51192 18.2686 -6.76792 24.8441 -5.43299 28.1972C-5.15565 28.8937 -3.72152 29.6937 -2.76632 30.3305C-1.41912 31.2292 -0.426587 31.9348 0.967013 31.9305C3.42621 31.923 4.99741 28.6996 7.90035 28.7305C9.96861 28.7524 12.4449 31.9881 14.8337 31.9305C17.6934 31.8612 18.6486 28.6318 21.767 28.7305C24.7883 28.8265 25.8849 32.9929 29.767 31.9305Z" stroke="currentColor" stroke-width="1.4"/>
<path d="M5.76771 5.26562H18.5677C18.8621 5.26562 19.101 5.50456 19.101 5.79896V18.599C19.101 18.8934 18.8621 19.1323 18.5677 19.1323H5.76771C5.47331 19.1323 5.23438 18.8934 5.23438 18.599V5.79896C5.23438 5.50456 5.47331 5.26562 5.76771 5.26562Z" stroke="currentColor" stroke-width="1.4"/>
<path d="M12.169 7.92969C14.5253 7.92969 16.4357 9.84009 16.4357 12.1964C16.4357 14.5526 14.5253 16.463 12.169 16.463C9.81274 16.463 7.90234 14.5526 7.90234 12.1964C7.90234 9.84009 9.81274 7.92969 12.169 7.92969Z" stroke="currentColor" stroke-width="1.4"/>
<path d="M7.36927 6.86719C7.66367 6.86719 7.9026 7.10612 7.9026 7.40052C7.9026 7.69492 7.66367 7.93385 7.36927 7.93385C7.07487 7.93385 6.83594 7.69492 6.83594 7.40052C6.83594 7.10612 7.07487 6.86719 7.36927 6.86719Z" fill="currentColor"/>

</svg>
