<svg width="22" height="22" viewBox="0 0 22 22" fill="none" xmlns="http://www.w3.org/2000/svg">
<path d="M11.905 19.4618L11.9034 19.4633C11.3977 19.9224 10.618 19.9222 10.1124 19.4565L10.11 19.4543L10.0091 19.3627L10.0083 19.3619C7.59154 17.1753 5.63644 15.403 4.29383 13.7388C2.95852 12.0836 2.28124 10.5972 2.33501 8.98817C2.38472 7.58363 3.10541 6.23903 4.2617 5.45177L4.26197 5.45158C6.44 3.96656 9.14855 4.64719 10.6218 6.37159L11.002 6.81654L11.3821 6.37159C12.8564 4.64597 15.5644 3.95865 17.7409 5.45086L17.7422 5.45177C18.8987 6.23911 19.6194 7.5839 19.6689 8.98861L19.669 8.989C19.727 10.5973 19.0503 12.0833 17.7135 13.7412C16.3746 15.4017 14.427 17.1712 12.0226 19.3558L11.9967 19.3793L11.9949 19.3809L11.905 19.4618Z" stroke="currentColor"/>
</svg>
