<svg width="40" height="40" viewBox="0 0 40 40" fill="none" xmlns="http://www.w3.org/2000/svg">
<path d="M34 20.1964V36.667H6V20.1964H0L20 1.66699L40 20.1964H34ZM27.06 18.1993L24.94 16.017L12.94 28.3699L15.06 30.5523L27.06 18.1993ZM17.26 16.8405C16.8 16.3464 16.16 16.0788 15.5 16.0788C14.84 16.0788 14.2 16.3464 13.74 16.8405C13.26 17.3141 13 17.9729 13 18.6523C13 19.3317 13.26 19.9905 13.74 20.4641C14.2 20.9582 14.84 21.2258 15.5 21.2258C16.16 21.2258 16.8 20.9582 17.26 20.4641C17.74 19.9905 18 19.3317 18 18.6523C18 17.9729 17.74 17.3141 17.26 16.8405ZM26.26 26.1052C25.8 25.6111 25.16 25.3435 24.5 25.3435C23.84 25.3435 23.2 25.6111 22.74 26.1052C22.26 26.5788 22 27.2376 22 27.917C22 28.5964 22.26 29.2552 22.74 29.7288C23.2 30.2229 23.84 30.4905 24.5 30.4905C25.16 30.4905 25.8 30.2229 26.26 29.7288C26.74 29.2552 27 28.5964 27 27.917C27 27.2376 26.74 26.5788 26.26 26.1052Z" fill="currentColor"/>
</svg>
