<svg width="18" height="16" viewBox="0 0 18 16" fill="none" xmlns="http://www.w3.org/2000/svg">

<path d="M13.5005 0.800049C13.0027 0.800049 12.6005 1.20224 12.6005 1.70005V15.2H14.4005V6.20005H17.5505C17.798 6.20005 18.0005 5.99755 18.0005 5.75005V2.15005C18.0005 1.90255 17.798 1.70005 17.5505 1.70005H14.4005C14.4005 1.20224 13.9983 0.800049 13.5005 0.800049ZM11.7005 5.27192L7.78552 1.91661C7.44802 1.62692 6.95021 1.62692 6.61271 1.91661L0.312707 7.31661C0.0286442 7.5613 -0.0754183 7.95786 0.0567692 8.31224C0.188957 8.66661 0.523644 8.90005 0.900519 8.90005H1.80052V14.3C1.80052 14.7979 2.20271 15.2 2.70052 15.2H4.50052C4.99833 15.2 5.40052 14.7979 5.40052 14.3V11.6C5.40052 11.1022 5.80271 10.7 6.30052 10.7H8.10052C8.59833 10.7 9.00052 11.1022 9.00052 11.6V14.3C9.00052 14.7979 9.40271 15.2 9.90052 15.2H11.7258H11.6977V5.27192H11.7005Z" fill="currentColor"/>

</svg>
