<svg width="18" height="16" viewBox="0 0 18 16" fill="none" xmlns="http://www.w3.org/2000/svg">

<path d="M8.1 10.6466V10.7H7.2C6.70219 10.7 6.3 11.1022 6.3 11.6V14.075C6.3 14.6966 5.79656 15.2 5.175 15.2H3.60281C3.56063 15.2 3.51844 15.1972 3.47625 15.1944C3.4425 15.1972 3.40875 15.2 3.375 15.2H2.925C2.30344 15.2 1.8 14.6966 1.8 14.075V10.925C1.8 10.8997 1.8 10.8716 1.80281 10.8463V8.8888H0.9C0.39375 8.8888 0 8.49505 0 7.98599C0 7.73286 0.084375 7.50786 0.28125 7.31099L7.4925 1.02505C7.68937 0.828174 7.91437 0.800049 8.11125 0.800049C8.30812 0.800049 8.53312 0.856299 8.70187 0.996924L12.5803 4.40286C12.2344 4.37474 11.8772 4.48724 11.6016 4.73192C10.6059 5.62067 9.75656 6.63599 9.14625 7.62317C8.55844 8.57661 8.1 9.65661 8.1 10.6466ZM13.5 15.2C11.0138 15.2 9 13.1863 9 10.7C9 8.54286 10.7578 6.63036 12.015 5.65442C12.1556 5.54474 12.3216 5.4913 12.4875 5.4913C12.7097 5.48849 12.9375 5.57849 13.1062 5.75005L14.4 7.0438L14.7178 6.72599C15.0469 6.39692 15.5784 6.3688 15.9075 6.69786C17.5641 8.33755 18 9.80567 18 10.7C18 13.1863 15.9862 15.2 13.5 15.2ZM15.3 12.0557C15.3 11.0291 14.2594 10.0025 13.7587 9.56942C13.6069 9.43724 13.3903 9.43724 13.2384 9.56942C12.7406 9.99974 11.7 11.0263 11.7 12.0557C11.7 13.0485 12.5072 13.8557 13.5 13.8557C14.4928 13.8557 15.3 13.0485 15.3 12.0557Z" fill="currentColor"/>

</svg>
