<svg width="16" height="16" viewBox="0 0 16 16" fill="none" xmlns="http://www.w3.org/2000/svg">
<path fill-rule="evenodd" clip-rule="evenodd" d="M8.00079 1.33301C6.19021 1.33301 5.96299 1.34092 5.25187 1.37329C4.54214 1.40579 4.05769 1.51815 3.6338 1.68301C3.19532 1.85329 2.82337 2.08106 2.45281 2.45176C2.08198 2.82231 1.8542 3.19426 1.68336 3.63259C1.51808 4.05662 1.40558 4.5412 1.37364 5.25065C1.34183 5.96176 1.3335 6.18912 1.3335 7.99967C1.3335 9.81023 1.34155 10.0368 1.37377 10.7479C1.40641 11.4576 1.51878 11.942 1.6835 12.3659C1.85392 12.8044 2.0817 13.1763 2.4524 13.5469C2.82282 13.9177 3.19477 14.1461 3.63296 14.3163C4.05714 14.4812 4.54172 14.5936 5.25131 14.6261C5.96243 14.6584 6.18952 14.6663 7.99995 14.6663C9.81067 14.6663 10.0372 14.6584 10.7483 14.6261C11.458 14.5936 11.9431 14.4812 12.3672 14.3163C12.8056 14.1461 13.177 13.9177 13.5474 13.5469C13.9182 13.1763 14.146 12.8044 14.3168 12.3661C14.4807 11.942 14.5932 11.4575 14.6266 10.748C14.6585 10.0369 14.6668 9.81023 14.6668 7.99967C14.6668 6.18912 14.6585 5.9619 14.6266 5.25079C14.5932 4.54106 14.4807 4.05662 14.3168 3.63273C14.146 3.19426 13.9182 2.82231 13.5474 2.45176C13.1765 2.08092 12.8057 1.85315 12.3668 1.68301C11.9418 1.51815 11.4571 1.40579 10.7473 1.37329C10.0362 1.34092 9.80983 1.33301 7.9987 1.33301H8.00079ZM7.40273 2.53438C7.58023 2.5341 7.77829 2.53438 8.00079 2.53438C9.78081 2.53438 9.99178 2.54077 10.6947 2.57272C11.3447 2.60244 11.6975 2.71105 11.9325 2.8023C12.2436 2.92313 12.4654 3.06758 12.6986 3.30091C12.932 3.53424 13.0764 3.75647 13.1975 4.06758C13.2888 4.3023 13.3975 4.65508 13.4271 5.30508C13.459 6.00785 13.466 6.21897 13.466 7.99813C13.466 9.7773 13.459 9.98841 13.4271 10.6912C13.3974 11.3412 13.2888 11.694 13.1975 11.9287C13.0767 12.2398 12.932 12.4613 12.6986 12.6945C12.4653 12.9279 12.2438 13.0723 11.9325 13.1931C11.6978 13.2848 11.3447 13.3931 10.6947 13.4229C9.99192 13.4548 9.78081 13.4617 8.00079 13.4617C6.22063 13.4617 6.00966 13.4548 5.30687 13.4229C4.65687 13.3929 4.30408 13.2842 4.06894 13.193C3.75783 13.0722 3.5356 12.9277 3.30227 12.6944C3.06893 12.461 2.92449 12.2394 2.80337 11.9281C2.71212 11.6934 2.60337 11.3406 2.57379 10.6906C2.54184 9.98785 2.53545 9.77674 2.53545 7.99647C2.53545 6.21619 2.54184 6.00619 2.57379 5.30341C2.60351 4.65341 2.71212 4.30063 2.80337 4.06563C2.92421 3.75452 3.06893 3.5323 3.30227 3.29897C3.5356 3.06563 3.75783 2.92119 4.06894 2.80008C4.30395 2.70841 4.65687 2.60008 5.30687 2.57021C5.92188 2.54244 6.16021 2.5341 7.40273 2.53271V2.53438ZM11.5594 3.64134C11.1178 3.64134 10.7594 3.99925 10.7594 4.44106C10.7594 4.88273 11.1178 5.24106 11.5594 5.24106C12.0011 5.24106 12.3595 4.88273 12.3595 4.44106C12.3595 3.99939 12.0011 3.64134 11.5594 3.64134ZM8.0008 4.57606C6.11008 4.57606 4.57715 6.10898 4.57715 7.99967C4.57715 9.89037 6.11008 11.4226 8.0008 11.4226C9.89151 11.4226 11.4239 9.89037 11.4239 7.99967C11.4239 6.10898 9.89151 4.57606 8.0008 4.57606ZM8.00078 5.77745C9.22802 5.77745 10.223 6.77231 10.223 7.99967C10.223 9.2269 9.22802 10.2219 8.00078 10.2219C6.77341 10.2219 5.77854 9.2269 5.77854 7.99967C5.77854 6.77231 6.77341 5.77745 8.00078 5.77745Z" fill="currentColor"/>
</svg>
