<svg width="16" height="16" viewBox="0 0 16 16" fill="none" xmlns="http://www.w3.org/2000/svg">
<path d="M5.60156 6.00156C5.60156 3.54076 7.54076 1.60156 10.0016 1.60156C12.4624 1.60156 14.4016 3.54076 14.4016 6.00156C14.4016 8.46236 12.4624 10.4016 10.0016 10.4016C9.59697 10.4065 9.1935 10.3581 8.80156 10.2576V10.4016C8.80156 10.6137 8.71728 10.8172 8.56725 10.9672C8.41722 11.1173 8.21374 11.2016 8.00156 11.2016H7.20156V12.0016C7.20156 12.2137 7.11728 12.4172 6.96725 12.5672C6.81722 12.7173 6.61374 12.8016 6.40156 12.8016H5.60156V13.2016C5.60156 13.5198 5.47513 13.825 5.25009 14.0501C5.02505 14.2751 4.71982 14.4016 4.40156 14.4016H2.80156C2.4833 14.4016 2.17808 14.2751 1.95303 14.0501C1.72799 13.825 1.60156 13.5198 1.60156 13.2016V11.9328C1.60156 11.6144 1.72796 11.3088 1.95356 11.0848L5.58556 7.45196C5.69276 7.34476 5.74556 7.15756 5.69916 6.94156C5.63369 6.63253 5.60097 6.31746 5.60156 6.00156ZM12.0016 4.80156C12.0016 4.58939 11.9173 4.38591 11.7672 4.23588C11.6172 4.08585 11.4137 4.00156 11.2016 4.00156C10.9894 4.00156 10.7859 4.08585 10.6359 4.23588C10.4858 4.38591 10.4016 4.58939 10.4016 4.80156C10.4016 5.01374 10.4858 5.21722 10.6359 5.36725C10.7859 5.51728 10.9894 5.60156 11.2016 5.60156C11.4137 5.60156 11.6172 5.51728 11.7672 5.36725C11.9173 5.21722 12.0016 5.01374 12.0016 4.80156Z" fill="currentColor"/>
</svg>
