<?xml version="1.0" encoding="UTF-8"?>
<svg id="_Layer_" data-name="&amp;lt;Layer&amp;gt;" xmlns="http://www.w3.org/2000/svg" viewBox="0 0 598.92 200.17">
  <rect y="101.54" width="596.29" height="3.06" fill="currentColor"/>
  <rect x="595.85" y="15.36" width="3.06" height="180.69" fill="currentColor"/>
    <path fill="currentColor" d="M15.83,159.72c-1.75,1.47-3.91,2.2-6.47,2.2-2.19,0-3.98-.62-5.39-1.87s-2.11-3.01-2.11-5.29v-7.01c0-2.3,.7-4.07,2.1-5.32,1.4-1.25,3.18-1.87,5.35-1.87s4.29,.68,6.07,2.03c.15,.12,.17,.26,.06,.44l-.91,1.36c-.11,.15-.28,.17-.48,.06-1.41-1.04-2.99-1.56-4.76-1.56-1.6,0-2.83,.43-3.69,1.3s-1.3,2.06-1.3,3.56v6.98c0,1.51,.44,2.7,1.31,3.56,.87,.87,2.11,1.3,3.71,1.3,1.98,0,3.73-.6,5.25-1.8,.15-.15,.29-.12,.43,.09l.94,1.33c.11,.21,.09,.38-.09,.49Z" />
    <path fill="currentColor" d="M22.84,161.6h-1.8c-.23,0-.34-.11-.34-.32v-20.08c0-.21,.11-.32,.34-.32h13.77c.23,0,.34,.11,.34,.32v20.08c0,.21-.11,.32-.34,.32h-1.8c-.21,0-.31-.11-.31-.32v-18.14h-9.55v18.14c0,.21-.1,.32-.31,.32Z"/>
    <path fill="currentColor" d="M44.12,152.22v7.13h9.81c.21,0,.31,.11,.31,.32v1.62c0,.21-.1,.32-.31,.32h-11.92c-.23,0-.34-.11-.34-.32v-20.08c0-.21,.11-.32,.34-.32h11.52c.21,0,.31,.11,.31,.32v1.62c0,.21-.11,.32-.31,.32h-9.41v6.78h8.76c.21,0,.31,.12,.31,.35v1.59c0,.23-.11,.35-.31,.35h-8.76Z"/>
    <path fill="currentColor" d="M75.52,165.4h-1.68c-.21,0-.31-.11-.31-.32v-3.48h-13.58c-.23,0-.34-.11-.34-.32v-20.08c0-.21,.11-.32,.34-.32h1.77c.21,0,.31,.11,.31,.32v18.11h9.35v-18.11c0-.21,.1-.32,.31-.32h1.77c.23,0,.34,.11,.34,.32v18.11h1.71c.23,0,.34,.11,.34,.32v5.45c0,.21-.11,.32-.34,.32Z"/>
    <path fill="currentColor" d="M95.57,161.6h-1.74c-.23,0-.34-.11-.34-.32v-8.78c0-1.97,.06-4.48,.17-7.53l-.06-.06c-.7,1.37-1.53,2.84-2.48,4.41l-7.5,12.08c-.08,.14-.21,.2-.4,.2h-2c-.21,0-.31-.11-.31-.32v-20.08c0-.21,.1-.32,.31-.32h1.77c.21,0,.31,.11,.31,.32v8.78c0,2.8-.06,5.4-.17,7.79l.09,.09c.3-.6,1.1-2.01,2.4-4.23l7.56-12.52c.1-.15,.23-.23,.4-.23h2c.23,0,.34,.11,.34,.32v20.08c0,.21-.11,.32-.34,.32Z"/>
    <path fill="currentColor" d="M102.3,161.6h-1.91c-.23,0-.31-.13-.26-.38l7.1-20.08c.06-.18,.17-.26,.34-.26h2.25c.19,0,.31,.09,.37,.26l7.07,20.08c.09,.25,0,.38-.26,.38h-1.91c-.19,0-.31-.09-.37-.26l-1.74-5.16h-8.56l-1.77,5.16c-.06,.18-.18,.26-.37,.26Zm6.36-17.96l-3.48,10.26h7.07l-3.48-10.26h-.11Z"/>
    <path fill="currentColor" d="M125,155.23c-.4,2.34-1.02,3.99-1.85,4.95-.84,.97-2.03,1.47-3.59,1.51-.21,0-.31-.11-.31-.32v-1.65c0-.21,.1-.32,.31-.32,.91-.06,1.59-.42,2.04-1.09s.81-1.89,1.1-3.66c.42-2.55,.72-7.03,.91-13.45,0-.21,.1-.32,.31-.32h11.12c.21,0,.31,.11,.31,.32v20.08c0,.21-.1,.32-.31,.32h-1.8c-.21,0-.31-.11-.31-.32v-18.11h-7.02c-.13,5.06-.44,9.08-.91,12.05Z"/>
    <path fill="currentColor" d="M156.51,161.6h-1.74c-.23,0-.34-.11-.34-.32v-8.78c0-1.97,.06-4.48,.17-7.53l-.06-.06c-.7,1.37-1.53,2.84-2.48,4.41l-7.5,12.08c-.08,.14-.21,.2-.4,.2h-2c-.21,0-.31-.11-.31-.32v-20.08c0-.21,.1-.32,.31-.32h1.77c.21,0,.31,.11,.31,.32v8.78c0,2.8-.06,5.4-.17,7.79l.09,.09c.3-.6,1.1-2.01,2.4-4.23l7.56-12.52c.1-.15,.23-.23,.4-.23h2c.23,0,.34,.11,.34,.32v20.08c0,.21-.11,.32-.34,.32Z"/>
    <path fill="currentColor" d="M175.56,146.28c-.02,.99-.28,1.87-.77,2.66-.49,.79-1.21,1.35-2.14,1.68,1.1,.41,1.95,1.05,2.55,1.94s.9,1.9,.9,3.04c0,1.99-.67,3.54-2.01,4.65s-3.08,1.67-5.23,1.67c-2.93,0-5.3-.83-7.1-2.49-.15-.15-.17-.32-.06-.49l.94-1.36c.13-.19,.27-.21,.43-.06,1.54,1.39,3.47,2.08,5.79,2.08,1.43,0,2.57-.36,3.44-1.09,.87-.72,1.3-1.7,1.3-2.91,0-1.08-.4-1.96-1.21-2.64-.81-.68-2.03-1.01-3.66-1.01h-2.77c-.21,0-.31-.11-.31-.32v-1.59c0-.21,.1-.32,.31-.32h2.85c1.37,0,2.42-.33,3.17-.99,.74-.66,1.11-1.46,1.11-2.41s-.38-1.8-1.14-2.46c-.76-.66-1.82-.99-3.17-.99-2.11,0-3.87,.63-5.28,1.88-.19,.15-.35,.13-.48-.06l-.91-1.3c-.11-.17-.1-.34,.03-.49,1.73-1.56,3.94-2.35,6.65-2.35,2.03,0,3.68,.55,4.93,1.65s1.87,2.45,1.85,4.06Z"/>
    <path fill="currentColor" d="M196.27,161.6h-1.74c-.23,0-.34-.11-.34-.32v-8.78c0-1.97,.06-4.48,.17-7.53l-.06-.06c-.7,1.37-1.53,2.84-2.48,4.41l-7.5,12.08c-.08,.14-.21,.2-.4,.2h-2c-.21,0-.31-.11-.31-.32v-20.08c0-.21,.1-.32,.31-.32h1.77c.21,0,.31,.11,.31,.32v8.78c0,2.8-.06,5.4-.17,7.79l.09,.09c.3-.6,1.1-2.01,2.4-4.23l7.56-12.52c.1-.15,.23-.23,.4-.23h2c.23,0,.34,.11,.34,.32v20.08c0,.21-.11,.32-.34,.32Z"/>
    <path fill="currentColor" d="M203.42,140.89h6.87c2.24,0,3.98,.6,5.22,1.8,1.24,1.2,1.85,2.86,1.85,4.98s-.62,3.81-1.85,5.01c-1.24,1.2-2.98,1.8-5.22,1.8h-4.76v6.81c0,.21-.1,.32-.31,.32h-1.8c-.21,0-.31-.11-.31-.32v-20.08c0-.21,.1-.32,.31-.32Zm2.11,11.3h4.51c3.25,0,4.88-1.51,4.88-4.52s-1.63-4.49-4.88-4.49h-4.51v9.01Z"/>
    <path fill="currentColor" d="M237.22,154.33c0,2.34-.69,4.19-2.08,5.55-1.39,1.36-3.29,2.04-5.7,2.04s-4.32-.68-5.7-2.04c-1.39-1.36-2.08-3.21-2.08-5.55v-6.11c0-2.38,.69-4.25,2.08-5.61,1.39-1.36,3.29-2.04,5.7-2.04s4.32,.68,5.7,2.04c1.39,1.36,2.08,3.23,2.08,5.61v6.11Zm-13.12,0c0,1.64,.47,2.93,1.4,3.85,.93,.93,2.24,1.39,3.94,1.39s3-.46,3.92-1.39c.92-.93,1.38-2.21,1.38-3.85v-6.11c0-1.7-.46-3.02-1.38-3.95s-2.23-1.41-3.92-1.41-3,.47-3.94,1.41c-.93,.94-1.4,2.26-1.4,3.95v6.11Z"/>
    <path fill="currentColor" d="M256.38,146.33c0,.97-.21,1.82-.64,2.56-.43,.75-1.02,1.3-1.78,1.67,1.05,.39,1.85,1.02,2.42,1.9,.57,.88,.86,1.93,.86,3.14,0,1.89-.61,3.37-1.84,4.42-1.23,1.05-2.95,1.58-5.18,1.58h-6.87c-.23,0-.34-.11-.34-.32v-20.08c0-.21,.11-.32,.34-.32h6.9c2,0,3.52,.49,4.56,1.46,1.05,.98,1.57,2.3,1.57,3.98Zm-2.45,0c0-1-.31-1.79-.94-2.36-.63-.57-1.54-.85-2.74-.85h-4.82v6.43h4.99c1.08,0,1.94-.27,2.57-.81s.94-1.34,.94-2.41Zm-8.5,13.04h4.82c1.45,0,2.56-.31,3.35-.94,.79-.63,1.18-1.57,1.18-2.83,0-1.18-.37-2.11-1.1-2.8s-1.82-1.03-3.27-1.03h-4.99v7.59Z"/>
    <path fill="currentColor" d="M262.34,161.6h-1.91c-.23,0-.31-.13-.26-.38l7.1-20.08c.06-.18,.17-.26,.34-.26h2.25c.19,0,.31,.09,.37,.26l7.07,20.08c.09,.25,0,.38-.26,.38h-1.91c-.19,0-.31-.09-.37-.26l-1.74-5.16h-8.56l-1.77,5.16c-.06,.18-.18,.26-.37,.26Zm6.36-17.96l-3.48,10.26h7.07l-3.48-10.26h-.11Z"/>
    <path fill="currentColor" d="M293.49,149.96v-8.75c0-.21,.11-.32,.34-.32h1.77c.21,0,.31,.11,.31,.32v20.08c0,.21-.1,.32-.31,.32h-1.77c-.23,0-.34-.11-.34-.32v-9.07h-9.53v9.07c0,.21-.1,.32-.31,.32h-1.77c-.23,0-.34-.11-.34-.32v-20.08c0-.21,.11-.32,.34-.32h1.77c.21,0,.31,.11,.31,.32v8.75h9.53Z"/>
    <path fill="currentColor" d="M314.36,149.96v-8.75c0-.21,.11-.32,.34-.32h1.77c.21,0,.31,.11,.31,.32v20.08c0,.21-.1,.32-.31,.32h-1.77c-.23,0-.34-.11-.34-.32v-9.07h-9.53v9.07c0,.21-.1,.32-.31,.32h-1.77c-.23,0-.34-.11-.34-.32v-20.08c0-.21,.11-.32,.34-.32h1.77c.21,0,.31,.11,.31,.32v8.75h9.53Z"/>
    <path fill="currentColor" d="M330.36,161.6h-6.73c-.23,0-.34-.11-.34-.32v-20.08c0-.21,.11-.32,.34-.32h1.8c.21,0,.31,.11,.31,.32v7.16h4.51c2.26,0,4.01,.58,5.25,1.73s1.85,2.77,1.85,4.85-.61,3.74-1.83,4.91c-1.22,1.17-2.94,1.75-5.16,1.75Zm-4.62-10.92v8.6h4.62c2.98,0,4.48-1.45,4.48-4.34s-1.49-4.26-4.48-4.26h-4.62Zm17.08,10.92h-1.8c-.23,0-.34-.11-.34-.32v-20.08c0-.21,.11-.32,.34-.32h1.8c.21,0,.31,.11,.31,.32v20.08c0,.21-.1,.32-.31,.32Z"/>
    <path fill="currentColor" d="M362.22,161.29v-8.78c0-1.99,.06-4.51,.17-7.56l-.06-.03c-.7,1.37-1.53,2.84-2.48,4.41l-7.5,12.08c-.08,.14-.21,.2-.4,.2h-2c-.21,0-.31-.11-.31-.32v-20.08c0-.21,.1-.32,.31-.32h1.77c.21,0,.31,.11,.31,.32v8.78c0,2.82-.06,5.44-.17,7.85l.09,.03c.3-.6,1.1-2.01,2.4-4.23l7.56-12.52c.1-.15,.23-.23,.4-.23h2c.23,0,.34,.11,.34,.32v20.08c0,.21-.11,.32-.34,.32h-1.74c-.23,0-.34-.11-.34-.32Zm-.6-26.4l-1.25-.32c-.19-.02-.31,.07-.37,.26-.25,1.62-1.16,2.43-2.74,2.43s-2.47-.81-2.74-2.43c-.06-.19-.18-.28-.37-.26l-1.25,.32c-.21,.06-.3,.19-.29,.38,.17,1.2,.66,2.16,1.45,2.88s1.86,1.09,3.19,1.09,2.42-.36,3.22-1.09,1.27-1.7,1.43-2.91c.02-.17-.08-.29-.29-.35Z"/>
    <path fill="currentColor" d="M14.74,181.05c-.02,.99-.28,1.87-.77,2.67s-1.21,1.35-2.14,1.68c1.1,.41,1.95,1.05,2.55,1.94,.6,.89,.9,1.9,.9,3.04,0,1.99-.67,3.54-2.01,4.65s-3.08,1.67-5.23,1.67c-2.93,0-5.3-.83-7.1-2.49-.15-.15-.17-.32-.06-.49l.94-1.36c.13-.19,.27-.21,.43-.06,1.54,1.39,3.47,2.09,5.79,2.09,1.43,0,2.57-.36,3.44-1.09,.87-.72,1.3-1.7,1.3-2.91,0-1.08-.4-1.96-1.21-2.64-.81-.68-2.03-1.02-3.66-1.02h-2.77c-.21,0-.31-.11-.31-.32v-1.59c0-.21,.1-.32,.31-.32h2.85c1.37,0,2.42-.33,3.17-.99,.74-.66,1.11-1.46,1.11-2.4s-.38-1.81-1.14-2.46c-.76-.66-1.82-.99-3.17-.99-2.11,0-3.87,.63-5.28,1.88-.19,.15-.35,.13-.48-.06l-.91-1.3c-.11-.17-.1-.34,.03-.49,1.73-1.56,3.94-2.35,6.65-2.35,2.03,0,3.68,.55,4.93,1.65,1.25,1.1,1.87,2.45,1.85,4.06Z"/>
    <path fill="currentColor" d="M20.53,196.37h-1.91c-.23,0-.31-.13-.26-.38l7.1-20.08c.06-.18,.17-.26,.34-.26h2.25c.19,0,.31,.09,.37,.26l7.07,20.08c.09,.25,0,.38-.26,.38h-1.91c-.19,0-.31-.09-.37-.26l-1.74-5.16h-8.56l-1.77,5.16c-.06,.18-.18,.26-.37,.26Zm6.36-17.97l-3.48,10.26h7.07l-3.48-10.26h-.11Z"/>
    <path fill="currentColor" d="M52.79,194.49c-1.75,1.47-3.91,2.2-6.47,2.2-2.19,0-3.98-.62-5.39-1.87-1.41-1.25-2.11-3.01-2.11-5.29v-7.01c0-2.3,.7-4.07,2.1-5.32s3.18-1.87,5.35-1.87,4.29,.68,6.07,2.03c.15,.12,.17,.26,.06,.44l-.91,1.36c-.11,.15-.28,.17-.48,.06-1.41-1.04-2.99-1.56-4.76-1.56-1.6,0-2.83,.43-3.69,1.3-.87,.87-1.3,2.06-1.3,3.56v6.98c0,1.51,.44,2.7,1.31,3.56s2.11,1.3,3.71,1.3c1.98,0,3.73-.6,5.25-1.8,.15-.15,.29-.13,.43,.09l.94,1.33c.11,.21,.09,.38-.09,.49Z"/>
    <path fill="currentColor" d="M55.78,175.66h14.66c.23,0,.34,.11,.34,.32v1.62c0,.21-.11,.32-.34,.32h-6.1v18.14c0,.21-.11,.32-.34,.32h-1.77c-.23,0-.34-.11-.34-.32v-18.14h-6.1c-.21,0-.31-.11-.31-.32v-1.62c0-.21,.1-.32,.31-.32Z"/>
    <path fill="currentColor" d="M75.4,175.66h6.87c2.24,0,3.98,.6,5.22,1.8s1.85,2.86,1.85,4.98-.62,3.82-1.85,5.01c-1.24,1.2-2.98,1.8-5.22,1.8h-4.76v6.81c0,.21-.1,.32-.31,.32h-1.8c-.21,0-.31-.11-.31-.32v-20.08c0-.21,.1-.32,.31-.32Zm2.11,11.3h4.51c3.25,0,4.88-1.51,4.88-4.52s-1.63-4.49-4.88-4.49h-4.51v9.01Z"/>
    <path fill="currentColor" d="M109.2,189.1c0,2.34-.69,4.19-2.08,5.55-1.39,1.36-3.29,2.04-5.7,2.04s-4.32-.68-5.7-2.04c-1.39-1.36-2.08-3.21-2.08-5.55v-6.11c0-2.38,.69-4.25,2.08-5.61,1.39-1.36,3.29-2.04,5.7-2.04s4.32,.68,5.7,2.04c1.39,1.36,2.08,3.23,2.08,5.61v6.11Zm-13.12,0c0,1.64,.47,2.93,1.4,3.85,.93,.93,2.24,1.39,3.94,1.39s3-.46,3.92-1.39c.92-.93,1.38-2.21,1.38-3.85v-6.11c0-1.7-.46-3.02-1.38-3.96-.92-.94-2.23-1.4-3.92-1.4s-3,.47-3.94,1.4c-.93,.94-1.4,2.26-1.4,3.96v6.11Z"/>
    <path fill="currentColor" d="M127.56,196.06v-8.78c0-1.99,.06-4.51,.17-7.56l-.06-.03c-.7,1.37-1.53,2.84-2.48,4.4l-7.5,12.08c-.08,.14-.21,.2-.4,.2h-2c-.21,0-.31-.11-.31-.32v-20.08c0-.21,.1-.32,.31-.32h1.77c.21,0,.31,.11,.31,.32v8.78c0,2.82-.06,5.44-.17,7.85l.09,.03c.3-.6,1.1-2.01,2.4-4.23l7.56-12.52c.1-.15,.23-.23,.4-.23h2c.23,0,.34,.11,.34,.32v20.08c0,.21-.11,.32-.34,.32h-1.74c-.23,0-.34-.11-.34-.32Zm-.6-26.4l-1.25-.32c-.19-.02-.31,.07-.37,.26-.25,1.62-1.16,2.43-2.74,2.43s-2.47-.81-2.74-2.43c-.06-.19-.18-.28-.37-.26l-1.25,.32c-.21,.06-.3,.18-.29,.38,.17,1.2,.66,2.16,1.45,2.88,.8,.72,1.86,1.09,3.19,1.09s2.42-.36,3.22-1.09c.8-.72,1.27-1.7,1.43-2.91,.02-.17-.08-.29-.29-.35Z"/>
    <path fill="currentColor" d="M160.33,200.17h-1.68c-.23,0-.34-.11-.34-.32v-3.48h-21.48c-.23,0-.34-.11-.34-.32v-20.08c0-.21,.11-.32,.34-.32h1.8c.21,0,.31,.11,.31,.32v18.11h7.39v-18.11c0-.21,.1-.32,.31-.32h1.8c.23,0,.34,.11,.34,.32v18.11h7.36v-18.11c0-.21,.11-.32,.34-.32h1.8c.21,0,.31,.11,.31,.32v18.11h1.74c.21,0,.31,.11,.31,.32v5.45c0,.21-.1,.32-.31,.32Z"/>
    <path fill="currentColor" d="M180.35,196.37h-1.74c-.23,0-.34-.11-.34-.32v-8.78c0-1.97,.06-4.48,.17-7.53l-.06-.06c-.7,1.37-1.53,2.84-2.48,4.4l-7.5,12.08c-.08,.14-.21,.2-.4,.2h-2c-.21,0-.31-.11-.31-.32v-20.08c0-.21,.1-.32,.31-.32h1.77c.21,0,.31,.11,.31,.32v8.78c0,2.8-.06,5.4-.17,7.79l.09,.09c.3-.6,1.1-2.01,2.4-4.23l7.56-12.52c.1-.15,.23-.23,.4-.23h2c.23,0,.34,.11,.34,.32v20.08c0,.21-.11,.32-.34,.32Z"/>
    <path fill="currentColor" d="M189.31,196.37h-1.77c-.23,0-.34-.11-.34-.32v-20.08c0-.21,.11-.32,.34-.32h1.77c.21,0,.31,.11,.31,.32v9.59l8.81-9.71c.13-.13,.28-.2,.43-.2h2.28c.15,0,.25,.04,.29,.13,.04,.09,0,.18-.09,.27l-8.18,8.92,8.76,10.98c.08,.11,.09,.21,.06,.29-.04,.08-.12,.12-.26,.12h-2.31c-.19,0-.32-.07-.4-.2l-7.47-9.45-1.91,2v7.33c0,.21-.1,.32-.31,.32Z"/>
    <path fill="currentColor" d="M1.67,13.82H33.92c.62,0,.92,.31,.92,.94v5.14c0,.59-.31,.88-.92,.88h-12.4V57.68c0,.63-.29,.94-.86,.94h-5.67c-.58,0-.86-.31-.86-.94V20.77H1.67c-.62,0-.92-.29-.92-.88v-5.14c0-.63,.31-.94,.92-.94Z"/>
    <path fill="currentColor" d="M46.23,13.82h15.6c4.85,0,8.64,1.36,11.38,4.07,2.73,2.72,4.1,6.45,4.1,11.22s-1.37,8.62-4.1,11.31c-2.74,2.69-6.53,4.04-11.38,4.04h-9.07v13.22c0,.63-.29,.94-.86,.94h-5.67c-.58,0-.86-.31-.86-.94V14.76c0-.63,.29-.94,.86-.94Zm6.54,23.62h8.2c3,0,5.21-.68,6.63-2.04,1.42-1.36,2.13-3.46,2.13-6.3s-.71-4.93-2.13-6.27c-1.42-1.34-3.63-2.01-6.63-2.01h-8.2v16.61Z"/>
    <path fill="currentColor" d="M88.77,58.62h-6.04c-.7,0-.95-.35-.74-1.06l14.8-42.99c.21-.5,.53-.75,.99-.75h7.03c.45,0,.78,.25,.99,.75l14.8,42.99c.21,.71-.04,1.06-.74,1.06h-6.04c-.58,0-.92-.25-1.05-.75l-3.02-9.46h-16.9l-3.02,9.46c-.16,.5-.51,.75-1.05,.75Zm12.4-36.53l-6.23,19.49h12.71l-6.23-19.49h-.25Z"/>
    <path fill="currentColor" d="M155.83,32.49V14.76c0-.63,.29-.94,.86-.94h5.67c.58,0,.86,.31,.86,.94V57.68c0,.63-.29,.94-.86,.94h-5.67c-.58,0-.86-.31-.86-.94v-18.23h-17.39v18.23c0,.63-.29,.94-.86,.94h-5.67c-.58,0-.86-.31-.86-.94V14.76c0-.63,.29-.94,.86-.94h5.67c.58,0,.86,.31,.86,.94v17.73h17.39Z"/>
    <path fill="currentColor" d="M206.8,54.8c-3.87,3.05-8.59,4.57-14.19,4.57-4.93,0-9.01-1.36-12.21-4.07-3.21-2.72-4.81-6.68-4.81-11.91v-14.29c0-5.22,1.6-9.2,4.81-11.94,3.21-2.74,7.24-4.1,12.09-4.1s9.25,1.4,13.2,4.2c.45,.33,.51,.75,.19,1.25l-2.9,4.26c-.29,.5-.72,.59-1.29,.25-2.67-1.88-5.74-2.82-9.19-2.82-2.96,0-5.27,.79-6.94,2.38-1.67,1.59-2.5,3.78-2.5,6.58v14.04c0,2.84,.83,5.06,2.5,6.64,1.67,1.59,4,2.38,7,2.38,3.86,0,7.28-1.09,10.24-3.26,.53-.38,.95-.29,1.23,.25l2.9,4.26c.33,.54,.29,.98-.12,1.32Z"/>
    <path fill="currentColor" d="M265.69,43.21c0,5.26-1.59,9.27-4.78,12.03-3.19,2.76-7.12,4.14-11.81,4.14s-8.62-1.39-11.81-4.17c-3.19-2.78-4.78-6.8-4.78-12.06l-.06-4.01h-7.09v18.55c0,.63-.31,.94-.92,.94h-5.61c-.58,0-.86-.31-.86-.94V14.76c0-.63,.29-.94,.86-.94h5.61c.62,0,.92,.31,.92,.94v17.36h7.09l.06-2.94c0-5.26,1.59-9.26,4.78-12,3.19-2.74,7.12-4.1,11.81-4.1s8.62,1.37,11.81,4.1c3.19,2.74,4.78,6.74,4.78,12v14.04Zm-25.6-.06c0,3.01,.85,5.27,2.56,6.8,1.71,1.53,3.85,2.29,6.45,2.29s4.73-.76,6.41-2.29c1.69-1.52,2.53-3.79,2.53-6.8v-13.91c0-3.13-.83-5.42-2.5-6.86s-3.81-2.16-6.45-2.16-4.84,.72-6.51,2.16c-1.67,1.44-2.5,3.73-2.5,6.86v13.91Z"/>
    <path fill="currentColor" d="M328.55,58.62h-7.15c-.45,0-.82-.21-1.11-.63l-12.7-18.67-2.96,3.51v14.85c0,.63-.29,.94-.86,.94h-5.55c-.62,0-.93-.31-.93-.94v-14.85l-2.96-3.51-12.71,18.67c-.25,.42-.62,.63-1.11,.63h-7.15c-.82,0-1.01-.38-.56-1.13l16.9-23.81-15.36-18.74c-.25-.33-.32-.61-.22-.81,.1-.21,.34-.31,.71-.31h6.97c.58,0,.97,.19,1.17,.56l14.31,18.99V14.76c0-.63,.31-.94,.93-.94h5.55c.58,0,.86,.31,.86,.94v18.61l14.37-18.99c.21-.38,.58-.56,1.11-.56h6.97c.9,0,1.09,.38,.56,1.13l-15.36,18.74,16.9,23.81c.45,.75,.25,1.13-.62,1.13Z"/>
    <path fill="currentColor" d="M367.55,54.8c-3.87,3.05-8.59,4.57-14.19,4.57-4.93,0-9.01-1.36-12.21-4.07-3.21-2.72-4.81-6.68-4.81-11.91v-14.29c0-5.22,1.6-9.2,4.81-11.94,3.21-2.74,7.24-4.1,12.09-4.1s9.25,1.4,13.2,4.2c.45,.33,.51,.75,.19,1.25l-2.9,4.26c-.29,.5-.72,.59-1.29,.25-2.67-1.88-5.74-2.82-9.19-2.82-2.96,0-5.27,.79-6.94,2.38-1.67,1.59-2.5,3.78-2.5,6.58v14.04c0,2.84,.83,5.06,2.5,6.64,1.67,1.59,4,2.38,7,2.38,3.86,0,7.28-1.09,10.24-3.26,.53-.38,.95-.29,1.23,.25l2.9,4.26c.33,.54,.29,.98-.12,1.32Z"/>
    <path fill="currentColor" d="M377.02,13.82h32.26c.62,0,.92,.31,.92,.94v5.14c0,.59-.31,.88-.92,.88h-12.4V57.68c0,.63-.29,.94-.86,.94h-5.67c-.58,0-.86-.31-.86-.94V20.77h-12.46c-.62,0-.92-.29-.92-.88v-5.14c0-.63,.31-.94,.92-.94Z"/>
    <path fill="currentColor" d="M421.58,13.82h15.6c4.85,0,8.64,1.36,11.38,4.07,2.73,2.72,4.1,6.45,4.1,11.22s-1.37,8.62-4.1,11.31c-2.74,2.69-6.53,4.04-11.38,4.04h-9.07v13.22c0,.63-.29,.94-.86,.94h-5.67c-.58,0-.86-.31-.86-.94V14.76c0-.63,.29-.94,.86-.94Zm6.54,23.62h8.2c3,0,5.21-.68,6.63-2.04,1.42-1.36,2.13-3.46,2.13-6.3s-.71-4.93-2.13-6.27c-1.42-1.34-3.63-2.01-6.63-2.01h-8.2v16.61Z"/>
    <path fill="currentColor" d="M497.72,41.95c0,5.47-1.52,9.74-4.56,12.81-3.04,3.07-7.3,4.61-12.77,4.61s-9.72-1.54-12.77-4.61c-3.04-3.07-4.56-7.34-4.56-12.81v-11.53c0-5.47,1.52-9.73,4.56-12.78,3.04-3.05,7.3-4.57,12.77-4.57s9.72,1.53,12.77,4.57c3.04,3.05,4.56,7.31,4.56,12.78v11.53Zm-27.08,0c0,3.34,.82,5.89,2.47,7.64,1.64,1.76,4.07,2.63,7.28,2.63s5.63-.88,7.28-2.63c1.64-1.75,2.47-4.3,2.47-7.64v-11.47c0-6.89-3.25-10.34-9.75-10.34s-9.74,3.45-9.74,10.34v11.47Z"/>
    <path fill="currentColor" d="M536.01,57.68v-14.35c0-5.01,.18-10.76,.55-17.23l-.18-.06c-1.97,4.26-4.17,8.38-6.6,12.34l-11.66,19.61c-.25,.42-.6,.63-1.05,.63h-6.23c-.62,0-.92-.31-.92-.94V14.76c0-.63,.31-.94,.92-.94h5.55c.62,0,.92,.31,.92,.94v15.29c0,5.97-.19,11.63-.55,16.98l.18,.06c1.15-2.21,3.21-5.99,6.17-11.34l12.03-21.31c.29-.42,.66-.63,1.11-.63h6.23c.57,0,.86,.31,.86,.94V57.68c0,.63-.29,.94-.86,.94h-5.61c-.58,0-.86-.31-.86-.94Zm.92-56.71l-3.89-.94c-.53-.13-.88,.1-1.05,.69-.49,2.55-2.12,3.82-4.87,3.82s-4.3-1.27-4.87-3.82c-.16-.58-.51-.81-1.05-.69l-3.88,.94c-.62,.17-.86,.5-.74,1,.33,2.59,1.4,4.64,3.21,6.14,1.81,1.5,4.26,2.26,7.34,2.26s5.53-.77,7.34-2.32c1.81-1.55,2.88-3.61,3.21-6.2,.08-.46-.17-.75-.74-.88Z"/>
</svg>