<svg width="20" height="20" viewBox="0 0 20 20" fill="none" xmlns="http://www.w3.org/2000/svg">
<path d="M10.3586 18.6367C10.2535 18.7103 10.1283 18.7498 10 18.7498C9.87169 18.7498 9.74649 18.7103 9.64141 18.6367H10.3586ZM10.3586 18.6367C10.625 18.4508 16.875 14.0078 16.875 8.125L10.3586 18.6367ZM5.60054 3.72554C6.76752 2.55857 8.34967 1.90207 10 1.9C11.6503 1.90207 13.2325 2.55857 14.3995 3.72554C15.5666 4.89269 16.2231 6.47514 16.225 8.12574C16.2247 10.8401 14.7771 13.2739 13.2223 15.0952C11.7218 16.8529 10.1892 17.9606 10 18.0943C9.81081 17.9606 8.27816 16.8529 6.77766 15.0952C5.22281 13.2738 3.77513 10.8399 3.775 8.12537C3.77697 6.47491 4.43348 4.8926 5.60054 3.72554ZM11.75 5.50587C11.232 5.15974 10.623 4.975 10 4.975C9.16457 4.975 8.36335 5.30687 7.77261 5.89761C7.18187 6.48835 6.85 7.28957 6.85 8.125C6.85 8.74801 7.03474 9.35703 7.38087 9.87505C7.727 10.3931 8.21896 10.7968 8.79455 11.0352C9.37013 11.2736 10.0035 11.336 10.6145 11.2145C11.2256 11.0929 11.7869 10.7929 12.2274 10.3524C12.6679 9.91185 12.9679 9.35057 13.0895 8.73953C13.211 8.12849 13.1486 7.49513 12.9102 6.91955C12.6718 6.34396 12.2681 5.852 11.75 5.50587Z" stroke="black" stroke-width="1.3"/>
</svg>
