<svg width="18" height="20" viewBox="0 0 18 20" fill="none" xmlns="http://www.w3.org/2000/svg">
<path d="M8.64441 17C8.64441 17 7.64441 17 7.64441 16C7.64441 15 8.64441 12 12.6444 12C16.6444 12 17.6444 15 17.6444 16C17.6444 17 16.6444 17 16.6444 17H8.64441ZM12.6444 11C13.4401 11 14.2031 10.6839 14.7657 10.1213C15.3283 9.55871 15.6444 8.79565 15.6444 8C15.6444 7.20435 15.3283 6.44129 14.7657 5.87868C14.2031 5.31607 13.4401 5 12.6444 5C11.8488 5 11.0857 5.31607 10.5231 5.87868C9.96048 6.44129 9.64441 7.20435 9.64441 8C9.64441 8.79565 9.96048 9.55871 10.5231 10.1213C11.0857 10.6839 11.8488 11 12.6444 11ZM6.86041 17C6.71223 16.6878 6.63831 16.3455 6.64441 16C6.64441 14.645 7.32441 13.25 8.58041 12.28C7.95359 12.0864 7.30038 11.992 6.64441 12C2.64441 12 1.64441 15 1.64441 16C1.64441 17 2.64441 17 2.64441 17H6.86041ZM6.14441 11C6.80745 11 7.44334 10.7366 7.91218 10.2678C8.38102 9.79893 8.64441 9.16304 8.64441 8.5C8.64441 7.83696 8.38102 7.20107 7.91218 6.73223C7.44334 6.26339 6.80745 6 6.14441 6C5.48137 6 4.84548 6.26339 4.37664 6.73223C3.9078 7.20107 3.64441 7.83696 3.64441 8.5C3.64441 9.16304 3.9078 9.79893 4.37664 10.2678C4.84548 10.7366 5.48137 11 6.14441 11Z" fill="white"/>
</svg>
