<svg width="16" height="16" viewBox="0 0 16 16" fill="none" xmlns="http://www.w3.org/2000/svg">
<path d="M4.66797 14L6.66797 11.3333M10.668 14L9.33464 11.3333L7.33464 9.33333L8.0013 5.33333M8.0013 2.66667C8.0013 2.84348 8.07154 3.01305 8.19656 3.13807C8.32159 3.2631 8.49116 3.33333 8.66797 3.33333C8.84478 3.33333 9.01435 3.2631 9.13937 3.13807C9.2644 3.01305 9.33464 2.84348 9.33464 2.66667C9.33464 2.48986 9.2644 2.32029 9.13937 2.19526C9.01435 2.07024 8.84478 2 8.66797 2C8.49116 2 8.32159 2.07024 8.19656 2.19526C8.07154 2.32029 8.0013 2.48986 8.0013 2.66667Z" stroke="currentColor" stroke-width="2" stroke-linecap="round" stroke-linejoin="round"/>
<path d="M4 7.9987L5.33333 5.9987L8 5.33203L10 7.33203L12 7.9987" stroke="currentColor" stroke-width="2" stroke-linecap="round" stroke-linejoin="round"/>
</svg>
