<svg width="20" height="20" viewBox="0 0 20 20" fill="none" xmlns="http://www.w3.org/2000/svg">
<path fill-rule="evenodd" clip-rule="evenodd" d="M10.0013 1.04297C5.0538 1.04297 1.04297 5.0538 1.04297 10.0013C1.04297 14.9488 5.0538 18.9596 10.0013 18.9596C14.9488 18.9596 18.9596 14.9488 18.9596 10.0013C18.9596 5.0538 14.9488 1.04297 10.0013 1.04297ZM12.918 11.8763C12.6417 11.8763 12.3767 11.986 12.1814 12.1814C11.986 12.3767 11.8763 12.6417 11.8763 12.918C11.8763 13.1942 11.986 13.4592 12.1814 13.6545C12.3767 13.8499 12.6417 13.9596 12.918 13.9596C13.1942 13.9596 13.4592 13.8499 13.6545 13.6545C13.8499 13.4592 13.9596 13.1942 13.9596 12.918C13.9596 12.6417 13.8499 12.3767 13.6545 12.1814C13.4592 11.986 13.1942 11.8763 12.918 11.8763ZM6.04297 7.08464C6.04297 6.80837 6.15272 6.54342 6.34807 6.34807C6.54342 6.15272 6.80837 6.04297 7.08464 6.04297C7.3609 6.04297 7.62585 6.15272 7.8212 6.34807C8.01656 6.54342 8.1263 6.80837 8.1263 7.08464C8.1263 7.3609 8.01656 7.62585 7.8212 7.8212C7.62585 8.01656 7.3609 8.1263 7.08464 8.1263C6.80837 8.1263 6.54342 8.01656 6.34807 7.8212C6.15272 7.62585 6.04297 7.3609 6.04297 7.08464ZM12.893 6.2263C12.9502 6.1649 13.0192 6.11564 13.0959 6.08148C13.1725 6.04732 13.2553 6.02896 13.3392 6.02748C13.4231 6.026 13.5065 6.04143 13.5843 6.07287C13.6621 6.1043 13.7328 6.15109 13.7922 6.21044C13.8515 6.26979 13.8983 6.34048 13.9297 6.4183C13.9612 6.49613 13.9766 6.57948 13.9751 6.6634C13.9736 6.74732 13.9553 6.83008 13.9211 6.90675C13.887 6.98342 13.8377 7.05242 13.7763 7.10963L7.10963 13.7763C6.99116 13.8867 6.83445 13.9468 6.67253 13.9439C6.51062 13.9411 6.35613 13.8755 6.24162 13.761C6.12711 13.6465 6.06151 13.492 6.05866 13.3301C6.0558 13.1682 6.1159 13.0114 6.2263 12.893L12.893 6.2263Z" fill="currentColor"/>
</svg>
