<svg width="20" height="20" viewBox="0 0 20 20" fill="none" xmlns="http://www.w3.org/2000/svg">
<path d="M17 10.0981V18.3334H3V10.0981H0L10 0.833374L20 10.0981H17ZM13.53 9.09955L12.47 8.00837L6.47 14.1848L7.53 15.276L13.53 9.09955ZM8.63 8.42014C8.4 8.17308 8.08 8.03926 7.75 8.03926C7.42 8.03926 7.1 8.17308 6.87 8.42014C6.63 8.6569 6.5 8.98632 6.5 9.32602C6.5 9.66573 6.63 9.99514 6.87 10.2319C7.1 10.479 7.42 10.6128 7.75 10.6128C8.08 10.6128 8.4 10.479 8.63 10.2319C8.87 9.99514 9 9.66573 9 9.32602C9 8.98632 8.87 8.6569 8.63 8.42014ZM13.13 13.0525C12.9 12.8054 12.58 12.6716 12.25 12.6716C11.92 12.6716 11.6 12.8054 11.37 13.0525C11.13 13.2893 11 13.6187 11 13.9584C11 14.2981 11.13 14.6275 11.37 14.8643C11.6 15.1113 11.92 15.2451 12.25 15.2451C12.58 15.2451 12.9 15.1113 13.13 14.8643C13.37 14.6275 13.5 14.2981 13.5 13.9584C13.5 13.6187 13.37 13.2893 13.13 13.0525Z" fill="currentColor"/>
</svg>
