<svg width="20" height="20" viewBox="0 0 20 20" fill="none" xmlns="http://www.w3.org/2000/svg">
<path d="M16.3079 8.82546L9.53146 15.6019C8.22921 16.9042 6.11967 16.9042 4.81742 15.6019C3.51516 14.2996 3.51516 12.1901 4.81741 10.8879L12.1831 3.52216C12.5738 3.13146 13.1037 2.91196 13.6562 2.91196C14.2088 2.91196 14.7387 3.13146 15.1294 3.52216C15.5201 3.91286 15.7396 4.44276 15.7396 4.9953C15.7396 5.54783 15.5201 6.07773 15.1294 6.46843L8.9422 12.6556C8.61811 12.9797 8.08778 12.9797 7.76369 12.6556C7.4396 12.3315 7.4396 11.8012 7.76369 11.4771L13.3616 5.87918L12.4777 4.9953L6.87981 10.5932C6.48911 10.9839 6.26962 11.5138 6.26962 12.0664C6.26962 12.6189 6.48911 13.1488 6.87981 13.5395C7.27051 13.9302 7.80041 14.1497 8.35295 14.1497C8.90548 14.1497 9.43539 13.9302 9.82609 13.5395L16.0133 7.35232C17.3155 6.05006 17.3155 3.94053 16.0133 2.63827C14.711 1.33602 12.6015 1.33602 11.2992 2.63827L3.93353 10.004C2.14219 11.7953 2.14219 14.6944 3.93353 16.4858C5.72487 18.2771 8.62401 18.2771 10.4153 16.4858L17.1918 9.70934L16.3079 8.82546Z" fill="black" fill-opacity="0.4"/>
</svg>
