<svg width="22" height="22" viewBox="0 0 22 22" fill="none" xmlns="http://www.w3.org/2000/svg">
<path fill-rule="evenodd" clip-rule="evenodd" d="M1.78972 2.38814C1.78972 1.07286 2.85515 0.00585938 4.17044 0.00585938H11.6976C13.0144 0.00585938 14.0799 1.07286 14.0799 2.38814V7.86929C13.4666 8.26028 12.9445 8.7786 12.5491 9.38908C12.1538 9.99957 11.8943 10.6879 11.7883 11.4075C11.6823 12.1271 11.7324 12.861 11.935 13.5596C12.1376 14.2581 12.488 14.9049 12.9626 15.4561C11.9504 16.1024 11.1175 16.9934 10.5407 18.0467C9.9639 19.1 9.6619 20.2817 9.66258 21.4826C9.66258 21.6601 9.67987 21.833 9.71601 22.0011H2.57544C2.5503 22.0011 2.52515 22.0011 2.50001 21.998H1.20201C0.889433 21.998 0.589658 21.8738 0.368633 21.6528C0.147608 21.4318 0.0234375 21.132 0.0234375 20.8194C0.0234375 20.5069 0.147608 20.2071 0.368633 19.9861C0.589658 19.765 0.889433 19.6409 1.20201 19.6409H1.78972V8.83571H8.62073C8.88121 8.83571 9.13102 8.73224 9.31521 8.54805C9.49939 8.36386 9.60287 8.11405 9.60287 7.85357C9.60287 7.59309 9.49939 7.34328 9.31521 7.15909C9.13102 6.9749 8.88121 6.87143 8.62073 6.87143H1.78972V4.75H6.44115C6.70163 4.75 6.95145 4.64653 7.13563 4.46234C7.31982 4.27815 7.4233 4.02834 7.4233 3.76786C7.4233 3.50738 7.31982 3.25757 7.13563 3.07338C6.95145 2.88919 6.70163 2.78572 6.44115 2.78572H1.78972V2.38814ZM19.924 12.1467C19.924 12.9719 19.5962 13.7633 19.0127 14.3468C18.4292 14.9303 17.6378 15.2581 16.8126 15.2581C15.9874 15.2581 15.196 14.9303 14.6125 14.3468C14.029 13.7633 13.7012 12.9719 13.7012 12.1467C13.7012 11.3215 14.029 10.5301 14.6125 9.9466C15.196 9.3631 15.9874 9.03529 16.8126 9.03529C17.6378 9.03529 18.4292 9.3631 19.0127 9.9466C19.5962 10.5301 19.924 11.3215 19.924 12.1467ZM16.8126 16.2953C15.4372 16.2953 14.1182 16.8416 13.1457 17.8141C12.1732 18.7867 11.6269 20.1057 11.6269 21.481C11.6267 21.5492 11.6399 21.6168 11.6659 21.6799C11.6919 21.743 11.73 21.8004 11.7782 21.8487C11.8264 21.897 11.8836 21.9354 11.9466 21.9615C12.0096 21.9877 12.0772 22.0011 12.1454 22.0011H21.4797C21.6173 22.0011 21.7492 21.9465 21.8464 21.8493C21.9437 21.752 21.9983 21.6201 21.9983 21.4826C21.9983 20.8016 21.8642 20.1272 21.6036 19.4981C21.343 18.8689 20.961 18.2973 20.4794 17.8157C19.9979 17.3342 19.4262 16.9522 18.7971 16.6916C18.1679 16.431 17.4936 16.2969 16.8126 16.2969V16.2953Z" fill="currentColor"/>
</svg>
