<svg width="18" height="18" viewBox="0 0 18 18" fill="none" xmlns="http://www.w3.org/2000/svg">
<path d="M13.5 10.75H9.75V14.5C9.75 14.6989 9.67098 14.8897 9.53033 15.0303C9.38968 15.171 9.19891 15.25 9 15.25C8.80109 15.25 8.61032 15.171 8.46967 15.0303C8.32902 14.8897 8.25 14.6989 8.25 14.5V10.75H4.5C4.30109 10.75 4.11032 10.671 3.96967 10.5303C3.82902 10.3897 3.75 10.1989 3.75 10C3.75 9.80109 3.82902 9.61032 3.96967 9.46967C4.11032 9.32902 4.30109 9.25 4.5 9.25H8.25V5.5C8.25 5.30109 8.32902 5.11032 8.46967 4.96967C8.61032 4.82902 8.80109 4.75 9 4.75C9.19891 4.75 9.38968 4.82902 9.53033 4.96967C9.67098 5.11032 9.75 5.30109 9.75 5.5V9.25H13.5C13.6989 9.25 13.8897 9.32902 14.0303 9.46967C14.171 9.61032 14.25 9.80109 14.25 10C14.25 10.1989 14.171 10.3897 14.0303 10.5303C13.8897 10.671 13.6989 10.75 13.5 10.75Z" fill="currentColor"/>
</svg>
