<svg width="18" height="18" viewBox="0 0 18 18" fill="none" xmlns="http://www.w3.org/2000/svg">
<path d="M13.75 10H10V13.75C10 13.9489 9.92098 14.1397 9.78033 14.2803C9.63968 14.421 9.44891 14.5 9.25 14.5C9.05109 14.5 8.86032 14.421 8.71967 14.2803C8.57902 14.1397 8.5 13.9489 8.5 13.75V10H4.75C4.55109 10 4.36032 9.92098 4.21967 9.78033C4.07902 9.63968 4 9.44891 4 9.25C4 9.05109 4.07902 8.86032 4.21967 8.71967C4.36032 8.57902 4.55109 8.5 4.75 8.5H8.5V4.75C8.5 4.55109 8.57902 4.36032 8.71967 4.21967C8.86032 4.07902 9.05109 4 9.25 4C9.44891 4 9.63968 4.07902 9.78033 4.21967C9.92098 4.36032 10 4.55109 10 4.75V8.5H13.75C13.9489 8.5 14.1397 8.57902 14.2803 8.71967C14.421 8.86032 14.5 9.05109 14.5 9.25C14.5 9.44891 14.421 9.63968 14.2803 9.78033C14.1397 9.92098 13.9489 10 13.75 10Z" fill="currentColor"/>
</svg>
