<svg width="20" height="20" viewBox="0 0 20 20" fill="none" xmlns="http://www.w3.org/2000/svg">
<path d="M16.633 8.55037L15.8711 8.04242L15.871 8.04237C15.5377 7.82063 15.0875 7.91037 14.8655 8.24391C14.6437 8.57671 14.7335 9.02692 15.0664 9.24883L17.0977 10.6032L17.0978 10.6033C17.2362 10.6953 17.3944 10.7342 17.5487 10.7233V10.7234L17.5564 10.7228C17.642 10.7163 17.7239 10.6946 17.7987 10.6605C17.9184 10.6067 18.025 10.5196 18.1032 10.4023L19.4576 8.3711L19.4576 8.37101C19.6794 8.03768 19.5896 7.58749 19.2561 7.36554C18.9233 7.14368 18.4731 7.23355 18.2512 7.56641L17.9886 7.96021C17.0659 4.05754 13.5578 1.15 9.375 1.15C4.4904 1.15 0.525 5.1154 0.525 10C0.525 14.8846 4.4904 18.85 9.375 18.85C11.3011 18.85 13.0845 18.233 14.5384 17.1868L14.5386 17.1867C14.8626 16.9526 14.9366 16.4996 14.7031 16.1748L14.703 16.1746C14.4689 15.8499 14.0158 15.7759 13.6909 16.0101C12.4761 16.8845 10.9852 17.4 9.375 17.4C5.29085 17.4 1.975 14.0841 1.975 10C1.975 5.91585 5.29085 2.6 9.375 2.6C12.9626 2.6 15.9577 5.1591 16.633 8.55037Z" fill="currentColor" stroke="currentColor" stroke-width="0.2"/>
</svg>
