<svg width="22" height="22" viewBox="0 0 22 22" fill="none" xmlns="http://www.w3.org/2000/svg">
<path d="M10.6904 4.50337L12.4091 2.78462C12.856 2.33772 13.3866 1.98321 13.9705 1.74135C14.5544 1.49949 15.1802 1.375 15.8123 1.375C16.4443 1.375 17.0701 1.49949 17.654 1.74135C18.2379 1.98321 18.7685 2.33772 19.2154 2.78462C19.6623 3.23153 20.0168 3.76208 20.2587 4.34599C20.5005 4.9299 20.625 5.55573 20.625 6.18775C20.625 6.81976 20.5005 7.44559 20.2587 8.0295C20.0168 8.61341 19.6623 9.14397 19.2154 9.59087L15.7779 13.0284C15.331 13.4753 14.8004 13.8298 14.2165 14.0717C13.6326 14.3136 13.0068 14.4381 12.3748 14.4381C11.7427 14.4381 11.1169 14.3136 10.533 14.0717C9.94907 13.8298 9.41852 13.4753 8.97163 13.0284C8.78957 12.8328 8.69043 12.5742 8.69504 12.307C8.69966 12.0398 8.80767 11.7848 8.99638 11.5956C9.18559 11.4069 9.44058 11.2989 9.70776 11.2943C9.97495 11.2897 10.2335 11.3888 10.4291 11.5709C10.6843 11.8269 10.9876 12.03 11.3215 12.1686C11.6553 12.3072 12.0133 12.3786 12.3748 12.3786C12.7363 12.3786 13.0942 12.3072 13.4281 12.1686C13.7619 12.03 14.0652 11.8269 14.3204 11.5709L17.7579 8.13337C18.2488 7.61232 18.5174 6.92052 18.5067 6.20472C18.4961 5.48892 18.207 4.80542 17.7008 4.29922C17.1946 3.79302 16.5111 3.50392 15.7953 3.49326C15.0795 3.4826 14.3877 3.75121 13.8666 4.24212L12.1479 5.96087C11.9523 6.14293 11.6937 6.24207 11.4265 6.23746C11.1593 6.23284 10.9043 6.12483 10.7151 5.93612C10.5264 5.74692 10.4184 5.49192 10.4138 5.22474C10.4092 4.95755 10.5083 4.69898 10.6904 4.50337ZM4.24163 17.7584C4.49685 18.0144 4.80008 18.2175 5.13395 18.3561C5.46782 18.4947 5.82576 18.5661 6.18726 18.5661C6.54875 18.5661 6.90669 18.4947 7.24056 18.3561C7.57443 18.2175 7.87767 18.0144 8.13288 17.7584L9.85163 16.0396C10.0472 15.8576 10.3058 15.7584 10.573 15.763C10.8402 15.7676 11.0952 15.8757 11.2844 16.0644C11.4731 16.2536 11.5811 16.5086 11.5857 16.7758C11.5903 17.0429 11.4912 17.3015 11.3091 17.4971L9.59038 19.2159C9.14348 19.6628 8.61292 20.0173 8.02902 20.2591C7.44511 20.501 6.81928 20.6255 6.18726 20.6255C5.55524 20.6255 4.92941 20.501 4.3455 20.2591C3.76159 20.0173 3.23104 19.6628 2.78413 19.2159C2.33723 18.769 1.98272 18.2384 1.74086 17.6545C1.499 17.0706 1.37451 16.4448 1.37451 15.8127C1.37451 15.1807 1.499 14.5549 1.74086 13.971C1.98272 13.3871 2.33723 12.8565 2.78413 12.4096L6.22163 8.97212C6.66852 8.52519 7.19907 8.17066 7.78298 7.92878C8.36689 7.68689 8.99273 7.5624 9.62476 7.5624C10.2568 7.5624 10.8826 7.68689 11.4665 7.92878C12.0504 8.17066 12.581 8.52519 13.0279 8.97212C13.2099 9.16773 13.3091 9.4263 13.3045 9.69349C13.2999 9.96067 13.1918 10.2157 13.0031 10.4049C12.8139 10.5936 12.5589 10.7016 12.2917 10.7062C12.0246 10.7108 11.766 10.6117 11.5704 10.4296C11.3152 10.1736 11.0119 9.97048 10.6781 9.83188C10.3442 9.69328 9.98625 9.62194 9.62476 9.62194C9.26326 9.62194 8.90532 9.69328 8.57145 9.83188C8.23758 9.97048 7.93435 10.1736 7.67913 10.4296L4.24163 13.8671C3.98562 14.1223 3.78249 14.4256 3.64389 14.7594C3.50529 15.0933 3.43395 15.4513 3.43395 15.8127C3.43395 16.1742 3.50529 16.5322 3.64389 16.866C3.78249 17.1999 3.98562 17.5032 4.24163 17.7584Z" fill="#FF6100"/>
</svg>
