<svg width="22" height="22" viewBox="0 0 22 22" fill="none" xmlns="http://www.w3.org/2000/svg">
<path d="M16.3442 11.678C16.0875 11.1555 15.3634 10.7155 14.4009 11.458C13.09 12.503 11 12.503 11 12.503C11 12.503 8.91005 12.503 7.59921 11.458C6.63671 10.7155 5.91255 11.1555 5.65588 11.678C5.19755 12.5947 5.71088 13.0438 6.87505 13.7863C7.87421 14.428 9.24005 14.6663 10.12 14.758L9.38671 15.4913C8.34171 16.5272 7.33338 17.5263 6.64588 18.223C6.23338 18.6447 6.23338 19.3138 6.64588 19.708L6.77421 19.8547C7.18671 20.2672 7.86505 20.2672 8.27755 19.8547L11 17.123C12.0542 18.1588 13.0534 19.158 13.75 19.8547C14.1625 20.2672 14.8317 20.2672 15.2534 19.8547L15.3725 19.708C15.7942 19.3138 15.7942 18.6447 15.3725 18.223L12.6409 15.4913L11.9167 14.7488C12.7875 14.6663 14.135 14.4188 15.125 13.7863C16.2892 13.0438 16.8025 12.5947 16.3442 11.678ZM11 4.18884C12.265 4.18884 13.2917 5.21551 13.2917 6.47134C13.2917 7.73634 12.265 8.75384 11 8.75384C9.73505 8.75384 8.70838 7.73634 8.70838 6.47134C8.70838 5.21551 9.73505 4.18884 11 4.18884ZM11 11.1097C13.5667 11.1097 15.6384 9.03801 15.6384 6.47134C15.6384 5.24118 15.1497 4.0614 14.2798 3.19154C13.41 2.32169 12.2302 1.83301 11 1.83301C9.76988 1.83301 8.59011 2.32169 7.72025 3.19154C6.85039 4.0614 6.36171 5.24118 6.36171 6.47134C6.36171 9.03801 8.43338 11.1097 11 11.1097Z" fill="#FF6100"/>
</svg>
