<svg width="22" height="22" viewBox="0 0 22 22" fill="none" xmlns="http://www.w3.org/2000/svg">
<path d="M17.9234 2.74774C17.7027 2.76379 17.486 2.81557 17.2819 2.90105H17.2792C17.0832 2.97874 16.1517 3.37061 14.7354 3.96461L9.6603 6.10205C6.01861 7.63517 2.4388 9.14492 2.4388 9.14492L2.48142 9.12843C2.48142 9.12843 2.23461 9.20955 1.9768 9.38624C1.81752 9.48759 1.68047 9.6202 1.57392 9.77605C1.44742 9.96167 1.34567 10.2456 1.38348 10.5392C1.44536 11.0356 1.76711 11.3332 1.99811 11.4975C2.23186 11.6639 2.45461 11.7416 2.45461 11.7416H2.46011L5.81717 12.8725C5.96773 13.3559 6.84017 16.2241 7.04986 16.8848C7.17361 17.2794 7.29392 17.5262 7.44448 17.7146C7.51736 17.8109 7.60261 17.8913 7.70505 17.9559C7.7583 17.9869 7.81508 18.0114 7.87417 18.0288L7.8398 18.0206C7.85011 18.0233 7.85836 18.0316 7.86592 18.0343C7.89342 18.0419 7.91198 18.0446 7.94705 18.0501C8.47848 18.211 8.90542 17.881 8.90542 17.881L8.92948 17.8617L10.9115 16.057L14.2335 18.6056L14.3092 18.6379C15.0015 18.9418 15.7027 18.7727 16.0733 18.4743C16.4466 18.1739 16.5917 17.7896 16.5917 17.7896L16.6157 17.7277L19.1829 4.57649C19.2557 4.25199 19.2743 3.94811 19.1939 3.65317C19.1109 3.35468 18.9194 3.09795 18.6569 2.93336C18.4365 2.79938 18.181 2.73471 17.9234 2.74774ZM17.8539 4.15711C17.8512 4.20042 17.8594 4.19561 17.8402 4.2788V4.28636L15.2971 17.3007C15.2861 17.3193 15.2675 17.3599 15.2167 17.4004C15.163 17.4431 15.1204 17.4699 14.897 17.3812L10.8339 14.2661L8.37948 16.5032L8.89511 13.2101L15.5336 7.02261C15.8072 6.76824 15.7158 6.71461 15.7158 6.71461C15.735 6.40249 15.3026 6.62318 15.3026 6.62318L6.93161 11.809L6.92886 11.7952L2.91661 10.4443V10.4415L2.9063 10.4395C2.91333 10.4372 2.92022 10.4344 2.92692 10.4312L2.94892 10.4202L2.97023 10.4127C2.97023 10.4127 6.5528 8.90292 10.1945 7.3698C12.0177 6.60186 13.8547 5.82842 15.2675 5.23167C16.1054 4.87899 16.9442 4.52836 17.7838 4.1798C17.8402 4.1578 17.8134 4.15711 17.8539 4.15711Z" fill="#FF6100"/>
</svg>
