<svg width="22" height="22" viewBox="0 0 22 22" fill="none" xmlns="http://www.w3.org/2000/svg">
<path d="M5.33982 2C4.4551 2.00345 3.60761 2.35643 2.98202 2.98202C2.35643 3.60761 2.00345 4.4551 2 5.33982V16.6602C2.00345 17.5449 2.35643 18.3924 2.98202 19.018C3.60761 19.6436 4.4551 19.9966 5.33982 20H16.6602C17.5449 19.9966 18.3924 19.6436 19.018 19.018C19.6436 18.3924 19.9966 17.5449 20 16.6602V5.33982C19.9966 4.4551 19.6436 3.60761 19.018 2.98202C18.3924 2.35643 17.5449 2.00345 16.6602 2H5.33982ZM5.33982 3.63636H16.6602C16.8842 3.63506 17.1063 3.67823 17.3136 3.76338C17.5209 3.84852 17.7092 3.97395 17.8676 4.13239C18.0261 4.29083 18.1515 4.47914 18.2366 4.6864C18.3218 4.89366 18.3649 5.11575 18.3636 5.33982V16.6602C18.3649 16.8842 18.3218 17.1063 18.2366 17.3136C18.1515 17.5209 18.0261 17.7092 17.8676 17.8676C17.7092 18.0261 17.5209 18.1515 17.3136 18.2366C17.1063 18.3218 16.8842 18.3649 16.6602 18.3636H5.33982C5.11572 18.365 4.89358 18.322 4.68627 18.2368C4.47896 18.1517 4.29061 18.0263 4.13215 17.8679C3.97368 17.7094 3.84826 17.521 3.76315 17.3137C3.67805 17.1064 3.63495 16.8843 3.63636 16.6602V5.33982C3.63506 5.11575 3.67823 4.89366 3.76338 4.6864C3.84852 4.47914 3.97395 4.29083 4.13239 4.13239C4.29083 3.97395 4.47914 3.84852 4.6864 3.76338C4.89366 3.67823 5.11575 3.63506 5.33982 3.63636ZM10.7701 7.91545C10.1687 7.90973 9.65736 7.91545 9.37018 8.05618C9.17791 8.14946 9.03145 8.35973 9.12064 8.36955C9.23273 8.38591 9.48473 8.43991 9.61973 8.62236C9.79155 8.85555 9.78582 9.38327 9.78582 9.38327C9.78582 9.38327 9.88155 10.8339 9.55182 11.0164C9.32518 11.1407 9.01509 10.8879 8.34418 9.73427C8.00218 9.14027 7.74364 8.48491 7.74364 8.48491C7.74364 8.48491 7.69455 8.363 7.60618 8.29918C7.49736 8.21982 7.34682 8.19364 7.34682 8.19364L5.74564 8.20345C5.74564 8.20345 5.50591 8.21327 5.42 8.31555C5.33982 8.41127 5.41345 8.59945 5.41345 8.59945C5.41345 8.59945 6.66609 11.5302 8.08482 13.007C9.38573 14.3627 10.8625 14.2727 10.8625 14.2727H11.5335C11.5335 14.2727 11.7347 14.2506 11.837 14.1418C11.9335 14.0395 11.9303 13.8473 11.9303 13.8473C11.9303 13.8473 11.9172 12.9497 12.3328 12.8155C12.7452 12.6871 13.2688 13.6845 13.8285 14.0682C14.2539 14.3586 14.5763 14.2948 14.5763 14.2948L16.0727 14.2727C16.0727 14.2727 16.8525 14.2245 16.4818 13.6075C16.4532 13.5601 16.2675 13.1543 15.3732 12.323C14.4331 11.4541 14.5583 11.5948 15.689 10.0894C16.3763 9.17218 16.6512 8.61255 16.5645 8.36955C16.4826 8.14291 15.977 8.20345 15.977 8.20345L14.2924 8.21327C14.2924 8.21327 14.168 8.19691 14.0755 8.25173C14.012 8.29894 13.9613 8.36141 13.9283 8.43336C13.9283 8.43336 13.6599 9.14273 13.3048 9.74736C12.557 11.0188 12.2535 11.0892 12.1324 11.0098C11.8476 10.8241 11.918 10.2677 11.918 9.875C11.918 8.63791 12.1062 8.12655 11.5539 7.99318C11.3715 7.94818 11.2373 7.91955 10.7709 7.91545H10.7701Z" fill="#FF6100"/>
</svg>
