<svg width="22" height="22" viewBox="0 0 22 22" fill="none" xmlns="http://www.w3.org/2000/svg">
<path d="M17.4627 4.50056C16.6223 3.65166 15.6213 2.97859 14.5181 2.52061C13.4148 2.06263 12.2314 1.8289 11.0369 1.83306C6.03189 1.83306 1.95273 5.91223 1.95273 10.9172C1.95273 12.5214 2.37439 14.0797 3.16273 15.4547L1.87939 20.1664L6.69189 18.9014C8.02106 19.6256 9.51523 20.0106 11.0369 20.0106C16.0419 20.0106 20.1211 15.9314 20.1211 10.9264C20.1211 8.49723 19.1769 6.21473 17.4627 4.50056ZM11.0369 18.4706C9.68023 18.4706 8.35106 18.1039 7.18689 17.4164L6.91189 17.2514L4.05189 18.0031L4.81273 15.2164L4.62939 14.9322C3.87566 13.7286 3.47544 12.3374 3.47439 10.9172C3.47439 6.75556 6.86606 3.3639 11.0277 3.3639C13.0444 3.3639 14.9419 4.15223 16.3627 5.58223C17.0663 6.28253 17.6238 7.1155 18.003 8.03287C18.3822 8.95023 18.5756 9.93375 18.5719 10.9264C18.5902 15.0881 15.1986 18.4706 11.0369 18.4706ZM15.1802 12.8239C14.9511 12.7139 13.8327 12.1639 13.6311 12.0814C13.4202 12.0081 13.2736 11.9714 13.1177 12.1914C12.9619 12.4206 12.5311 12.9339 12.4027 13.0806C12.2744 13.2364 12.1369 13.2547 11.9077 13.1356C11.6786 13.0256 10.9452 12.7781 10.0836 12.0081C9.40523 11.4031 8.95606 10.6606 8.81856 10.4314C8.69023 10.2022 8.80023 10.0831 8.91939 9.9639C9.02023 9.86306 9.14856 9.69806 9.25856 9.56973C9.36856 9.4414 9.41439 9.34056 9.48773 9.1939C9.56106 9.03806 9.52439 8.90973 9.46939 8.79973C9.41439 8.68973 8.95606 7.5714 8.77273 7.11306C8.58939 6.67306 8.39689 6.72806 8.25939 6.7189H7.81939C7.66356 6.7189 7.42523 6.7739 7.21439 7.00306C7.01273 7.23223 6.42606 7.78223 6.42606 8.90056C6.42606 10.0189 7.24189 11.1006 7.35189 11.2472C7.46189 11.4031 8.95606 13.6947 11.2294 14.6756C11.7702 14.9139 12.1919 15.0514 12.5219 15.1522C13.0627 15.3264 13.5577 15.2989 13.9519 15.2439C14.3919 15.1797 15.2994 14.6939 15.4827 14.1622C15.6752 13.6306 15.6752 13.1814 15.6111 13.0806C15.5469 12.9797 15.4094 12.9339 15.1802 12.8239Z" fill="#FF6100"/>
</svg>
