<svg width="22" height="22" viewBox="0 0 22 22" fill="none" xmlns="http://www.w3.org/2000/svg">
<path d="M15.6667 14.3092C15.0756 14.3092 14.5467 14.5502 14.1422 14.9277L8.59667 11.5944C8.63556 11.4096 8.66667 11.2249 8.66667 11.0321C8.66667 10.8394 8.63556 10.6546 8.59667 10.4699L14.08 7.16867C14.5 7.57028 15.0522 7.81928 15.6667 7.81928C16.9578 7.81928 18 6.74297 18 5.40964C18 4.07631 16.9578 3 15.6667 3C14.3756 3 13.3333 4.07631 13.3333 5.40964C13.3333 5.60241 13.3644 5.78715 13.4033 5.97189L7.92 9.27309C7.5 8.87149 6.94778 8.62249 6.33333 8.62249C5.04222 8.62249 4 9.69879 4 11.0321C4 12.3655 5.04222 13.4418 6.33333 13.4418C6.94778 13.4418 7.5 13.1928 7.92 12.7912L13.4578 16.1325C13.4189 16.3012 13.3956 16.4779 13.3956 16.6546C13.3956 17.9478 14.4144 19 15.6667 19C16.9189 19 17.9378 17.9478 17.9378 16.6546C17.9378 15.3614 16.9189 14.3092 15.6667 14.3092Z" fill="currentColor"/>
</svg>
