<svg width="22" height="22" viewBox="0 0 22 22" fill="none" xmlns="http://www.w3.org/2000/svg">
<path fill-rule="evenodd" clip-rule="evenodd" d="M0 2.35714C0 1.06386 1.06857 0 2.35714 0H19.6429C20.9314 0 22 1.06543 22 2.35714V6.84043C22 13.3399 18.0557 19.4213 11.9256 21.813C11.6281 21.9344 11.3103 21.9984 10.989 22.0016C10.6751 21.9955 10.3651 21.9315 10.0744 21.813C3.94429 19.4213 0 13.3399 0 6.84043V2.35714ZM16.5943 7.084C16.7044 6.96969 16.7903 6.83431 16.8469 6.68599C16.9034 6.53766 16.9294 6.37944 16.9232 6.22083C16.9171 6.06222 16.879 5.90647 16.8112 5.76294C16.7434 5.61942 16.6474 5.49106 16.5287 5.38558C16.4101 5.2801 16.2714 5.19966 16.121 5.1491C15.9705 5.09854 15.8114 5.07889 15.6531 5.09134C15.4949 5.10378 15.3408 5.14807 15.2001 5.22153C15.0594 5.295 14.9349 5.39613 14.8343 5.51886L9.26829 11.7794L6.99286 10.0729C6.86904 9.97999 6.72814 9.91243 6.57821 9.87402C6.42828 9.83561 6.27226 9.8271 6.11904 9.84899C5.96582 9.87088 5.81842 9.92273 5.68524 10.0016C5.55206 10.0804 5.43572 10.1848 5.34286 10.3086C5.24999 10.4324 5.18243 10.5733 5.14402 10.7232C5.1056 10.8731 5.0971 11.0292 5.11899 11.1824C5.14088 11.3356 5.19273 11.483 5.27158 11.6162C5.35044 11.7494 5.45475 11.8657 5.57857 11.9586L8.72143 14.3157C8.95792 14.4928 9.25229 14.5746 9.54624 14.5449C9.84018 14.5152 10.1123 14.3762 10.3086 14.1554L16.5943 7.084Z" fill="currentColor"/>
</svg>
