<svg xmlns="http://www.w3.org/2000/svg" width="20" height="20" viewBox="0 0 20 20" fill="none">
<path d="M10.3933 16.0675C10.3375 16.0095 10.2931 15.9406 10.2629 15.8647C10.2327 15.7888 10.2171 15.7075 10.2171 15.6253C10.2171 15.5432 10.2327 15.4619 10.2629 15.386C10.2931 15.3101 10.3375 15.2412 10.3933 15.1832L14.7766 10.6253H3.00603C2.84664 10.6253 2.69378 10.5595 2.58108 10.4423C2.46838 10.3251 2.40506 10.1661 2.40506 10.0003C2.40506 9.83459 2.46838 9.67562 2.58108 9.55841C2.69378 9.4412 2.84664 9.37535 3.00603 9.37535H14.7766L10.3933 4.81753C10.2806 4.70026 10.2172 4.5412 10.2172 4.37535C10.2172 4.2095 10.2806 4.05044 10.3933 3.93316C10.5061 3.81588 10.6591 3.75 10.8185 3.75C10.978 3.75 11.1309 3.81588 11.2437 3.93316L16.6524 9.55816C16.7082 9.61621 16.7526 9.68514 16.7828 9.76101C16.813 9.83688 16.8286 9.91821 16.8286 10.0003C16.8286 10.0825 16.813 10.1638 16.7828 10.2397C16.7526 10.3156 16.7082 10.3845 16.6524 10.4425L11.2437 16.0675C11.1879 16.1256 11.1216 16.1717 11.0487 16.2032C10.9757 16.2347 10.8975 16.2508 10.8185 16.2508C10.7395 16.2508 10.6613 16.2347 10.5884 16.2032C10.5154 16.1717 10.4492 16.1256 10.3933 16.0675Z" fill="currentColor"/>
</svg>