<svg width="18" height="20" viewBox="0 0 18 20" fill="none" xmlns="http://www.w3.org/2000/svg">
<path d="M9.07788 5C7.7923 5 6.5356 5.38122 5.46668 6.09545C4.39776 6.80968 3.56464 7.82484 3.07267 9.01256C2.5807 10.2003 2.45198 11.5072 2.70278 12.7681C2.95358 14.029 3.57265 15.1872 4.48169 16.0962C5.39073 17.0052 6.54892 17.6243 7.8098 17.8751C9.07067 18.1259 10.3776 17.9972 11.5653 17.5052C12.753 17.0132 13.7682 16.1801 14.4824 15.1112C15.1967 14.0423 15.5779 12.7856 15.5779 11.5C15.5761 9.77665 14.8907 8.12441 13.6721 6.90582C12.4535 5.68722 10.8012 5.00182 9.07788 5ZM6.82788 9.5C6.97622 9.5 7.12122 9.54399 7.24456 9.6264C7.3679 9.70881 7.46403 9.82594 7.52079 9.96299C7.57756 10.1 7.59241 10.2508 7.56347 10.3963C7.53453 10.5418 7.4631 10.6754 7.35821 10.7803C7.25332 10.8852 7.11969 10.9567 6.9742 10.9856C6.82872 11.0145 6.67792 10.9997 6.54087 10.9429C6.40383 10.8861 6.28669 10.79 6.20428 10.6667C6.12187 10.5433 6.07788 10.3983 6.07788 10.25C6.07788 10.0511 6.1569 9.86032 6.29755 9.71967C6.43821 9.57902 6.62897 9.5 6.82788 9.5ZM12.0104 13.25C11.3673 14.3619 10.2985 15 9.07788 15C7.85726 15 6.78851 14.3625 6.14538 13.25C6.10921 13.1931 6.08492 13.1295 6.07397 13.0629C6.06303 12.9964 6.06565 12.9283 6.0817 12.8628C6.09774 12.7973 6.12687 12.7357 6.16733 12.6818C6.20778 12.6278 6.25874 12.5826 6.31712 12.5489C6.3755 12.5151 6.44011 12.4935 6.50705 12.4854C6.57399 12.4773 6.64189 12.4828 6.70665 12.5016C6.77142 12.5204 6.83171 12.552 6.88391 12.5947C6.9361 12.6374 6.97913 12.6902 7.01038 12.75C7.47726 13.5569 8.21101 14 9.07788 14C9.94476 14 10.6785 13.5562 11.1454 12.75C11.1766 12.6902 11.2197 12.6374 11.2719 12.5947C11.3241 12.552 11.3844 12.5204 11.4491 12.5016C11.5139 12.4828 11.5818 12.4773 11.6487 12.4854C11.7157 12.4935 11.7803 12.5151 11.8386 12.5489C11.897 12.5826 11.948 12.6278 11.9884 12.6818C12.0289 12.7357 12.058 12.7973 12.0741 12.8628C12.0901 12.9283 12.0927 12.9964 12.0818 13.0629C12.0709 13.1295 12.0466 13.1931 12.0104 13.25ZM11.3279 11C11.1795 11 11.0345 10.956 10.9112 10.8736C10.7879 10.7912 10.6917 10.6741 10.635 10.537C10.5782 10.4 10.5634 10.2492 10.5923 10.1037C10.6212 9.9582 10.6927 9.82456 10.7976 9.71967C10.9024 9.61478 11.0361 9.54335 11.1816 9.51441C11.3271 9.48547 11.4779 9.50032 11.6149 9.55709C11.7519 9.61386 11.8691 9.70999 11.9515 9.83332C12.0339 9.95666 12.0779 10.1017 12.0779 10.25C12.0779 10.4489 11.9989 10.6397 11.8582 10.7803C11.7176 10.921 11.5268 11 11.3279 11Z" fill="white"/>
</svg>
