<svg width="20" height="22" viewBox="0 0 20 22" fill="none" xmlns="http://www.w3.org/2000/svg">
<path d="M9.44527 1.17908L1.12927 9.49508C1.0192 9.60487 0.944172 9.74485 0.913689 9.89731C0.883206 10.0498 0.898635 10.2078 0.958025 10.3515C1.01741 10.4952 1.11809 10.618 1.24732 10.7045C1.37655 10.7909 1.52852 10.837 1.68398 10.8371H4.50155V20.2656C4.50155 20.474 4.58434 20.6739 4.73169 20.8212C4.87904 20.9686 5.07889 21.0514 5.28727 21.0514H14.7158C14.9242 21.0514 15.1241 20.9686 15.2714 20.8212C15.4188 20.6739 15.5016 20.474 15.5016 20.2656V10.8371H18.3191C18.4746 10.837 18.6266 10.7909 18.7558 10.7045C18.885 10.618 18.9857 10.4952 19.0451 10.3515C19.1045 10.2078 19.1199 10.0498 19.0894 9.89731C19.0589 9.74485 18.9839 9.60487 18.8738 9.49508L10.5578 1.17908C10.4849 1.1059 10.3981 1.04785 10.3027 1.00824C10.2072 0.968631 10.1049 0.948242 10.0016 0.948242C9.8982 0.948242 9.79587 0.968631 9.70041 1.00824C9.60496 1.04785 9.51825 1.1059 9.44527 1.17908Z" fill="currentColor"/>
</svg>
