<svg width="22" height="22" viewBox="0 0 22 22" fill="none" xmlns="http://www.w3.org/2000/svg">
<path fill-rule="evenodd" clip-rule="evenodd" d="M10.9952 0.0152433C9.92821 0.000338092 8.86891 0.197618 7.87884 0.59562C6.88876 0.993622 5.98766 1.58441 5.22787 2.33366C4.46808 3.08291 3.86476 3.97568 3.45297 4.9601C3.04117 5.94452 2.82912 7.00095 2.82912 8.06803C2.82912 9.13511 3.04117 10.1915 3.45297 11.176C3.86476 12.1604 4.46808 13.0532 5.22787 13.8024C5.98766 14.5516 6.88876 15.1424 7.87884 15.5404C8.86891 15.9384 9.92821 16.1357 10.9952 16.1208C13.1311 16.1208 15.1796 15.2723 16.6899 13.762C18.2003 12.2516 19.0487 10.2032 19.0487 8.06724C19.0487 5.9313 18.2003 3.88285 16.6899 2.37251C15.1796 0.862171 13.1311 0.0136719 10.9952 0.0136719V0.0152433ZM11.3142 3.82282L12.3875 5.98196C12.4113 6.03643 12.4492 6.0836 12.4972 6.11866C12.5453 6.15372 12.6017 6.17541 12.6609 6.18153L15.0432 6.54296C15.1114 6.55168 15.1757 6.57968 15.2286 6.62368C15.2814 6.66768 15.3206 6.72584 15.3416 6.79135C15.3625 6.85685 15.3644 6.92697 15.3469 6.99348C15.3294 7.05999 15.2932 7.12012 15.2428 7.16682L13.4859 8.83882C13.4597 8.88876 13.4461 8.9443 13.4461 9.00067C13.4461 9.05705 13.4597 9.11259 13.4859 9.16253L13.8222 11.5322C13.8363 11.6005 13.8304 11.6714 13.8052 11.7363C13.78 11.8013 13.7366 11.8576 13.6801 11.8984C13.6237 11.9393 13.5566 11.9629 13.487 11.9666C13.4174 11.9702 13.3483 11.9536 13.2879 11.9188L11.1665 10.7968C11.1114 10.7719 11.0517 10.7589 10.9913 10.7589C10.9308 10.7589 10.8711 10.7719 10.816 10.7968L8.69461 11.9188C8.63422 11.9536 8.56507 11.9702 8.49548 11.9666C8.42589 11.9629 8.35882 11.9393 8.30236 11.8984C8.2459 11.8576 8.20246 11.8013 8.17726 11.7363C8.15206 11.6714 8.14618 11.6005 8.16033 11.5322L8.5579 9.16253C8.57493 9.10757 8.5781 9.04926 8.56713 8.99278C8.55616 8.9363 8.5314 8.88341 8.49504 8.83882L6.73661 7.15424C6.68938 7.10709 6.65613 7.04777 6.64055 6.98287C6.62496 6.91798 6.62765 6.85003 6.64832 6.78657C6.66899 6.72311 6.70682 6.66661 6.75763 6.62333C6.80844 6.58005 6.87024 6.55169 6.93618 6.54139L9.32004 6.1941C9.37919 6.18798 9.43566 6.16629 9.4837 6.13123C9.53173 6.09617 9.56961 6.049 9.59347 5.99453L10.6668 3.83539C10.6953 3.7741 10.7405 3.72206 10.7972 3.68518C10.8539 3.6483 10.9197 3.62805 10.9873 3.62674C11.0549 3.62543 11.1216 3.64311 11.1796 3.67777C11.2377 3.71243 11.2848 3.76268 11.3158 3.82282H11.3142ZM19.3285 13.6254C17.9741 15.6549 15.9266 17.1214 13.5692 17.7504L15.788 21.5941C15.8657 21.7287 15.9815 21.8373 16.1208 21.9061C16.2601 21.9749 16.4167 22.0008 16.5707 21.9806C16.7248 21.9605 16.8694 21.8951 16.9863 21.7927C17.1032 21.6903 17.1871 21.5556 17.2275 21.4055L18.0289 18.4214L21.0115 19.2212C21.1615 19.2613 21.3201 19.256 21.4671 19.2059C21.6142 19.1559 21.7431 19.0634 21.8376 18.9402C21.9321 18.8169 21.988 18.6684 21.9981 18.5134C22.0083 18.3584 21.9722 18.2039 21.8946 18.0694L19.33 13.6254H19.3285ZM8.42904 17.752C6.07134 17.1254 4.02274 15.6611 2.66661 13.6332L0.105185 18.0694C0.0275526 18.2039 -0.00846644 18.3584 0.00167803 18.5134C0.0118225 18.6684 0.0676753 18.8169 0.16218 18.9402C0.256686 19.0634 0.385603 19.1559 0.532646 19.2059C0.679689 19.256 0.83826 19.2613 0.988327 19.2212L3.97247 18.4214L4.77233 21.4055C4.81266 21.5556 4.89658 21.6903 5.01347 21.7927C5.13036 21.8951 5.27499 21.9605 5.42905 21.9806C5.58311 22.0008 5.7397 21.9749 5.87902 21.9061C6.01834 21.8373 6.13413 21.7287 6.21175 21.5941L8.42904 17.752Z" fill="currentColor"/>
</svg>
