<svg width="20" height="20" viewBox="0 0 20 20" fill="none" xmlns="http://www.w3.org/2000/svg">
<g clip-path="url(#clip0_2501_26412)">
<path d="M11.7644 14.1778C11.9035 14.2493 12.0426 14.2849 12.1842 14.2849C12.538 14.2849 12.7644 14.0597 12.8304 13.9937L14.2306 12.5935C14.4327 12.3914 14.6386 12.2969 14.8274 12.2969C15.0602 12.2969 15.2614 12.4426 15.3985 12.5902L15.3984 12.5902L15.4017 12.5936L17.6593 14.8474C17.8681 15.0562 17.9583 15.2599 17.9568 15.4539C17.9553 15.6489 17.8609 15.8605 17.6463 16.0838L17.645 16.0851C17.4903 16.251 17.3276 16.41 17.152 16.5781L17.1514 16.5787C17.1367 16.5929 17.122 16.6072 17.1073 16.6215C16.8601 16.8614 16.5996 17.1144 16.3622 17.3981C15.957 17.8339 15.4785 18.0372 14.8498 18.0372C14.7905 18.0372 14.7266 18.0337 14.6628 18.0299C13.4601 17.9529 12.3366 17.4828 11.482 17.0761C9.16972 15.9571 7.13978 14.3697 5.45508 12.3541C4.06573 10.6816 3.1341 9.12874 2.51847 7.46727L2.51832 7.46686C2.13673 6.44807 1.99624 5.63989 2.05408 4.91176C2.09651 4.44292 2.27487 4.05495 2.6132 3.71663L4.00515 2.32468C4.20518 2.13183 4.4149 2.04226 4.60644 2.04226C4.7928 2.04226 4.99459 2.13055 5.19119 2.3306L5.19109 2.3307L5.19545 2.33473C5.4106 2.53383 5.61457 2.74122 5.83166 2.96196C5.86487 2.99573 5.89838 3.02981 5.9323 3.06422C5.99621 3.13001 6.06101 3.19575 6.12591 3.26158L6.12713 3.26282C6.19183 3.32844 6.25663 3.39418 6.32139 3.46079L6.32138 3.4608L6.32262 3.46204L7.43832 4.57774C7.65729 4.79671 7.75364 5.00266 7.75364 5.18946C7.75364 5.37627 7.65729 5.58221 7.43832 5.80119C7.37993 5.85958 7.32161 5.91884 7.2637 5.97768L7.26352 5.97787C7.20543 6.0369 7.14775 6.0955 7.09013 6.15312L7.08966 6.1536C7.06353 6.18001 7.03754 6.20629 7.01168 6.23245C6.69202 6.55582 6.39136 6.85997 6.06233 7.1513L6.06218 7.15112L6.05681 7.1565L6.03809 7.17522C5.86492 7.34839 5.78523 7.5251 5.7642 7.69622C5.74356 7.86415 5.78094 8.01504 5.82069 8.13429C5.82374 8.14344 5.82677 8.15101 5.82861 8.15561L5.82883 8.15616L5.83192 8.16424L5.83161 8.16435L5.83511 8.17274C6.12886 8.87852 6.53623 9.54737 7.16679 10.3403L7.16754 10.3412C8.29788 11.7353 9.49064 12.8193 10.8062 13.6548C10.9462 13.746 11.0949 13.8211 11.2313 13.8901C11.2584 13.9038 11.2851 13.9172 11.311 13.9305L11.3121 13.931C11.462 14.006 11.5952 14.0746 11.7127 14.1493L11.7123 14.1499L11.7239 14.1557C11.7258 14.1566 11.7275 14.1575 11.7296 14.1587C11.732 14.16 11.7347 14.1616 11.7384 14.1636L11.7391 14.164C11.7452 14.1675 11.7541 14.1726 11.7644 14.1778ZM11.7644 14.1778C11.7642 14.1777 11.764 14.1776 11.7638 14.1775L11.821 14.0663L11.7651 14.1781C11.7649 14.178 11.7646 14.1779 11.7644 14.1778ZM4.55154 13.0905L4.55174 13.0908C6.34504 15.2344 8.50434 16.9228 10.969 18.1174L10.97 18.1179C11.9052 18.5611 13.1697 19.094 14.5834 19.1855L14.5861 19.1856L14.5971 19.1861C14.6789 19.1897 14.7606 19.1932 14.8461 19.1932C15.8108 19.1932 16.5926 18.8584 17.2271 18.1707C17.231 18.1669 17.243 18.1547 17.2541 18.138C17.4504 17.902 17.672 17.6871 17.91 17.4562C17.9272 17.4396 17.9444 17.4229 17.9617 17.406C18.1382 17.2371 18.3192 17.0599 18.493 16.8785C18.9103 16.4435 19.126 15.9418 19.125 15.4359C19.124 14.9297 18.906 14.4339 18.4837 14.0116L16.2353 11.7633C16.235 11.763 16.2348 11.7627 16.2345 11.7624C15.8329 11.3455 15.3453 11.1184 14.8274 11.1184C14.3093 11.1184 13.8184 11.3456 13.4062 11.7578L12.1327 13.0312C12.0332 12.9769 11.9336 12.9271 11.8408 12.8807L11.8395 12.88C11.6896 12.8051 11.5563 12.7365 11.4388 12.6617L11.4387 12.6617C10.2315 11.8951 9.13323 10.8941 8.08095 9.60394C7.57552 8.96413 7.2318 8.42634 6.98852 7.88698C7.31849 7.58453 7.6286 7.27062 7.92686 6.96533L7.92728 6.96491C8.03876 6.84971 8.15409 6.73437 8.27028 6.61818C8.69273 6.19574 8.92839 5.69747 8.92839 5.18198C8.92839 4.66702 8.69692 4.16858 8.27008 3.74557C8.27001 3.7455 8.26994 3.74543 8.26987 3.74536L7.15459 2.63008C7.02777 2.50325 6.90793 2.3799 6.78412 2.25244L6.77402 2.24204C6.52713 1.98767 6.26731 1.72403 6.01054 1.48607C5.60509 1.08903 5.12216 0.875 4.60644 0.875C4.09371 0.875 3.60719 1.0896 3.18735 1.48983L3.18732 1.48981L3.18521 1.49192L1.78497 2.89215C1.25508 3.42205 0.953828 4.06734 0.891436 4.81212L0.891394 4.81265C0.818399 5.73085 0.98823 6.70051 1.41916 7.86105C2.08018 9.65518 3.07667 11.3184 4.55154 13.0905Z" fill="black" stroke="black" stroke-width="0.25"/>
</g>
<defs>
</defs>
</svg>
