<svg width="16" height="16" viewBox="0 0 16 16" fill="none" xmlns="http://www.w3.org/2000/svg">
<path fill-rule="evenodd" clip-rule="evenodd" d="M1.80159 7.65081C5.37999 6.02519 7.76219 4.945 8.9584 4.42095C12.363 2.93436 13.0787 2.67769 13.5388 2.66699C13.641 2.66699 13.8659 2.68838 14.0193 2.81672C14.142 2.92367 14.1726 3.0627 14.1931 3.16965C14.2135 3.2766 14.234 3.50119 14.2135 3.67231C14.0295 5.70434 13.232 10.6347 12.8231 12.902C12.6493 13.8645 12.3119 14.1854 11.9847 14.2175C11.269 14.2816 10.7271 13.7255 10.0421 13.2549C8.95839 12.517 8.35518 12.0571 7.3021 11.3298C6.08545 10.4956 6.8727 10.0358 7.56793 9.28713C7.75196 9.09462 10.8907 6.10005 10.9521 5.83268C10.9623 5.80059 10.9623 5.67225 10.8907 5.60809C10.8192 5.54392 10.7169 5.56531 10.6351 5.5867C10.5227 5.60809 8.80503 6.80591 5.46178 9.16948C4.97103 9.52241 4.5314 9.69353 4.13266 9.68284C3.69303 9.67214 2.85466 9.42616 2.22077 9.21226C1.45397 8.95558 0.840531 8.81655 0.891651 8.36737C0.922323 8.13208 1.22904 7.89679 1.80159 7.65081Z" fill="currentColor"/>
</svg>
