<svg width="20" height="20" viewBox="0 0 20 20" fill="none" xmlns="http://www.w3.org/2000/svg">

<path d="M10.0003 1.66699C14.6028 1.66699 18.3337 5.39783 18.3337 10.0003C18.3337 14.6028 14.6028 18.3337 10.0003 18.3337C5.39783 18.3337 1.66699 14.6028 1.66699 10.0003C1.66699 5.39783 5.39783 1.66699 10.0003 1.66699ZM10.0003 5.00033C9.77931 5.00033 9.56735 5.08812 9.41107 5.2444C9.25479 5.40068 9.16699 5.61264 9.16699 5.83366V10.0003C9.16704 10.2213 9.25487 10.4332 9.41116 10.5895L11.9112 13.0895C12.0683 13.2413 12.2788 13.3253 12.4973 13.3234C12.7158 13.3215 12.9248 13.2338 13.0793 13.0793C13.2338 12.9248 13.3215 12.7158 13.3234 12.4973C13.3253 12.2788 13.2413 12.0683 13.0895 11.9112L10.8337 9.65533V5.83366C10.8337 5.61264 10.7459 5.40068 10.5896 5.2444C10.4333 5.08812 10.2213 5.00033 10.0003 5.00033Z" fill="currentColor"/>

</svg>
