<svg width="20" height="20" viewBox="0 0 20 20" fill="none" xmlns="http://www.w3.org/2000/svg">
<path d="M10.0007 1.66675C6.31732 1.66675 3.33398 2.08341 3.33398 5.00008V12.9167C3.33398 14.5251 4.64232 15.8334 6.25065 15.8334L5.00065 17.0834V17.5001H15.0007V17.0834L13.7507 15.8334C15.359 15.8334 16.6673 14.5251 16.6673 12.9167V5.00008C16.6673 2.08341 13.684 1.66675 10.0007 1.66675ZM6.25065 14.1667C5.55898 14.1667 5.00065 13.6084 5.00065 12.9167C5.00065 12.2251 5.55898 11.6667 6.25065 11.6667C6.94232 11.6667 7.50065 12.2251 7.50065 12.9167C7.50065 13.6084 6.94232 14.1667 6.25065 14.1667ZM9.16732 9.16675H5.00065V5.00008H9.16732V9.16675ZM13.7507 14.1667C13.059 14.1667 12.5007 13.6084 12.5007 12.9167C12.5007 12.2251 13.059 11.6667 13.7507 11.6667C14.4423 11.6667 15.0007 12.2251 15.0007 12.9167C15.0007 13.6084 14.4423 14.1667 13.7507 14.1667ZM15.0007 9.16675H10.834V5.00008H15.0007V9.16675Z" fill="currentColor"/>
</svg>
