<svg width="16" height="16" viewBox="0 0 16 16" fill="none" xmlns="http://www.w3.org/2000/svg">
<path d="M8.63978 12.4357C3.77756 12.4357 1.00423 9.10233 0.888672 3.55566H3.32423C3.40423 7.62678 5.19978 9.35122 6.622 9.70678V3.55566H8.91534V7.06678C10.3198 6.91566 11.7953 5.31566 12.2931 3.55566H14.5864C14.3989 4.46845 14.025 5.33271 13.4881 6.09439C12.9513 6.85607 12.263 7.49879 11.4664 7.98233C12.3556 8.42416 13.141 9.04953 13.7707 9.81717C14.4005 10.5848 14.8603 11.4773 15.1198 12.4357H12.5953C12.3624 11.6032 11.8889 10.8581 11.2343 10.2936C10.5797 9.72907 9.77298 9.37034 8.91534 9.26233V12.4357H8.63978Z" fill="currentColor"/>
</svg>
