<svg width="15" height="16" viewBox="0 0 15 16" fill="none" xmlns="http://www.w3.org/2000/svg">
<path d="M14.6221 3.69616L14.6218 3.69496C14.5159 3.2174 14.2689 2.78914 13.9161 2.45986C13.8154 2.36579 13.6963 2.26961 13.5587 2.18731L13.5563 2.18505C13.5328 2.16305 13.5087 2.14987 13.4953 2.14331L13.4948 2.14288L13.4803 2.13386C13.4782 2.13252 13.4759 2.13114 13.4737 2.12972C13.4295 2.10215 13.3636 2.0611 13.2926 2.03901L13.2673 2.03111H13.2641C12.9066 1.86276 12.5161 1.77156 12.0794 1.77156H11.2404V1.29008C11.2404 1.03544 11.0258 0.825 10.7547 0.825C10.5122 0.825 10.2689 1.00862 10.2689 1.29008V1.74103H4.74743V1.29008C4.74743 1.0296 4.51034 0.825 4.26168 0.825C4.01925 0.825 3.77593 1.00862 3.77593 1.29008V1.74103H2.93692C2.60387 1.74103 2.27188 1.80635 1.9746 1.92062L1.97459 1.92062L1.97337 1.9211C1.64504 2.05014 1.34743 2.22908 1.10021 2.45986C0.959002 2.59168 0.837014 2.73844 0.733757 2.88303L0.733587 2.8829L0.728955 2.89011C0.625872 3.05049 0.538253 3.21358 0.467777 3.39449L0.467711 3.39447L0.466033 3.39916L0.463896 3.40515C0.432922 3.49186 0.396438 3.594 0.37734 3.69901C0.342512 3.86251 0.325 4.02652 0.325 4.19084V12.7557C0.325 13.4346 0.626548 14.0445 1.08386 14.4714C1.55842 14.9144 2.20646 15.175 2.90421 15.175H12.0958C12.8113 15.175 13.459 14.8982 13.9161 14.4714C14.391 14.0282 14.675 13.4178 14.675 12.7557V4.19084C14.675 4.02557 14.6573 3.86061 14.6221 3.69616ZM1.31285 4.17557C1.31285 4.06853 1.32704 3.97405 1.34355 3.86617C1.34928 3.82871 1.36142 3.78729 1.37896 3.73636C1.38375 3.72245 1.38933 3.7068 1.39527 3.69015C1.40723 3.65663 1.42063 3.61906 1.43194 3.58342C1.4893 3.46545 1.56098 3.35806 1.63534 3.26072C1.65533 3.23597 1.67572 3.21369 1.70016 3.18706L1.70145 3.18566C1.72287 3.16234 1.74752 3.13549 1.77275 3.10483C1.85526 3.02945 1.95239 2.96387 2.06266 2.89032C2.31596 2.75244 2.59584 2.67118 2.90421 2.67118H3.74322V3.12214C3.74322 3.37677 3.95781 3.58721 4.22897 3.58721C4.4714 3.58721 4.71472 3.40359 4.71472 3.12214V2.67118H10.318V3.12214C10.318 3.37677 10.5326 3.58721 10.8037 3.58721C11.0462 3.58721 11.2895 3.40359 11.2895 3.12214V2.67118H12.1285C12.4398 2.67118 12.7346 2.75393 12.9681 2.88905C13.083 2.96565 13.1837 3.03352 13.2684 3.11266C13.4903 3.3198 13.6482 3.57701 13.7061 3.86976C13.7222 3.97532 13.7362 4.08435 13.7362 4.17557V5.25248H1.31285V4.17557ZM13.7526 12.7405C13.7526 13.164 13.5774 13.5455 13.2848 13.8186C12.9912 14.0927 12.5763 14.2601 12.1285 14.2601H2.93692C2.48912 14.2601 2.07427 14.0927 1.78063 13.8186C1.48738 13.5449 1.31285 13.1631 1.31285 12.7557V6.16737H13.7526V12.7405Z" fill="black" stroke="black" stroke-width="0.35"/>
</svg>
