<svg width="208" height="23" viewBox="0 0 208 23" fill="none" xmlns="http://www.w3.org/2000/svg">
<path d="M205.542 0.69333C205.574 0.521148 205.48 0.411578 205.26 0.36462L203.781 0.0124299C203.578 -0.034528 203.445 0.0515628 203.382 0.270703C203.194 1.22553 202.576 1.70294 201.527 1.70294C200.51 1.70294 199.892 1.22553 199.672 0.270703C199.61 0.0515628 199.477 -0.034528 199.273 0.0124299L197.794 0.36462C197.559 0.427231 197.465 0.552453 197.512 0.740288C197.638 1.71076 198.045 2.47775 198.733 3.04126C199.422 3.60476 200.353 3.88651 201.527 3.88651C202.701 3.88651 203.633 3.59693 204.321 3.01778C205.01 2.43862 205.417 1.66381 205.542 0.69333ZM205.237 21.9656C205.018 21.9656 204.908 21.8482 204.908 21.6134V16.2366C204.908 14.3583 204.979 12.206 205.12 9.77981L205.049 9.75633C204.298 11.3529 203.46 12.8947 202.537 14.3818L198.099 21.7308C198.005 21.8873 197.872 21.9656 197.7 21.9656H195.329C195.094 21.9656 194.977 21.8482 194.977 21.6134V5.53006C194.977 5.29527 195.094 5.17787 195.329 5.17787H197.442C197.677 5.17787 197.794 5.29527 197.794 5.53006V11.259C197.794 13.4974 197.724 15.6183 197.583 17.6219L197.653 17.6454C198.091 16.8158 198.874 15.3992 200.001 13.3956L204.58 5.41267C204.689 5.25614 204.83 5.17787 205.002 5.17787H207.374C207.593 5.17787 207.702 5.29527 207.702 5.53006V21.6134C207.702 21.8482 207.593 21.9656 207.374 21.9656H205.237Z" fill="white"/>
<path d="M189.813 15.7203C189.813 17.7708 189.233 19.3752 188.075 20.5335C186.917 21.6762 185.297 22.2475 183.215 22.2475C181.133 22.2475 179.513 21.6762 178.355 20.5335C177.196 19.3752 176.617 17.7708 176.617 15.7203V11.4001C176.617 9.34955 177.196 7.75296 178.355 6.6103C179.513 5.46765 181.133 4.89632 183.215 4.89632C185.297 4.89632 186.917 5.46765 188.075 6.6103C189.233 7.75296 189.813 9.34955 189.813 11.4001V15.7203ZM179.505 15.7203C179.505 16.9725 179.818 17.9273 180.444 18.5847C181.07 19.2422 181.994 19.5709 183.215 19.5709C184.436 19.5709 185.359 19.2422 185.985 18.5847C186.612 17.9273 186.925 16.9725 186.925 15.7203V11.4236C186.925 8.84084 185.688 7.54948 183.215 7.54948C180.742 7.54948 179.505 8.84084 179.505 11.4236V15.7203Z" fill="white"/>
<path d="M160.797 5.17622H166.738C168.585 5.17622 170.025 5.68494 171.058 6.70238C172.107 7.71981 172.631 9.12074 172.631 10.9052C172.631 12.7209 172.107 14.1375 171.058 15.1549C170.025 16.1567 168.585 16.6576 166.738 16.6576H163.286V21.6117C163.286 21.8465 163.177 21.9639 162.958 21.9639H160.797C160.578 21.9639 160.469 21.8465 160.469 21.6117V5.52841C160.469 5.29362 160.578 5.17622 160.797 5.17622ZM163.286 14.0279H166.409C167.552 14.0279 168.389 13.7775 168.921 13.2766C169.469 12.76 169.743 11.9696 169.743 10.9052C169.743 9.84078 169.469 9.05813 168.921 8.55724C168.389 8.05635 167.552 7.8059 166.409 7.8059H163.286V14.0279Z" fill="white"/>
<path d="M143.751 5.17622H156.03C156.265 5.17622 156.382 5.29362 156.382 5.52841V7.45371C156.382 7.67285 156.265 7.78242 156.03 7.78242H151.311V21.6117C151.311 21.8465 151.201 21.9639 150.982 21.9639H148.822C148.603 21.9639 148.493 21.8465 148.493 21.6117V7.78242H143.751C143.516 7.78242 143.398 7.67285 143.398 7.45371V5.52841C143.398 5.29362 143.516 5.17622 143.751 5.17622Z" fill="white"/>
<path d="M140.607 20.5335C139.136 21.6762 137.336 22.2475 135.207 22.2475C133.329 22.2475 131.779 21.7388 130.558 20.7214C129.337 19.7039 128.727 18.2169 128.727 16.2603V10.907C128.727 8.95041 129.337 7.46339 130.558 6.44595C131.779 5.41286 133.313 4.89632 135.16 4.89632C137.007 4.89632 138.682 5.42069 140.184 6.46943C140.357 6.59465 140.38 6.75118 140.255 6.93901L139.151 8.53561C139.042 8.72344 138.877 8.75475 138.658 8.62952C137.641 7.92515 136.475 7.57296 135.16 7.57296C134.033 7.57296 133.149 7.87036 132.507 8.46517C131.881 9.05998 131.568 9.88175 131.568 10.9305V16.1899C131.568 17.2542 131.881 18.0838 132.507 18.6787C133.149 19.2735 134.041 19.5709 135.183 19.5709C136.655 19.5709 137.954 19.1639 139.081 18.3499C139.284 18.2091 139.441 18.2404 139.551 18.4439L140.654 20.0405C140.779 20.2439 140.764 20.4083 140.607 20.5335Z" fill="white"/>
<path d="M125.825 21.9639H123.101C122.929 21.9639 122.788 21.8856 122.678 21.7291L117.842 14.7323L116.715 16.0471V21.6117C116.715 21.8465 116.605 21.9639 116.386 21.9639H114.273C114.038 21.9639 113.921 21.8465 113.921 21.6117V16.0471L112.794 14.7323L107.957 21.7291C107.863 21.8856 107.722 21.9639 107.534 21.9639H104.811C104.498 21.9639 104.427 21.823 104.599 21.5413L111.033 12.6192L105.186 5.59885C105.093 5.47363 105.061 5.37188 105.093 5.29362C105.139 5.21536 105.233 5.17622 105.374 5.17622H108.027C108.247 5.17622 108.395 5.24666 108.474 5.38754L113.921 12.5018V5.52841C113.921 5.29362 114.038 5.17622 114.273 5.17622H116.386C116.605 5.17622 116.715 5.29362 116.715 5.52841V12.5018L122.185 5.38754C122.264 5.24666 122.405 5.17622 122.608 5.17622H125.261C125.606 5.17622 125.676 5.3171 125.473 5.59885L119.626 12.6192L126.06 21.5413C126.232 21.823 126.153 21.9639 125.825 21.9639Z" fill="white"/>
<path d="M101.954 16.1899C101.954 18.1621 101.344 19.6648 100.123 20.6979C98.9176 21.731 97.4227 22.2475 95.6383 22.2475C93.8539 22.2475 92.3512 21.731 91.1303 20.6979C89.925 19.6491 89.3224 18.1386 89.3224 16.1664L89.2989 14.6637H86.5988V21.6136C86.5988 21.8484 86.4814 21.9658 86.2466 21.9658H84.11C83.8908 21.9658 83.7812 21.8484 83.7812 21.6136V5.53026C83.7812 5.29547 83.8908 5.17807 84.11 5.17807H86.2466C86.4814 5.17807 86.5988 5.29547 86.5988 5.53026V12.034H89.2989L89.3224 10.9305C89.3224 8.95823 89.925 7.46339 91.1303 6.44595C92.3512 5.41286 93.8539 4.89632 95.6383 4.89632C97.4227 4.89632 98.9176 5.41286 100.123 6.44595C101.344 7.46339 101.954 8.95823 101.954 10.9305V16.1899ZM92.2103 16.1664C92.2103 17.2934 92.5312 18.1465 93.173 18.7256C93.8304 19.2891 94.6522 19.5709 95.6383 19.5709C96.6244 19.5709 97.4384 19.2891 98.0801 18.7256C98.7219 18.1465 99.0428 17.2934 99.0428 16.1664V10.954C99.0428 9.78001 98.7219 8.92693 98.0801 8.39473C97.454 7.84688 96.6401 7.57296 95.6383 7.57296C94.6209 7.57296 93.7912 7.84688 93.1495 8.39473C92.5234 8.92693 92.2103 9.78001 92.2103 10.954V16.1664Z" fill="white"/>
<path d="M79.3493 20.5335C77.8779 21.6762 76.0778 22.2475 73.949 22.2475C72.0707 22.2475 70.5211 21.7388 69.3001 20.7214C68.0792 19.7039 67.4688 18.2169 67.4688 16.2603V10.907C67.4688 8.95041 68.0792 7.46339 69.3001 6.44595C70.5211 5.41286 72.055 4.89632 73.9021 4.89632C75.7491 4.89632 77.424 5.42069 78.9266 6.46943C79.0988 6.59465 79.1223 6.75118 78.9971 6.93901L77.8936 8.53561C77.784 8.72344 77.6196 8.75475 77.4005 8.62952C76.383 7.92515 75.2169 7.57296 73.9021 7.57296C72.7751 7.57296 71.8907 7.87036 71.2489 8.46517C70.6228 9.05998 70.3097 9.88175 70.3097 10.9305V16.1899C70.3097 17.2542 70.6228 18.0838 71.2489 18.6787C71.8907 19.2735 72.7829 19.5709 73.9256 19.5709C75.3969 19.5709 76.6961 19.1639 77.8231 18.3499C78.0266 18.2091 78.1831 18.2404 78.2927 18.4439L79.3962 20.0405C79.5215 20.2439 79.5058 20.4083 79.3493 20.5335Z" fill="white"/>
<path d="M59.4465 12.1731V5.52841C59.4465 5.29362 59.5561 5.17622 59.7752 5.17622H61.9353C62.1544 5.17622 62.264 5.29362 62.264 5.52841V21.6117C62.264 21.8465 62.1544 21.9639 61.9353 21.9639H59.7752C59.5561 21.9639 59.4465 21.8465 59.4465 21.6117V14.7793H52.8253V21.6117C52.8253 21.8465 52.7158 21.9639 52.4966 21.9639H50.3365C50.1174 21.9639 50.0078 21.8465 50.0078 21.6117V5.52841C50.0078 5.29362 50.1174 5.17622 50.3365 5.17622H52.4966C52.7158 5.17622 52.8253 5.29362 52.8253 5.52841V12.1731H59.4465Z" fill="white"/>
<path d="M33.9297 21.9639H31.6287C31.3626 21.9639 31.2687 21.8309 31.347 21.5648L36.982 5.45798C37.0603 5.27014 37.1855 5.17622 37.3577 5.17622H40.0343C40.2065 5.17622 40.3317 5.27014 40.41 5.45798L46.045 21.5648C46.1233 21.8309 46.0294 21.9639 45.7633 21.9639H43.4623C43.2432 21.9639 43.1101 21.87 43.0632 21.6822L41.9127 18.1368H35.4793L34.3289 21.6822C34.2663 21.87 34.1332 21.9639 33.9297 21.9639ZM38.6491 8.27549L36.2776 15.5775H41.1144L38.743 8.27549H38.6491Z" fill="white"/>
<path d="M17.6178 5.17622H23.558C25.4051 5.17622 26.8451 5.68494 27.8782 6.70238C28.927 7.71981 29.4513 9.12074 29.4513 10.9052C29.4513 12.7209 28.927 14.1375 27.8782 15.1549C26.8451 16.1567 25.4051 16.6576 23.558 16.6576H20.1066V21.6117C20.1066 21.8465 19.997 21.9639 19.7779 21.9639H17.6178C17.3986 21.9639 17.2891 21.8465 17.2891 21.6117V5.52841C17.2891 5.29362 17.3986 5.17622 17.6178 5.17622ZM20.1066 14.0279H23.2293C24.372 14.0279 25.2094 13.7775 25.7416 13.2766C26.2895 12.76 26.5634 11.9696 26.5634 10.9052C26.5634 9.84078 26.2895 9.05813 25.7416 8.55724C25.2094 8.05635 24.372 7.8059 23.2293 7.8059H20.1066V14.0279Z" fill="white"/>
<path d="M0.570939 5.17622H12.8506C13.0854 5.17622 13.2028 5.29362 13.2028 5.52841V7.45371C13.2028 7.67285 13.0854 7.78242 12.8506 7.78242H8.13127V21.6117C8.13127 21.8465 8.0217 21.9639 7.80256 21.9639H5.64246C5.42332 21.9639 5.31376 21.8465 5.31376 21.6117V7.78242H0.570939C0.336146 7.78242 0.21875 7.67285 0.21875 7.45371V5.52841C0.21875 5.29362 0.336146 5.17622 0.570939 5.17622Z" fill="white"/>
</svg>
