<svg width="210" height="111" viewBox="0 0 210 111" fill="none" xmlns="http://www.w3.org/2000/svg">
<g clip-path="url(#clip0_2501_34740)">
<path d="M122.071 15.5623H122.002C121.051 15.5657 120.137 15.9314 119.447 16.5844C118.907 15.0092 117.477 13.8808 115.797 13.8808C114.757 13.8943 113.768 14.3358 113.064 15.1019C112.428 13.7597 111.114 12.8598 109.6 12.8598H109.527C108.656 12.8598 107.808 13.1192 107.228 13.6349V4.09143C107.228 1.83534 105.479 0 103.344 0C101.211 0 99.4686 1.83383 99.4671 4.08841L99.4505 22.9628L98.3055 21.5708C97.3841 20.4236 96.0272 19.711 94.5598 19.6032C93.1219 19.5048 91.7073 20.0055 90.6512 20.9865L89.7287 21.7518C89.4485 21.9841 89.3686 22.3803 89.5364 22.7027L98.5083 39.928C100.14 43.0636 103.245 45 106.611 45H116.674C121.777 45 125.933 40.5893 125.938 35.153C125.94 32.7242 125.943 30.9176 125.944 29.446C125.95 25.4839 125.952 24.0026 125.941 19.6413C125.936 17.3912 124.2 15.5623 122.071 15.5623ZM124.4 29.4498C124.399 30.9213 124.396 32.7227 124.394 35.1515C124.389 39.7368 120.926 43.4557 116.674 43.4557H106.611C103.823 43.4557 101.243 41.838 99.8777 39.2154L91.1934 22.5371L91.6511 22.1609C91.6609 22.1526 91.6711 22.1454 91.6805 22.1364C92.4259 21.4351 93.4295 21.0751 94.4508 21.1433C95.4941 21.2232 96.4577 21.7333 97.1104 22.5515L99.6209 25.608C99.8279 25.8598 100.171 25.9545 100.478 25.8447C100.784 25.735 100.99 25.4444 100.99 25.1182L101.005 4.08992C101.005 2.68665 102.062 1.54465 103.345 1.54465C104.627 1.54465 105.684 2.68702 105.684 4.09143V16.7721C105.684 16.8159 105.682 16.8596 105.682 16.9037C105.682 16.9229 105.684 16.941 105.684 16.9595V22.3822C105.684 22.8086 106.03 23.1543 106.456 23.1543C106.883 23.1543 107.228 22.8086 107.228 22.3822V16.7981C107.228 15.4431 108.277 14.4041 109.527 14.4041H109.6C110.883 14.4041 111.958 15.5001 111.958 16.9048V21.8649C111.958 22.2913 112.304 22.6371 112.73 22.6371C113.156 22.6371 113.502 22.2913 113.502 21.8649V17.9729C113.502 16.5685 114.532 15.4258 115.822 15.4258C117.105 15.4258 118.135 16.5685 118.135 17.9729V21.6447C118.135 22.0712 118.481 22.4169 118.907 22.4169C119.333 22.4169 119.679 22.0712 119.679 21.6447V19.6567C119.679 18.2519 120.719 17.1065 122.002 17.1065H122.071C123.35 17.1065 124.394 18.2474 124.397 19.6477C124.407 24.0064 124.405 25.4896 124.4 29.4498Z" fill="white"/>
<path d="M109.928 7.64796H119.936L118.141 9.4422C117.942 9.63636 117.862 9.9229 117.933 10.1921C118.003 10.4617 118.214 10.672 118.483 10.7429C118.753 10.8134 119.039 10.7335 119.233 10.5337L122.334 7.43306C122.636 7.13144 122.636 6.64244 122.334 6.3412L119.233 3.24059C118.931 2.94199 118.445 2.9435 118.145 3.24361C117.844 3.54409 117.843 4.03045 118.141 4.33244L119.913 6.10368H109.928C109.502 6.10368 109.156 6.44941 109.156 6.87582C109.156 7.30223 109.502 7.64796 109.928 7.64796Z" fill="white"/>
<path d="M86.6909 7.64796H96.6092C97.0356 7.64796 97.3814 7.30223 97.3814 6.87582C97.3814 6.44941 97.0356 6.10368 96.6092 6.10368H86.7139L88.4852 4.33244C88.7838 4.03045 88.7823 3.54409 88.4818 3.24361C88.1817 2.9435 87.6953 2.94199 87.3933 3.24059L84.2923 6.3412C83.9911 6.64282 83.9911 7.13182 84.2923 7.43306L87.3933 10.5337C87.5879 10.7309 87.8733 10.8085 88.141 10.7373C88.4086 10.6664 88.6175 10.4571 88.6888 10.1895C88.76 9.92177 88.6824 9.63674 88.4852 9.44182L86.6909 7.64796Z" fill="white"/>
</g>
<path d="M23.42 83.16H21.98C21.82 83.16 21.74 83.0853 21.74 82.936V79.448C21.74 79.288 21.82 79.208 21.98 79.208H22.38C22.7533 79.0907 23.0573 78.7547 23.292 78.2C23.5267 77.6453 23.7293 76.7173 23.9 75.416C24.0813 74.104 24.2467 72.2373 24.396 69.816C24.4067 69.6453 24.492 69.56 24.652 69.56H30.988C31.148 69.56 31.228 69.64 31.228 69.8V79.208H32.092C32.252 79.208 32.332 79.288 32.332 79.448V82.936C32.332 83.0853 32.252 83.16 32.092 83.16H30.652C30.492 83.16 30.412 83.0853 30.412 82.936V81H23.644V82.936C23.644 83.0853 23.5693 83.16 23.42 83.16ZM26.284 71.336C26.1773 73.544 26.0333 75.256 25.852 76.472C25.6707 77.688 25.388 78.6 25.004 79.208H29.276V71.336H26.284ZM37.2251 81H33.8811C33.7211 81 33.6411 80.92 33.6411 80.76V72.936C33.6411 72.7867 33.7211 72.712 33.8811 72.712H37.2251C38.1425 72.712 38.8678 72.92 39.4011 73.336C39.9451 73.7413 40.2171 74.2747 40.2171 74.936C40.2171 75.672 39.8918 76.232 39.2411 76.616C40.0838 76.9787 40.5051 77.656 40.5051 78.648C40.5051 79.352 40.2065 79.9227 39.6091 80.36C39.0118 80.7867 38.2171 81 37.2251 81ZM35.4971 74.184V76.072H37.1451C37.5185 76.072 37.8118 75.992 38.0251 75.832C38.2491 75.6613 38.3611 75.4213 38.3611 75.112C38.3611 74.4933 37.9505 74.184 37.1291 74.184H35.4971ZM35.4971 77.432V79.528H37.1451C38.1371 79.528 38.6331 79.1707 38.6331 78.456C38.6331 77.7733 38.1371 77.432 37.1451 77.432H35.4971ZM43.6451 81H42.0611C41.9011 81 41.8211 80.92 41.8211 80.76V72.936C41.8211 72.7867 41.9011 72.712 42.0611 72.712H43.4211C43.5811 72.712 43.6611 72.7867 43.6611 72.936V76.2C43.6611 76.8293 43.6505 77.5493 43.6291 78.36H43.6451C43.9545 77.6773 44.4611 76.7547 45.1651 75.592L46.7651 72.856C46.8505 72.76 46.9465 72.712 47.0531 72.712H48.6531C48.8131 72.712 48.8931 72.7867 48.8931 72.936V80.76C48.8931 80.92 48.8131 81 48.6531 81H47.2931C47.1331 81 47.0531 80.92 47.0531 80.76V77.544C47.0531 76.9147 47.0638 76.216 47.0851 75.448H47.0691C46.8558 75.9387 46.3545 76.84 45.5651 78.152L43.9331 80.84C43.8691 80.9467 43.7731 81 43.6451 81ZM52.2109 81.016H50.8349C50.6749 81.016 50.5949 80.936 50.5949 80.776V72.936C50.5949 72.7867 50.6749 72.712 50.8349 72.712H55.7469C55.8962 72.712 55.9709 72.7867 55.9709 72.936V74.12C55.9709 74.2693 55.8962 74.344 55.7469 74.344H52.4509V80.776C52.4509 80.936 52.3709 81.016 52.2109 81.016ZM56.7109 73.368C57.5322 72.8027 58.5775 72.52 59.8469 72.52C60.8815 72.52 61.6922 72.792 62.2789 73.336C62.8762 73.8693 63.1749 74.68 63.1749 75.768V80.44C63.1749 80.568 63.1162 80.6587 62.9989 80.712C61.9642 81.032 60.8922 81.192 59.7829 81.192C58.7482 81.192 57.8949 80.9787 57.2229 80.552C56.5509 80.1253 56.2149 79.448 56.2149 78.52C56.2149 77.6773 56.5295 77.0427 57.1589 76.616C57.7989 76.1787 58.6522 75.96 59.7189 75.96C60.1455 75.96 60.6789 76.0027 61.3189 76.088V75.784C61.3189 75.208 61.1962 74.7973 60.9509 74.552C60.7162 74.296 60.3055 74.168 59.7189 74.168C58.9295 74.168 58.2469 74.3387 57.6709 74.68C57.5429 74.776 57.4362 74.7547 57.3509 74.616L56.7109 73.64C56.6362 73.5227 56.6362 73.432 56.7109 73.368ZM58.0869 78.504C58.0869 78.8667 58.2415 79.1387 58.5509 79.32C58.8602 79.4907 59.2709 79.576 59.7829 79.576C60.2735 79.576 60.7855 79.512 61.3189 79.384V77.576C60.7429 77.4907 60.2255 77.448 59.7669 77.448C58.6469 77.448 58.0869 77.8 58.0869 78.504ZM66.5914 81H65.0074C64.8474 81 64.7674 80.92 64.7674 80.76V72.936C64.7674 72.7867 64.8474 72.712 65.0074 72.712H66.3674C66.5274 72.712 66.6074 72.7867 66.6074 72.936V76.2C66.6074 76.8293 66.5967 77.5493 66.5754 78.36H66.5914C66.9007 77.6773 67.4074 76.7547 68.1114 75.592L69.7114 72.856C69.7967 72.76 69.8927 72.712 69.9994 72.712H71.5994C71.7594 72.712 71.8394 72.7867 71.8394 72.936V80.76C71.8394 80.92 71.7594 81 71.5994 81H70.2394C70.0794 81 69.9994 80.92 69.9994 80.76V77.544C69.9994 76.9147 70.01 76.216 70.0314 75.448H70.0154C69.802 75.9387 69.3007 76.84 68.5114 78.152L66.8794 80.84C66.8154 80.9467 66.7194 81 66.5914 81ZM70.7994 69.48C70.714 70.1413 70.4474 70.6693 69.9994 71.064C69.562 71.448 68.97 71.64 68.2234 71.64C67.4767 71.64 66.8847 71.448 66.4474 71.064C66.01 70.68 65.7487 70.1627 65.6634 69.512C65.642 69.352 65.7114 69.2613 65.8714 69.24L66.7674 69.112C66.906 69.1013 66.9914 69.1653 67.0234 69.304C67.1727 69.944 67.5727 70.264 68.2234 70.264C68.874 70.264 69.274 69.944 69.4234 69.304C69.4554 69.1653 69.546 69.1013 69.6954 69.112L70.5754 69.24C70.7354 69.2613 70.81 69.3413 70.7994 69.48ZM76.8851 81H75.5091C75.3491 81 75.2691 80.92 75.2691 80.76V74.344H73.0291C72.8691 74.344 72.7891 74.264 72.7891 74.104V72.936C72.7891 72.7867 72.8691 72.712 73.0291 72.712H79.3491C79.5091 72.712 79.5891 72.7867 79.5891 72.936V74.104C79.5891 74.264 79.5091 74.344 79.3491 74.344H77.1251V80.76C77.1251 80.92 77.0451 81 76.8851 81ZM87.113 75.8V77.416C87.113 77.5653 87.033 77.64 86.873 77.64H82.009V78.088C82.009 78.568 82.1583 78.936 82.457 79.192C82.7663 79.4373 83.1823 79.56 83.705 79.56C84.4837 79.56 85.2357 79.3147 85.961 78.824C86.089 78.7387 86.1957 78.7547 86.281 78.872L86.937 79.752C87.0437 79.8693 87.0277 79.9813 86.889 80.088C85.961 80.824 84.8783 81.192 83.641 81.192C82.6597 81.192 81.8277 80.9253 81.145 80.392C80.473 79.848 80.137 79.0747 80.137 78.072V75.8C80.137 74.7013 80.4783 73.88 81.161 73.336C81.8437 72.792 82.6757 72.52 83.657 72.52C84.6277 72.52 85.4437 72.792 86.105 73.336C86.777 73.88 87.113 74.7013 87.113 75.8ZM85.305 75.784C85.305 75.2293 85.1503 74.8187 84.841 74.552C84.5317 74.2853 84.137 74.152 83.657 74.152C82.5583 74.152 82.009 74.696 82.009 75.784V76.2H85.305V75.784ZM91.8368 72.712H98.1728C98.3328 72.712 98.4128 72.7867 98.4128 72.936V80.76C98.4128 80.92 98.3328 81 98.1728 81H96.7968C96.6368 81 96.5568 80.92 96.5568 80.76V74.344H93.4528V80.76C93.4528 80.92 93.3781 81 93.2288 81H91.8368C91.6768 81 91.5968 80.92 91.5968 80.76V72.936C91.5968 72.7867 91.6768 72.712 91.8368 72.712ZM102.457 78.28C102.254 79.2933 101.945 80.008 101.529 80.424C101.113 80.8293 100.452 81.048 99.5449 81.08C99.3955 81.08 99.3209 81 99.3209 80.84V79.672C99.3209 79.5333 99.3955 79.448 99.5449 79.416C99.8542 79.3947 100.094 79.2667 100.265 79.032C100.446 78.7973 100.596 78.376 100.713 77.768C100.894 76.712 101.028 75.1013 101.113 72.936C101.134 72.7867 101.214 72.712 101.353 72.712H106.793C106.953 72.712 107.033 72.7867 107.033 72.936V80.76C107.033 80.92 106.953 81 106.793 81H105.417C105.257 81 105.177 80.92 105.177 80.76V74.344H102.841C102.788 75.8693 102.66 77.1813 102.457 78.28ZM108.658 73.368C109.48 72.8027 110.525 72.52 111.794 72.52C112.829 72.52 113.64 72.792 114.226 73.336C114.824 73.8693 115.122 74.68 115.122 75.768V80.44C115.122 80.568 115.064 80.6587 114.946 80.712C113.912 81.032 112.84 81.192 111.73 81.192C110.696 81.192 109.842 80.9787 109.17 80.552C108.498 80.1253 108.162 79.448 108.162 78.52C108.162 77.6773 108.477 77.0427 109.106 76.616C109.746 76.1787 110.6 75.96 111.666 75.96C112.093 75.96 112.626 76.0027 113.266 76.088V75.784C113.266 75.208 113.144 74.7973 112.898 74.552C112.664 74.296 112.253 74.168 111.666 74.168C110.877 74.168 110.194 74.3387 109.618 74.68C109.49 74.776 109.384 74.7547 109.298 74.616L108.658 73.64C108.584 73.5227 108.584 73.432 108.658 73.368ZM110.034 78.504C110.034 78.8667 110.189 79.1387 110.498 79.32C110.808 79.4907 111.218 79.576 111.73 79.576C112.221 79.576 112.733 79.512 113.266 79.384V77.576C112.69 77.4907 112.173 77.448 111.714 77.448C110.594 77.448 110.034 77.8 110.034 78.504ZM118.331 81H116.955C116.795 81 116.715 80.92 116.715 80.76V72.936C116.715 72.7867 116.795 72.712 116.955 72.712H118.331C118.491 72.712 118.571 72.7867 118.571 72.936V75.88H121.675V72.936C121.675 72.7867 121.755 72.712 121.915 72.712H123.291C123.451 72.712 123.531 72.7867 123.531 72.936V80.76C123.531 80.92 123.451 81 123.291 81H121.915C121.755 81 121.675 80.92 121.675 80.76V77.528H118.571V80.76C118.571 80.92 118.491 81 118.331 81ZM128.596 72.712H134.932C135.092 72.712 135.172 72.7867 135.172 72.936V80.76C135.172 80.92 135.092 81 134.932 81H133.556C133.396 81 133.316 80.92 133.316 80.76V74.344H130.212V80.76C130.212 80.92 130.137 81 129.988 81H128.596C128.436 81 128.356 80.92 128.356 80.76V72.936C128.356 72.7867 128.436 72.712 128.596 72.712ZM136.8 73.368C137.622 72.8027 138.667 72.52 139.936 72.52C140.971 72.52 141.782 72.792 142.368 73.336C142.966 73.8693 143.264 74.68 143.264 75.768V80.44C143.264 80.568 143.206 80.6587 143.088 80.712C142.054 81.032 140.982 81.192 139.872 81.192C138.838 81.192 137.984 80.9787 137.312 80.552C136.64 80.1253 136.304 79.448 136.304 78.52C136.304 77.6773 136.619 77.0427 137.248 76.616C137.888 76.1787 138.742 75.96 139.808 75.96C140.235 75.96 140.768 76.0027 141.408 76.088V75.784C141.408 75.208 141.286 74.7973 141.04 74.552C140.806 74.296 140.395 74.168 139.808 74.168C139.019 74.168 138.336 74.3387 137.76 74.68C137.632 74.776 137.526 74.7547 137.44 74.616L136.8 73.64C136.726 73.5227 136.726 73.432 136.8 73.368ZM138.176 78.504C138.176 78.8667 138.331 79.1387 138.64 79.32C138.95 79.4907 139.36 79.576 139.872 79.576C140.363 79.576 140.875 79.512 141.408 79.384V77.576C140.832 77.4907 140.315 77.448 139.856 77.448C138.736 77.448 138.176 77.8 138.176 78.504ZM147.209 78.28C147.006 79.2933 146.697 80.008 146.281 80.424C145.865 80.8293 145.203 81.048 144.297 81.08C144.147 81.08 144.073 81 144.073 80.84V79.672C144.073 79.5333 144.147 79.448 144.297 79.416C144.606 79.3947 144.846 79.2667 145.017 79.032C145.198 78.7973 145.347 78.376 145.465 77.768C145.646 76.712 145.779 75.1013 145.865 72.936C145.886 72.7867 145.966 72.712 146.105 72.712H151.545C151.705 72.712 151.785 72.7867 151.785 72.936V80.76C151.785 80.92 151.705 81 151.545 81H150.169C150.009 81 149.929 80.92 149.929 80.76V74.344H147.593C147.539 75.8693 147.411 77.1813 147.209 78.28ZM157.026 81H153.714C153.554 81 153.474 80.92 153.474 80.76V72.936C153.474 72.7867 153.554 72.712 153.714 72.712H155.09C155.25 72.712 155.33 72.7867 155.33 72.936V75.4H157.026C158.008 75.4 158.797 75.6507 159.394 76.152C160.002 76.6533 160.306 77.3467 160.306 78.232C160.306 79.1813 160.013 79.88 159.426 80.328C158.85 80.776 158.05 81 157.026 81ZM155.33 76.92V79.464H156.706C157.858 79.464 158.434 79.0427 158.434 78.2C158.445 77.7627 158.306 77.4427 158.018 77.24C157.73 77.0267 157.293 76.92 156.706 76.92H155.33ZM168.988 83.096H167.74C167.591 83.096 167.516 83.016 167.516 82.856V81H161.644C161.484 81 161.404 80.92 161.404 80.76V72.936C161.404 72.7867 161.484 72.712 161.644 72.712H163.02C163.18 72.712 163.26 72.7867 163.26 72.936V79.336H166.364V72.936C166.364 72.7867 166.444 72.712 166.604 72.712H167.98C168.14 72.712 168.22 72.7867 168.22 72.936V79.352H168.988C169.148 79.352 169.228 79.432 169.228 79.592V82.856C169.228 83.016 169.148 83.096 168.988 83.096ZM177.023 75.8V77.416C177.023 77.5653 176.943 77.64 176.783 77.64H171.919V78.088C171.919 78.568 172.068 78.936 172.367 79.192C172.676 79.4373 173.092 79.56 173.615 79.56C174.394 79.56 175.146 79.3147 175.871 78.824C175.999 78.7387 176.106 78.7547 176.191 78.872L176.847 79.752C176.954 79.8693 176.938 79.9813 176.799 80.088C175.871 80.824 174.788 81.192 173.551 81.192C172.57 81.192 171.738 80.9253 171.055 80.392C170.383 79.848 170.047 79.0747 170.047 78.072V75.8C170.047 74.7013 170.388 73.88 171.071 73.336C171.754 72.792 172.586 72.52 173.567 72.52C174.538 72.52 175.354 72.792 176.015 73.336C176.687 73.88 177.023 74.7013 177.023 75.8ZM175.215 75.784C175.215 75.2293 175.06 74.8187 174.751 74.552C174.442 74.2853 174.047 74.152 173.567 74.152C172.468 74.152 171.919 74.696 171.919 75.784V76.2H175.215V75.784ZM179.974 81H178.614C178.454 81 178.374 80.92 178.374 80.76V72.936C178.374 72.7867 178.454 72.712 178.614 72.712H180.166C180.304 72.712 180.395 72.7653 180.438 72.872L182.742 77.432H182.774L185.078 72.872C185.12 72.7653 185.211 72.712 185.35 72.712H186.902C187.062 72.712 187.142 72.7867 187.142 72.936V80.76C187.142 80.92 187.062 81 186.902 81H185.542C185.392 81 185.318 80.92 185.318 80.76V77.928C185.318 77.352 185.328 76.552 185.35 75.528H185.334C184.939 76.424 184.656 77.0427 184.486 77.384L183.446 79.448C183.403 79.5547 183.312 79.608 183.174 79.608H182.342C182.203 79.608 182.112 79.5547 182.07 79.448L181.03 77.384C180.784 76.872 180.502 76.2533 180.182 75.528H180.166C180.198 77.064 180.214 77.864 180.214 77.928V80.76C180.214 80.92 180.134 81 179.974 81Z" fill="white"/>
<path d="M3.084 109.392H2.364C2.284 109.392 2.228 109.36 2.196 109.296C1.124 107.472 0.588 105.616 0.588 103.728C0.588 101.84 1.124 99.984 2.196 98.16C2.228 98.096 2.284 98.064 2.364 98.064H3.084C3.204 98.064 3.236 98.12 3.18 98.232C2.1 99.992 1.56 101.824 1.56 103.728C1.56 105.632 2.1 107.464 3.18 109.224C3.236 109.336 3.204 109.392 3.084 109.392ZM4.90238 108H4.19438C4.10638 108 4.06238 107.956 4.06238 107.868V101.94C4.06238 101.844 4.10638 101.796 4.19438 101.796H4.90238C4.99838 101.796 5.04638 101.844 5.04638 101.94V104.34H7.97438V101.94C7.97438 101.844 8.01838 101.796 8.10638 101.796H8.81438C8.91038 101.796 8.95838 101.844 8.95838 101.94V107.868C8.95838 107.956 8.91038 108 8.81438 108H8.10638C8.01838 108 7.97438 107.956 7.97438 107.868V105.216H5.04638V107.868C5.04638 107.956 4.99838 108 4.90238 108ZM10.5172 102.288C11.1252 101.872 11.8812 101.664 12.7852 101.664C13.5372 101.664 14.1212 101.864 14.5372 102.264C14.9612 102.656 15.1732 103.232 15.1732 103.992V107.592C15.1732 107.672 15.1372 107.724 15.0652 107.748C14.3612 108.004 13.5892 108.132 12.7492 108.132C12.0052 108.132 11.3892 107.972 10.9012 107.652C10.4132 107.332 10.1692 106.836 10.1692 106.164C10.1692 105.548 10.4012 105.076 10.8652 104.748C11.3292 104.42 11.9572 104.256 12.7492 104.256C13.1652 104.256 13.6452 104.304 14.1892 104.4V104.016C14.1892 103.52 14.0772 103.152 13.8532 102.912C13.6292 102.672 13.2612 102.552 12.7492 102.552C12.1092 102.552 11.5412 102.7 11.0452 102.996C10.9732 103.044 10.9132 103.032 10.8652 102.96L10.5172 102.456C10.4772 102.384 10.4772 102.328 10.5172 102.288ZM11.1532 106.164C11.1532 106.516 11.2972 106.788 11.5852 106.98C11.8812 107.164 12.2692 107.256 12.7492 107.256C13.2292 107.256 13.7092 107.184 14.1892 107.04V105.24C13.6772 105.144 13.1972 105.096 12.7492 105.096C11.6852 105.096 11.1532 105.452 11.1532 106.164ZM24.3981 108H23.5461C23.4661 108 23.4101 107.972 23.3781 107.916L21.4701 105.168L20.7741 105.948V107.868C20.7741 107.956 20.7261 108 20.6301 108H19.9461C19.8581 108 19.8141 107.956 19.8141 107.868V105.948L19.1181 105.168L17.2101 107.916C17.1621 107.972 17.1061 108 17.0421 108H16.1901C16.0621 108 16.0341 107.944 16.1061 107.832L18.4701 104.496L16.3221 101.964C16.2901 101.924 16.2781 101.888 16.2861 101.856C16.3021 101.816 16.3381 101.796 16.3941 101.796H17.2581C17.3301 101.796 17.3861 101.828 17.4261 101.892L19.8141 104.772V101.94C19.8141 101.844 19.8581 101.796 19.9461 101.796H20.6301C20.7261 101.796 20.7741 101.844 20.7741 101.94V104.772L23.1621 101.892C23.2021 101.828 23.2581 101.796 23.3301 101.796H24.1821C24.2381 101.796 24.2741 101.816 24.2901 101.856C24.3141 101.888 24.3061 101.924 24.2661 101.964L22.1061 104.496L24.4821 107.832C24.5541 107.944 24.5261 108 24.3981 108ZM26.3477 108H25.6397C25.5517 108 25.5077 107.956 25.5077 107.868V101.94C25.5077 101.844 25.5517 101.796 25.6397 101.796H26.4557C26.5197 101.796 26.5717 101.828 26.6117 101.892L27.9917 104.424C28.1597 104.736 28.3797 105.164 28.6517 105.708H28.6637C28.8637 105.284 29.0797 104.856 29.3117 104.424L30.7037 101.892C30.7277 101.828 30.7797 101.796 30.8597 101.796H31.6637C31.7597 101.796 31.8077 101.844 31.8077 101.94V107.868C31.8077 107.956 31.7597 108 31.6637 108H30.9677C30.8797 108 30.8357 107.956 30.8357 107.868V105C30.8357 104.248 30.8397 103.696 30.8477 103.344H30.8357C30.5477 103.952 30.3197 104.408 30.1517 104.712L29.0357 106.788C29.0117 106.852 28.9597 106.884 28.8797 106.884H28.4237C28.3517 106.884 28.2997 106.852 28.2677 106.788L27.1277 104.676C27.0237 104.476 26.8037 104.032 26.4677 103.344C26.4677 103.52 26.4677 103.796 26.4677 104.172C26.4757 104.54 26.4797 104.816 26.4797 105V107.868C26.4797 107.956 26.4357 108 26.3477 108ZM34.4487 108H33.5967C33.5087 108 33.4647 107.956 33.4647 107.868V101.94C33.4647 101.844 33.5087 101.796 33.5967 101.796H34.3047C34.3927 101.796 34.4367 101.844 34.4367 101.94V105.132C34.4367 105.268 34.4327 105.512 34.4247 105.864C34.4247 106.208 34.4247 106.452 34.4247 106.596C34.8647 105.796 35.2167 105.196 35.4807 104.796L37.4127 101.892C37.4527 101.828 37.5087 101.796 37.5807 101.796H38.4207C38.5087 101.796 38.5527 101.844 38.5527 101.94V107.868C38.5527 107.956 38.5087 108 38.4207 108H37.7247C37.6287 108 37.5807 107.956 37.5807 107.868V104.772C37.5807 104.348 37.5887 103.848 37.6047 103.272H37.5927C37.2727 103.872 36.9287 104.452 36.5607 105.012L34.6167 107.916C34.5847 107.972 34.5287 108 34.4487 108ZM42.435 108H41.715C41.627 108 41.583 107.956 41.583 107.868V102.684H39.711C39.615 102.684 39.567 102.636 39.567 102.54V101.94C39.567 101.844 39.615 101.796 39.711 101.796H44.427C44.523 101.796 44.571 101.844 44.571 101.94V102.54C44.571 102.636 44.523 102.684 44.427 102.684H42.567V107.868C42.567 107.956 42.523 108 42.435 108ZM50.3007 104.052V105.228C50.3007 105.324 50.2567 105.372 50.1687 105.372H46.2447V105.876C46.2447 106.316 46.3887 106.656 46.6767 106.896C46.9647 107.136 47.3407 107.256 47.8047 107.256C48.4607 107.256 49.0727 107.032 49.6407 106.584C49.7207 106.536 49.7847 106.548 49.8327 106.62L50.1807 107.076C50.2367 107.14 50.2287 107.204 50.1567 107.268C49.4687 107.844 48.6767 108.132 47.7807 108.132C47.0847 108.132 46.4887 107.936 45.9927 107.544C45.4967 107.144 45.2487 106.588 45.2487 105.876V104.052C45.2487 103.276 45.4927 102.684 45.9807 102.276C46.4767 101.868 47.0807 101.664 47.7927 101.664C48.4967 101.664 49.0887 101.868 49.5687 102.276C50.0567 102.684 50.3007 103.276 50.3007 104.052ZM49.3407 104.052C49.3407 103.564 49.1967 103.192 48.9087 102.936C48.6287 102.68 48.2567 102.552 47.7927 102.552C47.3207 102.552 46.9447 102.68 46.6647 102.936C46.3847 103.184 46.2447 103.556 46.2447 104.052V104.556H49.3407V104.052ZM55.211 108H54.503C54.415 108 54.371 107.956 54.371 107.868V101.94C54.371 101.844 54.415 101.796 54.503 101.796H55.211C55.307 101.796 55.355 101.844 55.355 101.94V104.34H58.283V101.94C58.283 101.844 58.327 101.796 58.415 101.796H59.123C59.219 101.796 59.267 101.844 59.267 101.94V107.868C59.267 107.956 59.219 108 59.123 108H58.415C58.327 108 58.283 107.956 58.283 107.868V105.216H55.355V107.868C55.355 107.956 55.307 108 55.211 108ZM60.8258 102.288C61.4338 101.872 62.1898 101.664 63.0938 101.664C63.8458 101.664 64.4298 101.864 64.8458 102.264C65.2698 102.656 65.4818 103.232 65.4818 103.992V107.592C65.4818 107.672 65.4458 107.724 65.3738 107.748C64.6698 108.004 63.8978 108.132 63.0578 108.132C62.3138 108.132 61.6978 107.972 61.2098 107.652C60.7218 107.332 60.4778 106.836 60.4778 106.164C60.4778 105.548 60.7098 105.076 61.1738 104.748C61.6378 104.42 62.2658 104.256 63.0578 104.256C63.4738 104.256 63.9538 104.304 64.4978 104.4V104.016C64.4978 103.52 64.3858 103.152 64.1618 102.912C63.9378 102.672 63.5698 102.552 63.0578 102.552C62.4178 102.552 61.8498 102.7 61.3538 102.996C61.2818 103.044 61.2218 103.032 61.1738 102.96L60.8258 102.456C60.7858 102.384 60.7858 102.328 60.8258 102.288ZM61.4618 106.164C61.4618 106.516 61.6058 106.788 61.8938 106.98C62.1898 107.164 62.5778 107.256 63.0578 107.256C63.5378 107.256 64.0178 107.184 64.4978 107.04V105.24C63.9858 105.144 63.5058 105.096 63.0578 105.096C61.9938 105.096 61.4618 105.452 61.4618 106.164ZM71.45 107.256C71.946 107.256 72.334 107.128 72.614 106.872C72.902 106.608 73.046 106.264 73.046 105.84V105.216H70.538C70.45 105.216 70.406 105.168 70.406 105.072V104.556C70.406 104.468 70.45 104.424 70.538 104.424H73.046V103.968C73.046 103.544 72.902 103.204 72.614 102.948C72.334 102.684 71.946 102.552 71.45 102.552C70.882 102.552 70.35 102.704 69.854 103.008C69.79 103.04 69.73 103.024 69.674 102.96L69.35 102.468C69.302 102.388 69.314 102.324 69.386 102.276C70.034 101.868 70.73 101.664 71.474 101.664C72.25 101.664 72.87 101.88 73.334 102.312C73.798 102.736 74.03 103.288 74.03 103.968V105.84C74.03 106.512 73.798 107.064 73.334 107.496C72.87 107.92 72.246 108.132 71.462 108.132C70.654 108.132 69.926 107.9 69.278 107.436C69.206 107.388 69.194 107.324 69.242 107.244L69.59 106.752C69.638 106.672 69.702 106.66 69.782 106.716C70.31 107.076 70.866 107.256 71.45 107.256ZM80.3967 108H79.5567C79.4847 108 79.4247 107.972 79.3767 107.916L77.1087 105.192L76.4247 105.876V107.868C76.4247 107.956 76.3767 108 76.2807 108H75.5967C75.5087 108 75.4647 107.956 75.4647 107.868V101.94C75.4647 101.844 75.5087 101.796 75.5967 101.796H76.2807C76.3767 101.796 76.4247 101.844 76.4247 101.94V104.664L79.1847 101.868C79.2247 101.82 79.2807 101.796 79.3527 101.796H80.2167C80.2727 101.796 80.3087 101.816 80.3247 101.856C80.3407 101.888 80.3287 101.924 80.2887 101.964L77.7687 104.508L80.4807 107.832C80.5127 107.88 80.5207 107.92 80.5047 107.952C80.4887 107.984 80.4527 108 80.3967 108ZM81.4901 102.096C82.2341 101.808 83.0101 101.664 83.8181 101.664C84.6421 101.664 85.2941 101.88 85.7741 102.312C86.2541 102.736 86.4941 103.388 86.4941 104.268V105.588C86.4941 106.38 86.2541 107.004 85.7741 107.46C85.2941 107.908 84.6581 108.132 83.8661 108.132C83.3141 108.132 82.8181 108.008 82.3781 107.76V110.148C82.3781 110.236 82.3301 110.28 82.2341 110.28H81.5261C81.4381 110.28 81.3941 110.236 81.3941 110.148V102.252C81.3941 102.172 81.4261 102.12 81.4901 102.096ZM83.8061 107.256C84.9341 107.256 85.4981 106.7 85.4981 105.588V104.268C85.4981 103.108 84.9301 102.528 83.7941 102.528C83.2341 102.528 82.7621 102.608 82.3781 102.768V106.824C82.7941 107.112 83.2701 107.256 83.8061 107.256ZM87.814 102.288C88.422 101.872 89.178 101.664 90.082 101.664C90.834 101.664 91.418 101.864 91.834 102.264C92.258 102.656 92.47 103.232 92.47 103.992V107.592C92.47 107.672 92.434 107.724 92.362 107.748C91.658 108.004 90.886 108.132 90.046 108.132C89.302 108.132 88.686 107.972 88.198 107.652C87.71 107.332 87.466 106.836 87.466 106.164C87.466 105.548 87.698 105.076 88.162 104.748C88.626 104.42 89.254 104.256 90.046 104.256C90.462 104.256 90.942 104.304 91.486 104.4V104.016C91.486 103.52 91.374 103.152 91.15 102.912C90.926 102.672 90.558 102.552 90.046 102.552C89.406 102.552 88.838 102.7 88.342 102.996C88.27 103.044 88.21 103.032 88.162 102.96L87.814 102.456C87.774 102.384 87.774 102.328 87.814 102.288ZM88.45 106.164C88.45 106.516 88.594 106.788 88.882 106.98C89.178 107.164 89.566 107.256 90.046 107.256C90.526 107.256 91.006 107.184 91.486 107.04V105.24C90.974 105.144 90.494 105.096 90.046 105.096C88.982 105.096 88.45 105.452 88.45 106.164ZM94.8789 108H94.1709C94.0829 108 94.0389 107.956 94.0389 107.868V101.94C94.0389 101.844 94.0829 101.796 94.1709 101.796H94.8789C94.9749 101.796 95.0229 101.844 95.0229 101.94V104.34H97.9509V101.94C97.9509 101.844 97.9949 101.796 98.0829 101.796H98.7909C98.8869 101.796 98.9349 101.844 98.9349 101.94V107.868C98.9349 107.956 98.8869 108 98.7909 108H98.0829C97.9949 108 97.9509 107.956 97.9509 107.868V105.216H95.0229V107.868C95.0229 107.956 94.9749 108 94.8789 108ZM101.658 106.908L100.866 109.296C100.85 109.368 100.798 109.404 100.71 109.404H100.122C100.026 109.404 99.9857 109.352 100.002 109.248L100.638 106.872C100.654 106.792 100.702 106.752 100.782 106.752H101.538C101.65 106.752 101.69 106.804 101.658 106.908ZM109.811 108H109.103C109.007 108 108.959 107.956 108.959 107.868V105.768C108.463 105.96 107.971 106.056 107.483 106.056C106.739 106.056 106.151 105.848 105.719 105.432C105.295 105.016 105.083 104.384 105.083 103.536V101.94C105.083 101.844 105.127 101.796 105.215 101.796H105.935C106.023 101.796 106.067 101.844 106.067 101.94V103.512C106.067 104.616 106.543 105.168 107.495 105.168C107.999 105.168 108.487 105.072 108.959 104.88V101.94C108.959 101.844 109.007 101.796 109.103 101.796H109.811C109.899 101.796 109.943 101.844 109.943 101.94V107.868C109.943 107.956 109.899 108 109.811 108ZM113.826 108H113.106C113.018 108 112.974 107.956 112.974 107.868V102.684H111.102C111.006 102.684 110.958 102.636 110.958 102.54V101.94C110.958 101.844 111.006 101.796 111.102 101.796H115.818C115.914 101.796 115.962 101.844 115.962 101.94V102.54C115.962 102.636 115.914 102.684 115.818 102.684H113.958V107.868C113.958 107.956 113.914 108 113.826 108ZM121.907 105.78C121.907 106.492 121.667 107.064 121.187 107.496C120.715 107.92 120.075 108.132 119.267 108.132C118.459 108.132 117.815 107.916 117.335 107.484C116.863 107.052 116.627 106.484 116.627 105.78V104.052C116.627 103.34 116.867 102.764 117.347 102.324C117.827 101.884 118.467 101.664 119.267 101.664C120.075 101.664 120.715 101.884 121.187 102.324C121.667 102.764 121.907 103.34 121.907 104.052V105.78ZM117.623 105.78C117.623 106.236 117.763 106.596 118.043 106.86C118.331 107.124 118.739 107.256 119.267 107.256C119.795 107.256 120.203 107.124 120.491 106.86C120.779 106.596 120.923 106.236 120.923 105.78V104.052C120.923 103.588 120.779 103.224 120.491 102.96C120.203 102.688 119.795 102.552 119.267 102.552C118.739 102.552 118.331 102.688 118.043 102.96C117.763 103.224 117.623 103.588 117.623 104.052V105.78ZM124.272 102.528C124.744 102.248 125.288 102.108 125.904 102.108C126.664 102.108 127.272 102.324 127.728 102.756C128.184 103.18 128.412 103.788 128.412 104.58V105.66C128.412 106.452 128.164 107.064 127.668 107.496C127.18 107.92 126.568 108.132 125.832 108.132C125.112 108.132 124.508 107.92 124.02 107.496C123.532 107.064 123.288 106.452 123.288 105.66V101.964C123.288 101.276 123.512 100.724 123.96 100.308C124.416 99.884 124.968 99.612 125.616 99.492C125.656 99.484 125.828 99.456 126.132 99.408C126.436 99.352 126.7 99.296 126.924 99.24C127.156 99.176 127.352 99.1 127.512 99.012C127.6 98.972 127.66 98.992 127.692 99.072L127.992 99.6C128.032 99.68 128.016 99.74 127.944 99.78C127.816 99.852 127.656 99.92 127.464 99.984C127.272 100.048 127.104 100.096 126.96 100.128C126.816 100.16 126.632 100.2 126.408 100.248C126.184 100.296 126.04 100.328 125.976 100.344C124.84 100.6 124.272 101.148 124.272 101.988V102.528ZM125.832 107.256C126.296 107.256 126.676 107.12 126.972 106.848C127.268 106.576 127.416 106.18 127.416 105.66V104.604C127.416 104.076 127.28 103.672 127.008 103.392C126.744 103.112 126.356 102.972 125.844 102.972C125.244 102.972 124.72 103.116 124.272 103.404V105.66C124.272 106.18 124.416 106.576 124.704 106.848C125 107.12 125.376 107.256 125.832 107.256ZM132.336 108H129.96C129.872 108 129.828 107.956 129.828 107.868V101.94C129.828 101.844 129.872 101.796 129.96 101.796H130.668C130.764 101.796 130.812 101.844 130.812 101.94V103.872H132.336C133.072 103.872 133.652 104.06 134.076 104.436C134.508 104.812 134.724 105.324 134.724 105.972C134.724 106.66 134.516 107.172 134.1 107.508C133.684 107.836 133.096 108 132.336 108ZM130.812 104.712V107.16H132.18C133.212 107.16 133.728 106.756 133.728 105.948C133.736 105.54 133.608 105.232 133.344 105.024C133.088 104.816 132.7 104.712 132.18 104.712H130.812ZM136.32 108H135.612C135.524 108 135.48 107.956 135.48 107.868V101.94C135.48 101.844 135.524 101.796 135.612 101.796H136.32C136.416 101.796 136.464 101.844 136.464 101.94V107.868C136.464 107.956 136.416 108 136.32 108ZM140.964 101.796H145.584C145.672 101.796 145.716 101.844 145.716 101.94V107.868C145.716 107.956 145.672 108 145.584 108H144.876C144.78 108 144.732 107.956 144.732 107.868V102.684H141.804V107.868C141.804 107.956 141.76 108 141.672 108H140.964C140.868 108 140.82 107.956 140.82 107.868V101.94C140.82 101.844 140.868 101.796 140.964 101.796ZM147.455 102.096C148.199 101.808 148.975 101.664 149.783 101.664C150.607 101.664 151.259 101.88 151.739 102.312C152.219 102.736 152.459 103.388 152.459 104.268V105.588C152.459 106.38 152.219 107.004 151.739 107.46C151.259 107.908 150.623 108.132 149.831 108.132C149.279 108.132 148.783 108.008 148.343 107.76V110.148C148.343 110.236 148.295 110.28 148.199 110.28H147.491C147.403 110.28 147.359 110.236 147.359 110.148V102.252C147.359 102.172 147.391 102.12 147.455 102.096ZM149.771 107.256C150.899 107.256 151.463 106.7 151.463 105.588V104.268C151.463 103.108 150.895 102.528 149.759 102.528C149.199 102.528 148.727 102.608 148.343 102.768V106.824C148.759 107.112 149.235 107.256 149.771 107.256ZM158.927 105.78C158.927 106.492 158.687 107.064 158.207 107.496C157.735 107.92 157.095 108.132 156.287 108.132C155.479 108.132 154.835 107.916 154.355 107.484C153.883 107.052 153.647 106.484 153.647 105.78V104.052C153.647 103.34 153.887 102.764 154.367 102.324C154.847 101.884 155.487 101.664 156.287 101.664C157.095 101.664 157.735 101.884 158.207 102.324C158.687 102.764 158.927 103.34 158.927 104.052V105.78ZM154.643 105.78C154.643 106.236 154.783 106.596 155.063 106.86C155.351 107.124 155.759 107.256 156.287 107.256C156.815 107.256 157.223 107.124 157.511 106.86C157.799 106.596 157.943 106.236 157.943 105.78V104.052C157.943 103.588 157.799 103.224 157.511 102.96C157.223 102.688 156.815 102.552 156.287 102.552C155.759 102.552 155.351 102.688 155.063 102.96C154.783 103.224 154.643 103.588 154.643 104.052V105.78ZM160.43 109.644H159.758C159.67 109.644 159.626 109.596 159.626 109.5V107.256C159.626 107.168 159.67 107.124 159.758 107.124H160.022C160.302 106.956 160.518 106.52 160.67 105.816C160.83 105.104 160.97 103.812 161.09 101.94C161.09 101.844 161.134 101.796 161.222 101.796H165.05C165.146 101.796 165.194 101.844 165.194 101.94V107.124H165.818C165.914 107.124 165.962 107.168 165.962 107.256V109.5C165.962 109.596 165.914 109.644 165.818 109.644H165.158C165.062 109.644 165.014 109.596 165.014 109.5V108H160.562V109.5C160.562 109.596 160.518 109.644 160.43 109.644ZM162.002 102.684C161.93 103.972 161.822 104.972 161.678 105.684C161.542 106.388 161.354 106.868 161.114 107.124H164.21V102.684H162.002ZM172.11 105.78C172.11 106.492 171.87 107.064 171.39 107.496C170.918 107.92 170.278 108.132 169.47 108.132C168.662 108.132 168.018 107.916 167.538 107.484C167.066 107.052 166.83 106.484 166.83 105.78V104.052C166.83 103.34 167.07 102.764 167.55 102.324C168.03 101.884 168.67 101.664 169.47 101.664C170.278 101.664 170.918 101.884 171.39 102.324C171.87 102.764 172.11 103.34 172.11 104.052V105.78ZM167.826 105.78C167.826 106.236 167.966 106.596 168.246 106.86C168.534 107.124 168.942 107.256 169.47 107.256C169.998 107.256 170.406 107.124 170.694 106.86C170.982 106.596 171.126 106.236 171.126 105.78V104.052C171.126 103.588 170.982 103.224 170.694 102.96C170.406 102.688 169.998 102.552 169.47 102.552C168.942 102.552 168.534 102.688 168.246 102.96C167.966 103.224 167.826 103.588 167.826 104.052V105.78ZM174.827 105.864C174.691 106.68 174.483 107.244 174.203 107.556C173.923 107.868 173.479 108.032 172.871 108.048C172.783 108.048 172.739 108.004 172.739 107.916V107.304C172.739 107.224 172.783 107.176 172.871 107.16C173.151 107.144 173.367 107.032 173.519 106.824C173.671 106.616 173.791 106.216 173.879 105.624C174.007 104.744 174.107 103.516 174.179 101.94C174.179 101.844 174.227 101.796 174.323 101.796H178.247C178.343 101.796 178.391 101.844 178.391 101.94V107.868C178.391 107.956 178.343 108 178.247 108H177.539C177.451 108 177.407 107.956 177.407 107.868V102.684H175.103C175.063 103.7 174.971 104.76 174.827 105.864ZM187.699 108H186.847C186.767 108 186.711 107.972 186.679 107.916L184.771 105.168L184.075 105.948V107.868C184.075 107.956 184.027 108 183.931 108H183.247C183.159 108 183.115 107.956 183.115 107.868V105.948L182.419 105.168L180.511 107.916C180.463 107.972 180.407 108 180.343 108H179.491C179.363 108 179.335 107.944 179.407 107.832L181.771 104.496L179.623 101.964C179.591 101.924 179.579 101.888 179.587 101.856C179.603 101.816 179.639 101.796 179.695 101.796H180.559C180.631 101.796 180.687 101.828 180.727 101.892L183.115 104.772V101.94C183.115 101.844 183.159 101.796 183.247 101.796H183.931C184.027 101.796 184.075 101.844 184.075 101.94V104.772L186.463 101.892C186.503 101.828 186.559 101.796 186.631 101.796H187.483C187.539 101.796 187.575 101.816 187.591 101.856C187.615 101.888 187.607 101.924 187.567 101.964L185.407 104.496L187.783 107.832C187.855 107.944 187.827 108 187.699 108ZM189.792 108H188.94C188.852 108 188.808 107.956 188.808 107.868V101.94C188.808 101.844 188.852 101.796 188.94 101.796H189.648C189.736 101.796 189.78 101.844 189.78 101.94V105.132C189.78 105.268 189.776 105.512 189.768 105.864C189.768 106.208 189.768 106.452 189.768 106.596C190.208 105.796 190.56 105.196 190.824 104.796L192.756 101.892C192.796 101.828 192.852 101.796 192.924 101.796H193.764C193.852 101.796 193.896 101.844 193.896 101.94V107.868C193.896 107.956 193.852 108 193.764 108H193.068C192.972 108 192.924 107.956 192.924 107.868V104.772C192.924 104.348 192.932 103.848 192.948 103.272H192.936C192.616 103.872 192.272 104.452 191.904 105.012L189.96 107.916C189.928 107.972 189.872 108 189.792 108ZM197.779 108H197.059C196.971 108 196.927 107.956 196.927 107.868V102.684H195.055C194.959 102.684 194.911 102.636 194.911 102.54V101.94C194.911 101.844 194.959 101.796 195.055 101.796H199.771C199.867 101.796 199.915 101.844 199.915 101.94V102.54C199.915 102.636 199.867 102.684 199.771 102.684H197.911V107.868C197.911 107.956 197.867 108 197.779 108ZM203.445 108H201.069C200.981 108 200.937 107.956 200.937 107.868V101.94C200.937 101.844 200.981 101.796 201.069 101.796H201.777C201.873 101.796 201.921 101.844 201.921 101.94V103.872H203.445C204.181 103.872 204.761 104.06 205.185 104.436C205.617 104.812 205.833 105.324 205.833 105.972C205.833 106.66 205.625 107.172 205.209 107.508C204.793 107.836 204.205 108 203.445 108ZM201.921 104.712V107.16H203.289C204.321 107.16 204.837 106.756 204.837 105.948C204.845 105.54 204.717 105.232 204.453 105.024C204.197 104.816 203.809 104.712 203.289 104.712H201.921ZM206.966 109.392H206.246C206.126 109.392 206.094 109.336 206.15 109.224C207.23 107.464 207.77 105.632 207.77 103.728C207.77 101.824 207.23 99.992 206.15 98.232C206.094 98.12 206.126 98.064 206.246 98.064H206.966C207.046 98.064 207.102 98.096 207.134 98.16C208.206 99.984 208.742 101.84 208.742 103.728C208.742 105.616 208.206 107.472 207.134 109.296C207.102 109.36 207.046 109.392 206.966 109.392Z" fill="white"/>
<defs>
<clipPath id="clip0_2501_34740">
<rect width="45" height="45" fill="white" transform="translate(82.5)"/>
</clipPath>
</defs>
</svg>
