<svg width="142" height="25" viewBox="0 0 142 25" fill="none" xmlns="http://www.w3.org/2000/svg">
<path d="M73.2708 23.4491H72.5857C72.4973 23.4491 72.4531 23.4086 72.4531 23.3276V15.6706C72.4531 15.5896 72.4973 15.549 72.5857 15.549H73.2708C73.3518 15.549 73.3923 15.5896 73.3923 15.6706V19.3278L76.8065 15.6264C76.858 15.5748 76.9133 15.549 76.9722 15.549H77.8561C77.915 15.549 77.9519 15.5675 77.9666 15.6043C77.9813 15.6338 77.9703 15.6669 77.9335 15.7037L74.7624 19.1068L78.1544 23.2944C78.1839 23.3386 78.1913 23.3755 78.1765 23.4049C78.1618 23.4344 78.1287 23.4491 78.0771 23.4491H77.1821C77.1085 23.4491 77.0569 23.4233 77.0274 23.3718L74.1326 19.7698L73.3923 20.5322V23.3276C73.3923 23.4086 73.3518 23.4491 73.2708 23.4491Z" fill="white"/>
<path d="M69.8042 23.4491H69.1302C69.0418 23.4491 68.9976 23.4086 68.9976 23.3276V19.9797C68.9976 19.2284 69.0197 18.2708 69.0639 17.107L69.0418 17.0849C68.7693 17.6079 68.4489 18.1677 68.0806 18.7643L65.1747 23.3718C65.1452 23.4233 65.0936 23.4491 65.02 23.4491H64.2465C64.1655 23.4491 64.125 23.4086 64.125 23.3276V15.6706C64.125 15.5896 64.1655 15.549 64.2465 15.549H64.9316C65.0126 15.549 65.0531 15.5896 65.0531 15.6706V19.0185C65.0531 20.0865 65.031 21.0773 64.9868 21.9907L65.02 22.0238C65.1378 21.7955 65.4472 21.2577 65.9481 20.4106L68.8761 15.6374C68.9129 15.5785 68.9645 15.549 69.0308 15.549H69.8042C69.8926 15.549 69.9368 15.5896 69.9368 15.6706V23.3276C69.9368 23.4086 69.8926 23.4491 69.8042 23.4491Z" fill="white"/>
<path d="M62.0495 24.8966H61.3976C61.3092 24.8966 61.265 24.856 61.265 24.775V23.4491H52.9451C52.8567 23.4491 52.8125 23.4086 52.8125 23.3276V15.6706C52.8125 15.5896 52.8567 15.549 52.9451 15.549H53.6412C53.7222 15.549 53.7627 15.5896 53.7627 15.6706V22.5763H56.6244V15.6706C56.6244 15.5896 56.6649 15.549 56.746 15.549H57.4421C57.5305 15.549 57.5746 15.5896 57.5746 15.6706V22.5763H60.4253V15.6706C60.4253 15.5896 60.4695 15.549 60.5579 15.549H61.254C61.335 15.549 61.3755 15.5896 61.3755 15.6706V22.5763H62.0495C62.1306 22.5763 62.1711 22.6168 62.1711 22.6978V24.775C62.1711 24.856 62.1306 24.8966 62.0495 24.8966Z" fill="white"/>
<path d="M49.2355 13.3952C49.2428 13.3289 49.206 13.2847 49.125 13.2627L48.6388 13.1411C48.5652 13.1337 48.5173 13.1669 48.4952 13.2406C48.3994 13.8593 48.0459 14.1687 47.4345 14.1687C46.8305 14.1687 46.4769 13.8593 46.3738 13.2406C46.3517 13.1669 46.3038 13.1337 46.2301 13.1411L45.744 13.2627C45.6629 13.2847 45.6261 13.3326 45.6335 13.4063C45.6998 13.863 45.8876 14.2313 46.197 14.5112C46.5064 14.7837 46.9189 14.92 47.4345 14.92C47.9575 14.92 48.3737 14.7837 48.683 14.5112C48.9924 14.2313 49.1766 13.8593 49.2355 13.3952ZM49.4896 23.4499C49.4012 23.4499 49.357 23.4094 49.357 23.3284V19.9805C49.357 19.2218 49.3791 18.2605 49.4233 17.0967L49.4012 17.0856C49.1287 17.6086 48.8082 18.1684 48.4399 18.7651L45.534 23.3726C45.5046 23.4241 45.453 23.4499 45.3793 23.4499H44.6059C44.5249 23.4499 44.4844 23.4094 44.4844 23.3284V15.6713C44.4844 15.5903 44.5249 15.5498 44.6059 15.5498H45.291C45.372 15.5498 45.4125 15.5903 45.4125 15.6713V19.0192C45.4125 20.0947 45.3904 21.0928 45.3462 22.0135L45.3793 22.0246C45.4972 21.7962 45.8066 21.2585 46.3075 20.4114L49.2355 15.6382C49.2723 15.5793 49.3239 15.5498 49.3902 15.5498H50.1636C50.252 15.5498 50.2962 15.5903 50.2962 15.6713V23.3284C50.2962 23.4094 50.252 23.4499 50.1636 23.4499H49.4896Z" fill="white"/>
<path d="M42.2359 20.6765C42.2359 21.5678 41.9671 22.2749 41.4293 22.7979C40.8916 23.3135 40.155 23.5713 39.2195 23.5713C38.284 23.5713 37.5474 23.3135 37.0097 22.7979C36.472 22.2749 36.2031 21.5678 36.2031 20.6765V18.3451C36.2031 17.4391 36.472 16.7283 37.0097 16.2127C37.5474 15.6897 38.284 15.4282 39.2195 15.4282C40.155 15.4282 40.8916 15.6897 41.4293 16.2127C41.9671 16.7283 42.2359 17.4391 42.2359 18.3451V20.6765ZM37.1533 20.6765C37.1533 21.3026 37.3338 21.7924 37.6948 22.146C38.0557 22.4996 38.5639 22.6764 39.2195 22.6764C39.8751 22.6764 40.3797 22.4996 40.7332 22.146C41.0942 21.7924 41.2747 21.3026 41.2747 20.6765V18.3451C41.2747 17.6969 41.0942 17.196 40.7332 16.8425C40.3797 16.4815 39.8751 16.3011 39.2195 16.3011C38.5639 16.3011 38.0557 16.4815 37.6948 16.8425C37.3338 17.196 37.1533 17.6969 37.1533 18.3451V20.6765Z" fill="white"/>
<path d="M29.145 15.549H31.8078C32.677 15.549 33.351 15.7774 33.8298 16.2341C34.3086 16.6908 34.548 17.3243 34.548 18.1345C34.548 18.9522 34.3086 19.5893 33.8298 20.046C33.351 20.5027 32.677 20.7311 31.8078 20.7311H29.9626V23.3276C29.9626 23.4086 29.9221 23.4491 29.8411 23.4491H29.145C29.0639 23.4491 29.0234 23.4086 29.0234 23.3276V15.6706C29.0234 15.5896 29.0639 15.549 29.145 15.549ZM29.9626 19.8582H31.7084C32.968 19.8582 33.5978 19.2836 33.5978 18.1345C33.5978 16.9928 32.968 16.4219 31.7084 16.4219H29.9626V19.8582Z" fill="white"/>
<path d="M21.5512 15.549H27.2305C27.3188 15.549 27.363 15.5896 27.363 15.6706V16.2893C27.363 16.3704 27.3188 16.4109 27.2305 16.4109H24.866V23.3276C24.866 23.4086 24.8218 23.4491 24.7334 23.4491H24.0483C23.9599 23.4491 23.9157 23.4086 23.9157 23.3276V16.4109H21.5512C21.4702 16.4109 21.4297 16.3704 21.4297 16.2893V15.6706C21.4297 15.5896 21.4702 15.549 21.5512 15.549Z" fill="white"/>
<path d="M20.3906 22.7316C19.7129 23.2914 18.8769 23.5713 17.8825 23.5713C17.0354 23.5713 16.3393 23.3356 15.7942 22.8642C15.2491 22.3854 14.9766 21.7114 14.9766 20.8422V18.1683C14.9766 17.2918 15.2454 16.6178 15.7831 16.1464C16.3282 15.6676 17.0206 15.4282 17.8604 15.4282C18.7369 15.4282 19.5214 15.686 20.2138 16.2016C20.2728 16.2458 20.2801 16.3011 20.2359 16.3673L19.8824 16.8867C19.8382 16.9456 19.7755 16.9529 19.6945 16.9088C19.1494 16.511 18.5344 16.3121 17.8493 16.3121C17.2306 16.3121 16.7518 16.4778 16.4129 16.8093C16.0815 17.1408 15.9157 17.5938 15.9157 18.1683V20.8312C15.9157 21.4057 16.0852 21.8587 16.424 22.1902C16.7628 22.5217 17.2416 22.6874 17.8604 22.6874C18.6264 22.6874 19.3041 22.4591 19.8934 22.0024C19.9523 21.9434 20.0076 21.9545 20.0591 22.0355L20.4238 22.5438C20.468 22.6248 20.4569 22.6874 20.3906 22.7316Z" fill="white"/>
<path d="M7.89323 23.4491H7.15295C7.06455 23.4491 7.03141 23.4013 7.0535 23.3055L9.80472 15.6485C9.82682 15.5822 9.87102 15.549 9.93731 15.549H10.8102C10.8839 15.549 10.9317 15.5822 10.9538 15.6485L13.694 23.3055C13.7308 23.4013 13.6977 23.4491 13.5946 23.4491H12.8543C12.7806 23.4491 12.7327 23.416 12.7106 23.3497L12.0366 21.383H8.72192L8.03687 23.3497C8.01477 23.416 7.96689 23.4491 7.89323 23.4491ZM10.3572 16.5987L9.00919 20.5101H11.7494L10.4014 16.5987H10.3572Z" fill="white"/>
<path d="M5.64826 17.6048C5.6409 17.9805 5.54145 18.3194 5.34994 18.6214C5.15842 18.9234 4.88219 19.137 4.52126 19.2622C4.94849 19.4169 5.27628 19.6637 5.50462 20.0025C5.74034 20.3413 5.8582 20.7281 5.8582 21.1626C5.8582 21.9214 5.5967 22.5143 5.07371 22.9415C4.55809 23.3614 3.88409 23.5713 3.05173 23.5713C1.91736 23.5713 1.00028 23.2546 0.30051 22.6211C0.241582 22.5622 0.234216 22.4996 0.278412 22.4333L0.643031 21.914C0.694594 21.8403 0.749839 21.833 0.808768 21.8919C1.40542 22.4222 2.15307 22.6874 3.05173 22.6874C3.60418 22.6874 4.04615 22.5511 4.37762 22.2786C4.71646 21.9987 4.88588 21.6267 4.88588 21.1626C4.88588 20.7501 4.72751 20.415 4.41077 20.1572C4.10139 19.8994 3.62996 19.7705 2.99648 19.7705H1.92472C1.8437 19.7705 1.80318 19.73 1.80318 19.6489V19.0412C1.80318 18.9602 1.8437 18.9197 1.92472 18.9197H3.02963C3.55999 18.9197 3.9688 18.7945 4.25608 18.544C4.54335 18.2936 4.68699 17.9879 4.68699 17.6269C4.68699 17.2513 4.53967 16.9382 4.24503 16.6878C3.95039 16.4373 3.54157 16.3121 3.01858 16.3121C2.20095 16.3121 1.51959 16.5515 0.974504 17.0303C0.900843 17.0892 0.838232 17.0819 0.786669 17.0082L0.433099 16.511C0.388903 16.4447 0.392586 16.3821 0.444148 16.3232C1.11446 15.7265 1.9726 15.4282 3.01858 15.4282C3.80675 15.4282 4.44391 15.6381 4.93007 16.058C5.41623 16.4778 5.65563 16.9935 5.64826 17.6048Z" fill="white"/>
<path d="M140.142 0.964667C140.149 0.898372 140.112 0.854176 140.031 0.832078L139.545 0.710538C139.471 0.703172 139.424 0.736319 139.401 0.80998C139.306 1.42873 138.952 1.7381 138.341 1.7381C137.737 1.7381 137.383 1.42873 137.28 0.80998C137.258 0.736319 137.21 0.703172 137.136 0.710538L136.65 0.832078C136.569 0.854176 136.532 0.902055 136.54 0.975716C136.606 1.43241 136.794 1.80071 137.103 2.08062C137.413 2.35317 137.825 2.48944 138.341 2.48944C138.864 2.48944 139.28 2.35317 139.589 2.08062C139.899 1.80071 140.083 1.42873 140.142 0.964667ZM140.396 11.0193C140.307 11.0193 140.263 10.9788 140.263 10.8978V7.54992C140.263 6.79121 140.285 5.82994 140.33 4.66611L140.307 4.65506C140.035 5.17805 139.715 5.73787 139.346 6.33452L136.44 10.942C136.411 10.9935 136.359 11.0193 136.286 11.0193H135.512C135.431 11.0193 135.391 10.9788 135.391 10.8978V3.24078C135.391 3.15975 135.431 3.11924 135.512 3.11924H136.197C136.278 3.11924 136.319 3.15975 136.319 3.24078V6.58865C136.319 7.66409 136.297 8.66219 136.252 9.58294L136.286 9.59399C136.403 9.36565 136.713 8.82792 137.214 7.98083L140.142 3.20763C140.179 3.1487 140.23 3.11924 140.296 3.11924H141.07C141.158 3.11924 141.202 3.15975 141.202 3.24078V10.8978C141.202 10.9788 141.158 11.0193 141.07 11.0193H140.396Z" fill="white"/>
<path d="M127.92 11.0186H125.312C125.224 11.0186 125.18 10.978 125.18 10.897V3.24001C125.18 3.15898 125.224 3.11847 125.312 3.11847H126.008C126.089 3.11847 126.13 3.15898 126.13 3.24001V5.96913H127.876C128.752 5.96913 129.43 6.19011 129.909 6.63208C130.387 7.06667 130.627 7.68174 130.627 8.47727C130.627 9.28017 130.391 9.90628 129.92 10.3556C129.448 10.7976 128.782 11.0186 127.92 11.0186ZM132.748 11.0186H132.052C131.964 11.0186 131.92 10.978 131.92 10.897V3.24001C131.92 3.15898 131.964 3.11847 132.052 3.11847H132.748C132.829 3.11847 132.87 3.15898 132.87 3.24001V10.897C132.87 10.978 132.829 11.0186 132.748 11.0186ZM126.13 6.85306V10.1346H127.92C129.076 10.1346 129.655 9.58218 129.655 8.47727C129.655 7.39446 129.076 6.85306 127.92 6.85306H126.13Z" fill="white"/>
<path d="M121.723 6.57683V3.24001C121.723 3.15898 121.768 3.11847 121.856 3.11847H122.541C122.622 3.11847 122.662 3.15898 122.662 3.24001V10.897C122.662 10.978 122.622 11.0186 122.541 11.0186H121.856C121.768 11.0186 121.723 10.978 121.723 10.897V7.43866H118.033V10.897C118.033 10.978 117.992 11.0186 117.911 11.0186H117.226C117.138 11.0186 117.094 10.978 117.094 10.897V3.24001C117.094 3.15898 117.138 3.11847 117.226 3.11847H117.911C117.992 3.11847 118.033 3.15898 118.033 3.24001V6.57683H121.723Z" fill="white"/>
<path d="M113.645 6.57683V3.24001C113.645 3.15898 113.689 3.11847 113.778 3.11847H114.463C114.544 3.11847 114.584 3.15898 114.584 3.24001V10.897C114.584 10.978 114.544 11.0186 114.463 11.0186H113.778C113.689 11.0186 113.645 10.978 113.645 10.897V7.43866H109.955V10.897C109.955 10.978 109.914 11.0186 109.833 11.0186H109.148C109.06 11.0186 109.016 10.978 109.016 10.897V3.24001C109.016 3.15898 109.06 3.11847 109.148 3.11847H109.833C109.914 3.11847 109.955 3.15898 109.955 3.24001V6.57683H113.645Z" fill="white"/>
<path d="M101.573 11.0186H100.833C100.744 11.0186 100.711 10.9707 100.733 10.8749L103.484 3.21791C103.507 3.15162 103.551 3.11847 103.617 3.11847H104.49C104.564 3.11847 104.611 3.15162 104.634 3.21791L107.374 10.8749C107.411 10.9707 107.377 11.0186 107.274 11.0186H106.534C106.46 11.0186 106.412 10.9854 106.39 10.9191L105.716 8.95238H102.402L101.717 10.9191C101.694 10.9854 101.647 11.0186 101.573 11.0186ZM104.037 4.16813L102.689 8.0795H105.429L104.081 4.16813H104.037Z" fill="white"/>
<path d="M99.268 5.1957C99.268 5.564 99.1832 5.89179 99.0138 6.17906C98.8518 6.45897 98.6234 6.66891 98.3288 6.80886C98.7339 6.95618 99.047 7.19926 99.268 7.5381C99.4889 7.86957 99.5994 8.26734 99.5994 8.7314C99.5994 9.45327 99.36 10.0168 98.8812 10.4219C98.4098 10.8197 97.7432 11.0186 96.8814 11.0186H94.2185C94.1301 11.0186 94.0859 10.978 94.0859 10.897V3.24001C94.0859 3.15898 94.1301 3.11847 94.2185 3.11847H96.8924C97.6658 3.11847 98.2551 3.3063 98.6603 3.68197C99.0654 4.05027 99.268 4.55485 99.268 5.1957ZM95.0251 10.1678H96.8924C97.4522 10.1678 97.8831 10.0499 98.1851 9.81421C98.4945 9.57113 98.6492 9.21019 98.6492 8.7314C98.6492 8.28207 98.5056 7.9285 98.2183 7.67069C97.9384 7.40551 97.5185 7.27292 96.9587 7.27292H95.0251V10.1678ZM98.3177 5.1957C98.3177 4.81266 98.1962 4.51434 97.9531 4.30072C97.71 4.07974 97.3565 3.96925 96.8924 3.96925H95.0251V6.42214H96.9587C97.3786 6.42214 97.71 6.31902 97.9531 6.11277C98.1962 5.90652 98.3177 5.60083 98.3177 5.1957Z" fill="white"/>
<path d="M91.8453 8.2459C91.8453 9.13719 91.5764 9.84433 91.0387 10.3673C90.501 10.8829 89.7644 11.1408 88.8289 11.1408C87.8934 11.1408 87.1568 10.8829 86.6191 10.3673C86.0814 9.84433 85.8125 9.13719 85.8125 8.2459V5.91454C85.8125 5.00852 86.0814 4.2977 86.6191 3.78207C87.1568 3.25908 87.8934 2.99759 88.8289 2.99759C89.7644 2.99759 90.501 3.25908 91.0387 3.78207C91.5764 4.2977 91.8453 5.00852 91.8453 5.91454V8.2459ZM86.7627 8.2459C86.7627 8.87201 86.9432 9.36186 87.3041 9.71543C87.6651 10.069 88.1733 10.2458 88.8289 10.2458C89.4845 10.2458 89.989 10.069 90.3426 9.71543C90.7036 9.36186 90.884 8.87201 90.884 8.2459V5.91454C90.884 5.26633 90.7036 4.76544 90.3426 4.41187C89.989 4.05093 89.4845 3.87047 88.8289 3.87047C88.1733 3.87047 87.6651 4.05093 87.3041 4.41187C86.9432 4.76544 86.7627 5.26633 86.7627 5.91454V8.2459Z" fill="white"/>
<path d="M78.7543 3.11847H81.4172C82.2864 3.11847 82.9604 3.34682 83.4392 3.80351C83.918 4.26021 84.1574 4.89369 84.1574 5.70395C84.1574 6.52158 83.918 7.15875 83.4392 7.61544C82.9604 8.07214 82.2864 8.30049 81.4172 8.30049H79.572V10.897C79.572 10.978 79.5315 11.0186 79.4504 11.0186H78.7543C78.6733 11.0186 78.6328 10.978 78.6328 10.897V3.24001C78.6328 3.15898 78.6733 3.11847 78.7543 3.11847ZM79.572 7.42761H81.3177C82.5773 7.42761 83.2071 6.85306 83.2071 5.70395C83.2071 4.56221 82.5773 3.99135 81.3177 3.99135H79.572V7.42761Z" fill="white"/>
<path d="M75.9761 11.0186H75.3021C75.2137 11.0186 75.1695 10.978 75.1695 10.897V7.54915C75.1695 6.79781 75.1916 5.84022 75.2358 4.67639L75.2137 4.65429C74.9412 5.17728 74.6207 5.7371 74.2524 6.33375L71.3465 10.9412C71.3171 10.9928 71.2655 11.0186 71.1918 11.0186H70.4184C70.3374 11.0186 70.2969 10.978 70.2969 10.897V3.24001C70.2969 3.15898 70.3374 3.11847 70.4184 3.11847H71.1035C71.1845 3.11847 71.225 3.15898 71.225 3.24001V6.58788C71.225 7.65596 71.2029 8.64669 71.1587 9.56008L71.1918 9.59323C71.3097 9.36488 71.6191 8.82716 72.12 7.98006L75.048 3.20686C75.0848 3.14793 75.1364 3.11847 75.2027 3.11847H75.9761C76.0645 3.11847 76.1087 3.15898 76.1087 3.24001V10.897C76.1087 10.978 76.0645 11.0186 75.9761 11.0186Z" fill="white"/>
<path d="M67.9608 5.17426C67.9534 5.54993 67.854 5.88876 67.6624 6.19077C67.4709 6.49278 67.1947 6.70639 66.8338 6.83162C67.261 6.9863 67.5888 7.23307 67.8171 7.57191C68.0528 7.91074 68.1707 8.29746 68.1707 8.73206C68.1707 9.49076 67.9092 10.0837 67.3862 10.511C66.8706 10.9308 66.1966 11.1408 65.3642 11.1408C64.2299 11.1408 63.3128 10.824 62.613 10.1905C62.5541 10.1316 62.5467 10.069 62.5909 10.0027L62.9555 9.4834C63.0071 9.40974 63.0623 9.40237 63.1213 9.4613C63.7179 9.99165 64.4656 10.2568 65.3642 10.2568C65.9167 10.2568 66.3586 10.1206 66.6901 9.84802C67.029 9.56811 67.1984 9.19612 67.1984 8.73206C67.1984 8.31956 67.04 7.98441 66.7233 7.72659C66.4139 7.46878 65.9425 7.33988 65.309 7.33988H64.2372C64.1562 7.33988 64.1157 7.29936 64.1157 7.21834V6.61064C64.1157 6.52961 64.1562 6.4891 64.2372 6.4891H65.3421C65.8725 6.4891 66.2813 6.36387 66.5686 6.11343C66.8559 5.86298 66.9995 5.55729 66.9995 5.19635C66.9995 4.82069 66.8522 4.50763 66.5575 4.25718C66.2629 4.00674 65.8541 3.88151 65.3311 3.88151C64.5134 3.88151 63.8321 4.12091 63.287 4.5997C63.2133 4.65863 63.1507 4.65127 63.0992 4.57761L62.7456 4.0804C62.7014 4.0141 62.7051 3.95149 62.7566 3.89256C63.427 3.29591 64.2851 2.99759 65.3311 2.99759C66.1192 2.99759 66.7564 3.20752 67.2426 3.62739C67.7287 4.04725 67.9681 4.56287 67.9608 5.17426Z" fill="white"/>
<path d="M60.5777 11.0186H59.9037C59.8153 11.0186 59.7711 10.978 59.7711 10.897V7.54915C59.7711 6.79781 59.7932 5.84022 59.8374 4.67639L59.8153 4.65429C59.5427 5.17728 59.2223 5.7371 58.854 6.33375L55.9481 10.9412C55.9186 10.9928 55.8671 11.0186 55.7934 11.0186H55.02C54.9389 11.0186 54.8984 10.978 54.8984 10.897V3.24001C54.8984 3.15898 54.9389 3.11847 55.02 3.11847H55.705C55.786 3.11847 55.8266 3.15898 55.8266 3.24001V6.58788C55.8266 7.65596 55.8045 8.64669 55.7603 9.56008L55.7934 9.59323C55.9113 9.36488 56.2206 8.82716 56.7215 7.98006L59.6495 3.20686C59.6864 3.14793 59.7379 3.11847 59.8042 3.11847H60.5777C60.6661 3.11847 60.7103 3.15898 60.7103 3.24001V10.897C60.7103 10.978 60.6661 11.0186 60.5777 11.0186Z" fill="white"/>
<path d="M48.3647 8.58776C48.21 9.47905 47.9706 10.1089 47.6465 10.4772C47.3224 10.8455 46.8584 11.037 46.2543 11.0517C46.1733 11.0517 46.1328 11.0112 46.1328 10.9302V10.3004C46.1328 10.2193 46.1733 10.1788 46.2543 10.1788C46.6079 10.1567 46.8694 10.0205 47.0388 9.77001C47.2156 9.5122 47.3593 9.04446 47.4697 8.36678C47.6318 7.39446 47.7497 5.68554 47.8233 3.24001C47.8233 3.15898 47.8638 3.11847 47.9449 3.11847H52.254C52.335 3.11847 52.3755 3.15898 52.3755 3.24001V10.897C52.3755 10.978 52.335 11.0186 52.254 11.0186H51.5579C51.4769 11.0186 51.4364 10.978 51.4364 10.897V3.99135H48.7183C48.6667 5.92125 48.5489 7.45339 48.3647 8.58776Z" fill="white"/>
<path d="M39.5651 11.0186H38.8248C38.7364 11.0186 38.7033 10.9707 38.7254 10.8749L41.4766 3.21791C41.4987 3.15162 41.5429 3.11847 41.6092 3.11847H42.4821C42.5557 3.11847 42.6036 3.15162 42.6257 3.21791L45.3659 10.8749C45.4027 10.9707 45.3696 11.0186 45.2664 11.0186H44.5261C44.4525 11.0186 44.4046 10.9854 44.3825 10.9191L43.7085 8.95238H40.3938L39.7087 10.9191C39.6866 10.9854 39.6388 11.0186 39.5651 11.0186ZM42.0291 4.16813L40.6811 8.0795H43.4212L42.0732 4.16813H42.0291Z" fill="white"/>
<path d="M36.9605 11.0186H36.2865C36.1981 11.0186 36.1539 10.978 36.1539 10.897V7.54915C36.1539 6.79781 36.176 5.84022 36.2202 4.67639L36.1981 4.65429C35.9255 5.17728 35.6051 5.7371 35.2368 6.33375L32.3309 10.9412C32.3014 10.9928 32.2499 11.0186 32.1762 11.0186H31.4028C31.3218 11.0186 31.2812 10.978 31.2812 10.897V3.24001C31.2812 3.15898 31.3218 3.11847 31.4028 3.11847H32.0878C32.1689 3.11847 32.2094 3.15898 32.2094 3.24001V6.58788C32.2094 7.65596 32.1873 8.64669 32.1431 9.56008L32.1762 9.59323C32.2941 9.36488 32.6035 8.82716 33.1043 7.98006L36.0324 3.20686C36.0692 3.14793 36.1207 3.11847 36.187 3.11847H36.9605C37.0489 3.11847 37.0931 3.15898 37.0931 3.24001V10.897C37.0931 10.978 37.0489 11.0186 36.9605 11.0186Z" fill="white"/>
<path d="M29.1888 12.466H28.5369C28.4559 12.466 28.4154 12.4255 28.4154 12.3444V11.0186H23.156C23.0676 11.0186 23.0234 10.978 23.0234 10.897V3.24001C23.0234 3.15898 23.0676 3.11847 23.156 3.11847H23.8411C23.9221 3.11847 23.9626 3.15898 23.9626 3.24001V10.1457H27.5867V3.24001C27.5867 3.15898 27.6272 3.11847 27.7082 3.11847H28.3933C28.4817 3.11847 28.5259 3.15898 28.5259 3.24001V10.1457H29.1888C29.2772 10.1457 29.3214 10.1862 29.3214 10.2672V12.3444C29.3214 12.4255 29.2772 12.466 29.1888 12.466Z" fill="white"/>
<path d="M17.0205 7.43866V10.1567H20.8214C20.9024 10.1567 20.943 10.1972 20.943 10.2783V10.897C20.943 10.978 20.9024 11.0186 20.8214 11.0186H16.2029C16.1145 11.0186 16.0703 10.978 16.0703 10.897V3.24001C16.0703 3.15898 16.1145 3.11847 16.2029 3.11847H20.6667C20.7478 3.11847 20.7883 3.15898 20.7883 3.24001V3.85876C20.7883 3.93978 20.7478 3.9803 20.6667 3.9803H17.0205V6.56578H20.4126C20.4936 6.56578 20.5341 6.60998 20.5341 6.69837V7.30607C20.5341 7.39446 20.4936 7.43866 20.4126 7.43866H17.0205Z" fill="white"/>
<path d="M8.78962 11.0186H8.09353C8.00513 11.0186 7.96094 10.978 7.96094 10.897V3.24001C7.96094 3.15898 8.00513 3.11847 8.09353 3.11847H13.4302C13.5186 3.11847 13.5628 3.15898 13.5628 3.24001V10.897C13.5628 10.978 13.5186 11.0186 13.4302 11.0186H12.7341C12.6531 11.0186 12.6126 10.978 12.6126 10.897V3.9803H8.91116V10.897C8.91116 10.978 8.87064 11.0186 8.78962 11.0186Z" fill="white"/>
<path d="M6.0703 10.301C5.39262 10.8608 4.55657 11.1408 3.56216 11.1408C2.71506 11.1408 2.01897 10.905 1.47388 10.4336C0.928794 9.95482 0.65625 9.28083 0.65625 8.41164V5.73776C0.65625 4.8612 0.925111 4.18721 1.46283 3.71578C2.00792 3.23699 2.70033 2.99759 3.54006 2.99759C4.41662 2.99759 5.2011 3.2554 5.89351 3.77102C5.95244 3.81522 5.95981 3.87047 5.91561 3.93676L5.56204 4.45607C5.51784 4.515 5.45523 4.52236 5.3742 4.47817C4.82912 4.0804 4.21405 3.88151 3.52901 3.88151C2.91026 3.88151 2.43147 4.04725 2.09263 4.37872C1.76116 4.7102 1.59542 5.16321 1.59542 5.73776V8.40059C1.59542 8.97514 1.76484 9.42815 2.10368 9.75962C2.44252 10.0911 2.92131 10.2568 3.54006 10.2568C4.30613 10.2568 4.9838 10.0285 5.57309 9.57179C5.63202 9.51286 5.68726 9.52391 5.73882 9.60494L6.10344 10.1132C6.14764 10.1942 6.13659 10.2568 6.0703 10.301Z" fill="white"/>
</svg>
