<svg width="18" height="18" viewBox="0 0 18 18" fill="none" xmlns="http://www.w3.org/2000/svg">
<g clip-path="url(#clip0_4036_3194)">
<path d="M13.5386 5.66085L10.2556 8.94385L13.5386 12.2268C13.7127 12.401 13.8106 12.6372 13.8106 12.8834C13.8106 13.1297 13.7127 13.3659 13.5386 13.54C13.3644 13.7142 13.1283 13.812 12.882 13.812C12.6357 13.812 12.3995 13.7142 12.2254 13.54L8.94239 10.257L5.65939 13.54C5.48525 13.7142 5.24907 13.812 5.00279 13.812C4.75652 13.812 4.52033 13.7142 4.34619 13.54C4.17205 13.3659 4.07422 13.1297 4.07422 12.8834C4.07422 12.6372 4.17205 12.401 4.34619 12.2268L7.62919 8.94385L4.34619 5.66085C4.17205 5.48671 4.07422 5.25052 4.07422 5.00425C4.07422 4.75798 4.17205 4.52179 4.34619 4.34765C4.52034 4.17351 4.75652 4.07568 5.00279 4.07568C5.24907 4.07568 5.48525 4.17351 5.65939 4.34765L8.94239 7.63065L12.2254 4.34765C12.3995 4.17351 12.6357 4.07568 12.882 4.07568C13.1283 4.07568 13.3644 4.17351 13.5386 4.34765C13.7127 4.52179 13.8106 4.75798 13.8106 5.00425C13.8106 5.25052 13.7127 5.48671 13.5386 5.66085Z" fill="black"/>
</g>
<defs>
<clipPath id="clip0_4036_3194">
<rect width="18" height="18" fill="white"/>
</clipPath>
</defs>
</svg>
