<svg width="79" height="79" viewBox="0 0 79 79" fill="none" xmlns="http://www.w3.org/2000/svg">
<g clip-path="url(#clip0_2501_28482)">
<g filter="url(#filter0_b_2501_28482)">
<path d="M78.3406 39.5C78.3406 60.9517 60.9506 78.3417 39.499 78.3417C18.0473 78.3417 0.657292 60.9517 0.657292 39.5C0.657292 18.0483 18.0473 0.658329 39.499 0.658329C60.9506 0.658329 78.3406 18.0483 78.3406 39.5Z" stroke="black" stroke-opacity="0.1" stroke-width="0.658333"/>
</g>
<path d="M39.8236 39.4467L25.2344 24.8574" stroke="black"/>
<path opacity="0.24" d="M54.4096 54.0365L39.8203 39.4473" stroke="black" stroke-width="0.521044"/>
<path opacity="0.24" d="M39.817 39.4467L54.4062 24.8574" stroke="black" stroke-width="0.521044"/>
<path opacity="0.24" d="M25.2311 54.0365L39.8203 39.4473" stroke="black" stroke-width="0.521044"/>
<path d="M23.5485 23.5258C23.1011 23.8954 22.5492 24.0802 21.8926 24.0802C21.3334 24.0802 20.8738 23.9246 20.514 23.6134C20.1541 23.2973 19.9742 22.8523 19.9742 22.2785V20.5132C19.9742 19.9345 20.1517 19.4895 20.5067 19.1783C20.8665 18.8622 21.3237 18.7041 21.878 18.7041C22.4568 18.7041 22.9747 18.8743 23.4318 19.2147C23.4707 19.2439 23.4756 19.2804 23.4464 19.3241L23.213 19.667C23.1838 19.7059 23.1424 19.7108 23.089 19.6816C22.7291 19.419 22.323 19.2877 21.8708 19.2877C21.4623 19.2877 21.1462 19.3971 20.9225 19.6159C20.7036 19.8348 20.5942 20.1338 20.5942 20.5132V22.2712C20.5942 22.6505 20.706 22.9496 20.9297 23.1684C21.1534 23.3873 21.4695 23.4967 21.878 23.4967C22.3838 23.4967 22.8312 23.3459 23.2203 23.0444C23.2592 23.0055 23.2956 23.0128 23.3297 23.0663L23.5704 23.4018C23.5996 23.4553 23.5923 23.4967 23.5485 23.5258Z" fill="black"/>
<path d="M59.5235 20.1557C59.5235 20.3989 59.4676 20.6153 59.3557 20.805C59.2488 20.9898 59.098 21.1284 58.9035 21.2207C59.171 21.318 59.3776 21.4785 59.5235 21.7022C59.6694 21.921 59.7424 22.1836 59.7424 22.49C59.7424 22.9666 59.5843 23.3386 59.2682 23.6061C58.957 23.8687 58.5169 24 57.9479 24H56.1899C56.1315 24 56.1023 23.9733 56.1023 23.9198V18.8646C56.1023 18.8111 56.1315 18.7843 56.1899 18.7843H57.9552C58.4658 18.7843 58.8549 18.9084 59.1223 19.1564C59.3898 19.3995 59.5235 19.7326 59.5235 20.1557ZM56.7224 23.4383H57.9552C58.3248 23.4383 58.6093 23.3605 58.8087 23.2049C59.0129 23.0444 59.115 22.8061 59.115 22.49C59.115 22.1934 59.0202 21.9599 58.8305 21.7897C58.6457 21.6147 58.3685 21.5271 57.9989 21.5271H56.7224V23.4383ZM58.8962 20.1557C58.8962 19.9029 58.8159 19.7059 58.6555 19.5649C58.495 19.419 58.2616 19.346 57.9552 19.346H56.7224V20.9654H57.9989C58.2761 20.9654 58.495 20.8974 58.6555 20.7612C58.8159 20.625 58.8962 20.4232 58.8962 20.1557Z" fill="black"/>
<path d="M23.2713 57.1353C23.2665 57.3834 23.2008 57.6071 23.0744 57.8065C22.9479 58.0058 22.7656 58.1469 22.5273 58.2295C22.8093 58.3317 23.0257 58.4946 23.1765 58.7183C23.3321 58.942 23.4099 59.1973 23.4099 59.4842C23.4099 59.9851 23.2373 60.3766 22.892 60.6586C22.5516 60.9358 22.1066 61.0744 21.5571 61.0744C20.8082 61.0744 20.2027 60.8653 19.7407 60.4471C19.7018 60.4082 19.697 60.3669 19.7261 60.3231L19.9669 59.9802C20.0009 59.9316 20.0374 59.9268 20.0763 59.9657C20.4702 60.3158 20.9638 60.4909 21.5571 60.4909C21.9218 60.4909 22.2136 60.4009 22.4324 60.221C22.6561 60.0362 22.768 59.7906 22.768 59.4842C22.768 59.2119 22.6634 58.9906 22.4543 58.8204C22.2501 58.6502 21.9388 58.5651 21.5206 58.5651H20.813C20.7595 58.5651 20.7328 58.5383 20.7328 58.4849V58.0836C20.7328 58.0302 20.7595 58.0034 20.813 58.0034H21.5425C21.8926 58.0034 22.1625 57.9207 22.3522 57.7554C22.5419 57.59 22.6367 57.3882 22.6367 57.1499C22.6367 56.9019 22.5394 56.6952 22.3449 56.5299C22.1504 56.3645 21.8805 56.2819 21.5352 56.2819C20.9954 56.2819 20.5456 56.4399 20.1857 56.756C20.1371 56.7949 20.0957 56.7901 20.0617 56.7414L19.8283 56.4132C19.7991 56.3694 19.8015 56.3281 19.8356 56.2892C20.2781 55.8953 20.8446 55.6983 21.5352 55.6983C22.0555 55.6983 22.4762 55.8369 22.7972 56.1141C23.1181 56.3913 23.2762 56.7317 23.2713 57.1353Z" fill="black"/>
<path d="M61.5733 59.2654C61.5733 59.8392 61.3885 60.2842 61.0189 60.6003C60.6542 60.9164 60.2019 61.0744 59.6621 61.0744C59.1175 61.0744 58.6603 60.9164 58.2907 60.6003C57.926 60.2842 57.7436 59.8392 57.7436 59.2654V58.6089H56.7224V60.914C56.7224 60.9675 56.6956 60.9942 56.6421 60.9942H56.1826C56.1291 60.9942 56.1023 60.9675 56.1023 60.914V55.8588C56.1023 55.8053 56.1291 55.7785 56.1826 55.7785H56.6421C56.6956 55.7785 56.7224 55.8053 56.7224 55.8588V58.0326H57.7436V57.5147C57.7436 56.9311 57.926 56.4837 58.2907 56.1725C58.6603 55.8564 59.1175 55.6983 59.6621 55.6983C60.2068 55.6983 60.6615 55.8564 61.0262 56.1725C61.3909 56.4886 61.5733 56.936 61.5733 57.5147V59.2654ZM58.3783 59.2654C58.3783 59.6544 58.4998 59.9559 58.743 60.1699C58.9862 60.3839 59.2925 60.4909 59.6621 60.4909C60.0317 60.4909 60.3357 60.3839 60.574 60.1699C60.8171 59.9559 60.9387 59.6544 60.9387 59.2654V57.5147C60.9387 57.1062 60.8195 56.7998 60.5812 56.5955C60.343 56.3864 60.0366 56.2819 59.6621 56.2819C59.2828 56.2819 58.974 56.3864 58.7357 56.5955C58.4974 56.7998 58.3783 57.1062 58.3783 57.5147V59.2654Z" fill="black"/>
</g>
<defs>
<filter id="filter0_b_2501_28482" x="-7.57188" y="-7.57084" width="94.1438" height="94.1417" filterUnits="userSpaceOnUse" color-interpolation-filters="sRGB">
<feFlood flood-opacity="0" result="BackgroundImageFix"/>
<feGaussianBlur in="BackgroundImageFix" stdDeviation="3.95"/>
<feComposite in2="SourceAlpha" operator="in" result="effect1_backgroundBlur_2501_28482"/>
<feBlend mode="normal" in="SourceGraphic" in2="effect1_backgroundBlur_2501_28482" result="shape"/>
</filter>
</defs>
</svg>
