<svg width="259" height="228" viewBox="0 0 259 228" fill="none" xmlns="http://www.w3.org/2000/svg">
<g clip-path="url(#clip0_2980_71324)">
<path fill-rule="evenodd" clip-rule="evenodd" d="M233.283 118.337C233.283 130.535 228.429 142.233 219.789 150.858C211.149 159.483 199.43 164.328 187.21 164.328C174.991 164.328 163.272 159.483 154.632 150.858C145.991 142.233 141.137 130.535 141.137 118.337C141.137 106.139 145.991 94.4413 154.632 85.8163C163.272 77.1912 174.991 72.3457 187.21 72.3457C199.43 72.3457 211.149 77.1912 219.789 85.8163C228.429 94.4413 233.283 106.139 233.283 118.337ZM187.21 179.659C166.845 179.659 147.313 187.735 132.913 202.11C118.512 216.485 110.422 235.982 110.422 256.311C110.419 257.32 110.615 258.319 111 259.252C111.384 260.184 111.949 261.032 112.663 261.746C113.376 262.46 114.224 263.027 115.157 263.414C116.09 263.801 117.09 264 118.101 264H146.745H256.32C258.356 264 260.31 263.192 261.75 261.754C263.19 260.317 263.999 258.367 263.999 256.334C263.999 246.268 262.013 236.301 258.154 227.001C254.295 217.701 248.638 209.251 241.508 202.133C234.377 195.015 225.912 189.369 216.596 185.517C207.28 181.665 197.294 179.682 187.21 179.682V179.659Z" fill="url(#paint0_linear_2980_71324)" fill-opacity="0.05"/>
<path fill-rule="evenodd" clip-rule="evenodd" d="M108.893 78.9913C108.893 91.189 104.039 102.887 95.3983 111.512C86.7579 120.137 75.0391 124.983 62.8197 124.983C50.6004 124.983 38.8815 120.137 30.2412 111.512C21.6008 102.887 16.7467 91.189 16.7467 78.9913C16.7467 66.7937 21.6008 55.0956 30.2412 46.4706C38.8815 37.8455 50.6004 33 62.8197 33C75.0391 33 86.7579 37.8455 95.3983 46.4706C104.039 55.0956 108.893 66.7937 108.893 78.9913ZM62.8197 140.313C42.4542 140.313 22.9227 148.389 8.5221 162.764C-5.87852 177.139 -13.9687 196.636 -13.9687 216.965C-13.9718 217.974 -13.7754 218.973 -13.3909 219.906C-13.0064 220.839 -12.4412 221.686 -11.7279 222.401C-11.0145 223.115 -10.167 223.681 -9.23381 224.068C-8.30065 224.455 -7.30022 224.654 -6.28986 224.654H22.3546H131.929C133.966 224.654 135.919 223.846 137.359 222.409C138.799 220.971 139.608 219.022 139.608 216.989C139.608 206.923 137.622 196.955 133.763 187.655C129.904 178.355 124.248 169.905 117.117 162.787C109.987 155.669 101.522 150.023 92.2054 146.171C82.889 142.319 72.9037 140.336 62.8197 140.336V140.313Z" fill="url(#paint1_linear_2980_71324)" fill-opacity="0.05"/>
</g>
<defs>
<linearGradient id="paint0_linear_2980_71324" x1="187.21" y1="72.3457" x2="187.21" y2="264" gradientUnits="userSpaceOnUse">
<stop stop-color="white"/>
<stop offset="1" stop-color="white" stop-opacity="0"/>
</linearGradient>
<linearGradient id="paint1_linear_2980_71324" x1="62.8197" y1="33" x2="62.8197" y2="224.654" gradientUnits="userSpaceOnUse">
<stop stop-color="white"/>
<stop offset="1" stop-color="white" stop-opacity="0"/>
</linearGradient>
<clipPath id="clip0_2980_71324">
<rect width="264" height="264" fill="white"/>
</clipPath>
</defs>
</svg>
