<svg width="261" height="237" viewBox="0 0 261 237" fill="none" xmlns="http://www.w3.org/2000/svg">
<g clip-path="url(#clip0_2980_71336)">
<path d="M207.018 98.7039C218.061 102.92 228.089 109.423 236.444 117.785C250.131 131.481 258.659 149.489 260.583 168.755C262.506 188.021 257.706 207.36 246.996 223.49L257.585 251.809C257.93 252.733 258.023 253.732 257.857 254.705C257.69 255.677 257.269 256.588 256.637 257.345C256.005 258.102 255.184 258.679 254.257 259.016C253.33 259.354 252.33 259.44 251.359 259.266L213.849 252.517C196.739 260.865 177.299 263.144 158.722 258.982C140.144 254.819 123.536 244.462 111.624 229.611C99.7115 214.761 93.2046 196.3 93.172 177.263C93.1394 158.225 99.5829 139.742 111.444 124.851C118.803 115.6 128.035 108.009 138.533 102.575C149.031 97.1412 160.559 93.9874 172.362 93.3202C184.164 92.6531 195.974 94.4878 207.018 98.7039Z" fill="url(#paint0_linear_2980_71336)" fill-opacity="0.05"/>
<path d="M90.9718 8.64094C77.6793 13.7157 65.6093 21.5423 55.553 31.6078C39.0792 48.092 28.8144 69.767 26.4995 92.9565C24.1847 116.146 29.9623 139.422 42.8525 158.838L30.1071 192.923C29.6927 194.036 29.58 195.238 29.7805 196.409C29.9809 197.579 30.4874 198.675 31.2484 199.587C32.0094 200.498 32.998 201.192 34.1138 201.598C35.2296 202.004 36.4329 202.108 37.6017 201.899L82.7492 193.776C103.343 203.823 126.743 206.567 149.102 201.557C171.462 196.546 191.453 184.08 205.791 166.205C220.129 148.331 227.961 126.111 228 103.197C228.039 80.2823 220.283 58.0359 206.007 40.1123C197.149 28.9776 186.038 19.8407 173.402 13.3003C160.766 6.75998 146.89 2.96391 132.685 2.16094C118.479 1.35796 104.264 3.56621 90.9718 8.64094Z" fill="url(#paint1_linear_2980_71336)" fill-opacity="0.05"/>
</g>
<defs>
<linearGradient id="paint0_linear_2980_71336" x1="177.085" y1="93.1865" x2="177.085" y2="261.012" gradientUnits="userSpaceOnUse">
<stop stop-color="white"/>
<stop offset="1" stop-color="white" stop-opacity="0"/>
</linearGradient>
<linearGradient id="paint1_linear_2980_71336" x1="127" y1="2" x2="127" y2="204" gradientUnits="userSpaceOnUse">
<stop stop-color="white"/>
<stop offset="1" stop-color="white" stop-opacity="0.17"/>
</linearGradient>
<clipPath id="clip0_2980_71336">
<rect width="261" height="261" fill="white"/>
</clipPath>
</defs>
</svg>
