<svg width="185" height="176" viewBox="0 0 185 176" fill="none" xmlns="http://www.w3.org/2000/svg">
<g clip-path="url(#clip0_2980_71330)">
<path fill-rule="evenodd" clip-rule="evenodd" d="M0 19.8214C0 8.94607 8.98571 0 19.8214 0H165.179C176.014 0 185 8.95928 185 19.8214V57.5218C185 112.176 151.832 163.315 100.283 183.427C97.7816 184.448 95.1093 184.986 92.4075 185.013C89.7682 184.962 87.1611 184.424 84.7168 183.427C33.1679 163.315 0 112.176 0 57.5218V19.8214ZM139.543 59.57C140.469 58.6087 141.191 57.4703 141.667 56.223C142.142 54.9758 142.361 53.6453 142.309 52.3115C142.258 50.9777 141.937 49.6681 141.367 48.4611C140.797 47.2542 139.989 46.1748 138.992 45.2878C137.994 44.4008 136.828 43.7244 135.563 43.2992C134.297 42.8741 132.959 42.7088 131.629 42.8135C130.298 42.9182 129.002 43.2906 127.819 43.9083C126.636 44.5261 125.589 45.3765 124.743 46.4086L77.9379 99.0543L58.8036 84.7036C57.7624 83.9227 56.5776 83.3545 55.3168 83.0315C54.056 82.7085 52.744 82.637 51.4556 82.821C50.1671 83.0051 48.9276 83.4411 47.8077 84.1042C46.6878 84.7673 45.7095 85.6445 44.9286 86.6857C44.1477 87.7269 43.5795 88.9117 43.2565 90.1725C42.9335 91.4333 42.862 92.7453 43.046 94.0337C43.2301 95.3221 43.6661 96.5617 44.3292 97.6816C44.9923 98.8015 45.8695 99.7798 46.9107 100.561L73.3393 120.382C75.328 121.871 77.8034 122.559 80.2752 122.309C82.747 122.06 85.0349 120.891 86.6857 119.034L139.543 59.57Z" fill="url(#paint0_linear_2980_71330)" fill-opacity="0.05"/>
</g>
<defs>
<linearGradient id="paint0_linear_2980_71330" x1="92.5" y1="0" x2="92.5" y2="185.013" gradientUnits="userSpaceOnUse">
<stop stop-color="white"/>
<stop offset="1" stop-color="white" stop-opacity="0"/>
</linearGradient>
<clipPath id="clip0_2980_71330">
<rect width="185" height="185" fill="white"/>
</clipPath>
</defs>
</svg>
