<svg width="140" height="140" viewBox="0 0 140 140" fill="none" xmlns="http://www.w3.org/2000/svg">
<rect width="140" height="140" rx="70" fill="#FF6100"/>
<path d="M38.9497 61.256L42.5337 66.776C42.5764 66.8293 42.587 66.8827 42.5657 66.936C42.5444 66.9787 42.4964 67 42.4217 67H41.1897C41.0937 67 41.019 66.9573 40.9657 66.872L38.1657 62.328L35.3497 66.872C35.2964 66.9573 35.2217 67 35.1257 67H33.8937C33.819 67 33.7657 66.9787 33.7337 66.936C33.7124 66.8827 33.723 66.8293 33.7657 66.776L37.3657 61.256L33.9417 55.784C33.899 55.7307 33.8884 55.6827 33.9097 55.64C33.9417 55.5867 33.995 55.56 34.0697 55.56H35.2857C35.371 55.56 35.4404 55.6027 35.4937 55.688L38.1657 60.152L40.8217 55.688C40.875 55.6027 40.9444 55.56 41.0297 55.56H42.2457C42.3097 55.56 42.3524 55.5867 42.3737 55.64C42.4057 55.6827 42.4004 55.7307 42.3577 55.784L38.9497 61.256ZM50.4103 64.04C50.4103 64.9893 50.0903 65.752 49.4503 66.328C48.821 66.8933 47.9676 67.176 46.8903 67.176C45.813 67.176 44.9543 66.888 44.3143 66.312C43.685 65.736 43.3703 64.9787 43.3703 64.04V61.736C43.3703 60.7867 43.6903 60.0187 44.3303 59.432C44.9703 58.8453 45.8236 58.552 46.8903 58.552C47.9676 58.552 48.821 58.8453 49.4503 59.432C50.0903 60.0187 50.4103 60.7867 50.4103 61.736V64.04ZM44.6983 64.04C44.6983 64.648 44.885 65.128 45.2583 65.48C45.6423 65.832 46.1863 66.008 46.8903 66.008C47.5943 66.008 48.1383 65.832 48.5223 65.48C48.9063 65.128 49.0983 64.648 49.0983 64.04V61.736C49.0983 61.1173 48.9063 60.632 48.5223 60.28C48.1383 59.9173 47.5943 59.736 46.8903 59.736C46.1863 59.736 45.6423 59.9173 45.2583 60.28C44.885 60.632 44.6983 61.1173 44.6983 61.736V64.04ZM58.2189 67H57.2749C57.1469 67 57.0829 66.9413 57.0829 66.824V64.024C56.4216 64.28 55.7656 64.408 55.1149 64.408C54.1229 64.408 53.3389 64.1307 52.7629 63.576C52.1976 63.0213 51.9149 62.1787 51.9149 61.048V58.92C51.9149 58.792 51.9736 58.728 52.0909 58.728H53.0509C53.1683 58.728 53.2269 58.792 53.2269 58.92V61.016C53.2269 62.488 53.8616 63.224 55.1309 63.224C55.8029 63.224 56.4536 63.096 57.0829 62.84V58.92C57.0829 58.792 57.1469 58.728 57.2749 58.728H58.2189C58.3363 58.728 58.3949 58.792 58.3949 58.92V66.824C58.3949 66.9413 58.3363 67 58.2189 67ZM65.8922 65.096V58.92C65.8922 58.792 65.9509 58.728 66.0682 58.728H67.0122C67.1402 58.728 67.2042 58.792 67.2042 58.92V66.776C67.2042 69.048 66.0789 70.1893 63.8282 70.2C62.6442 70.2 61.6149 69.832 60.7402 69.096C60.6655 69.0213 60.6602 68.9307 60.7242 68.824L61.2042 68.168C61.2789 68.0507 61.3642 68.0347 61.4602 68.12C62.2282 68.7067 63.0175 69.0053 63.8282 69.016C64.5322 69.0053 65.0549 68.8133 65.3962 68.44C65.7482 68.0773 65.9135 67.496 65.8922 66.696V66.328C65.2309 66.6053 64.5695 66.744 63.9082 66.744C62.9695 66.744 62.1695 66.472 61.5082 65.928C60.8469 65.3733 60.5162 64.584 60.5162 63.56V58.92C60.5162 58.792 60.5749 58.728 60.6922 58.728H61.6362C61.7642 58.728 61.8282 58.792 61.8282 58.92V63.496C61.8282 64.1893 62.0309 64.7013 62.4362 65.032C62.8522 65.3627 63.3962 65.528 64.0682 65.528C64.7722 65.528 65.3802 65.384 65.8922 65.096ZM83.2104 67H82.0744C81.9678 67 81.8931 66.9627 81.8504 66.888L79.3064 63.224L78.3784 64.264V66.824C78.3784 66.9413 78.3144 67 78.1864 67H77.2744C77.1571 67 77.0984 66.9413 77.0984 66.824V64.264L76.1704 63.224L73.6264 66.888C73.5624 66.9627 73.4878 67 73.4024 67H72.2664C72.0958 67 72.0584 66.9253 72.1544 66.776L75.3064 62.328L72.4424 58.952C72.3998 58.8987 72.3838 58.8507 72.3944 58.808C72.4158 58.7547 72.4638 58.728 72.5384 58.728H73.6904C73.7864 58.728 73.8611 58.7707 73.9144 58.856L77.0984 62.696V58.92C77.0984 58.792 77.1571 58.728 77.2744 58.728H78.1864C78.3144 58.728 78.3784 58.792 78.3784 58.92V62.696L81.5624 58.856C81.6158 58.7707 81.6904 58.728 81.7864 58.728H82.9224C82.9971 58.728 83.0451 58.7547 83.0664 58.808C83.0984 58.8507 83.0878 58.8987 83.0344 58.952L80.1544 62.328L83.3224 66.776C83.4184 66.9253 83.3811 67 83.2104 67ZM86.0019 67H84.8659C84.7486 67 84.6899 66.9413 84.6899 66.824V58.92C84.6899 58.792 84.7486 58.728 84.8659 58.728H85.8099C85.9273 58.728 85.9859 58.792 85.9859 58.92V63.176C85.9859 63.3573 85.9806 63.6827 85.9699 64.152C85.9699 64.6107 85.9699 64.936 85.9699 65.128C86.5566 64.0613 87.0259 63.2613 87.3779 62.728L89.9539 58.856C90.0073 58.7707 90.0819 58.728 90.1779 58.728H91.2979C91.4153 58.728 91.4739 58.792 91.4739 58.92V66.824C91.4739 66.9413 91.4153 67 91.2979 67H90.3699C90.2419 67 90.1779 66.9413 90.1779 66.824V62.696C90.1779 62.1307 90.1886 61.464 90.2099 60.696H90.1939C89.7673 61.496 89.3086 62.2693 88.8179 63.016L86.2259 66.888C86.1833 66.9627 86.1086 67 86.0019 67ZM96.6503 67H95.6903C95.573 67 95.5143 66.9413 95.5143 66.824V59.912H93.0183C92.8903 59.912 92.8263 59.848 92.8263 59.72V58.92C92.8263 58.792 92.8903 58.728 93.0183 58.728H99.3063C99.4343 58.728 99.4983 58.792 99.4983 58.92V59.72C99.4983 59.848 99.4343 59.912 99.3063 59.912H96.8263V66.824C96.8263 66.9413 96.7676 67 96.6503 67ZM104.206 67H101.038C100.92 67 100.862 66.9413 100.862 66.824V58.92C100.862 58.792 100.92 58.728 101.038 58.728H101.982C102.11 58.728 102.174 58.792 102.174 58.92V61.496H104.206C105.187 61.496 105.96 61.7467 106.526 62.248C107.102 62.7493 107.39 63.432 107.39 64.296C107.39 65.2133 107.112 65.896 106.558 66.344C106.003 66.7813 105.219 67 104.206 67ZM102.174 62.616V65.88H103.998C105.374 65.88 106.062 65.3413 106.062 64.264C106.072 63.72 105.902 63.3093 105.55 63.032C105.208 62.7547 104.691 62.616 103.998 62.616H102.174ZM56.9157 79.936C56.9157 80.704 56.5477 81.2693 55.8117 81.632C56.7397 81.9627 57.2037 82.6133 57.2037 83.584C57.2037 84.3307 56.8944 84.9493 56.2757 85.44C55.657 85.9307 54.8677 86.176 53.9077 86.176C52.617 86.176 51.5237 85.776 50.6277 84.976C50.5424 84.912 50.537 84.832 50.6117 84.736L51.1077 84.112C51.193 84.0267 51.2837 84.0213 51.3797 84.096C52.1477 84.704 52.9744 85.008 53.8597 85.008C54.4784 85.008 54.969 84.88 55.3317 84.624C55.6944 84.368 55.8757 84.0107 55.8757 83.552C55.8757 82.6773 55.2784 82.24 54.0837 82.24H52.4837C52.3557 82.24 52.2917 82.176 52.2917 82.048V81.408C52.2917 81.28 52.3557 81.216 52.4837 81.216H54.0677C54.537 81.216 54.9104 81.104 55.1877 80.88C55.465 80.656 55.6037 80.352 55.6037 79.968C55.6037 79.552 55.4437 79.2373 55.1237 79.024C54.8037 78.8107 54.3717 78.704 53.8277 78.704C52.9744 78.704 52.217 78.9653 51.5557 79.488C51.4597 79.584 51.3744 79.5733 51.2997 79.456L50.8197 78.848C50.745 78.7413 50.7504 78.6507 50.8357 78.576C51.689 77.8933 52.6917 77.552 53.8437 77.552C54.7504 77.552 55.4864 77.7813 56.0517 78.24C56.6277 78.688 56.9157 79.2533 56.9157 79.936ZM59.1807 88.192H58.2847C58.1674 88.192 58.1087 88.128 58.1087 88V85.008C58.1087 84.8907 58.1674 84.832 58.2847 84.832H58.6367C59.01 84.608 59.298 84.0267 59.5007 83.088C59.714 82.1387 59.9007 80.416 60.0607 77.92C60.0607 77.792 60.1194 77.728 60.2367 77.728H65.3407C65.4687 77.728 65.5327 77.792 65.5327 77.92V84.832H66.3647C66.4927 84.832 66.5567 84.8907 66.5567 85.008V88C66.5567 88.128 66.4927 88.192 66.3647 88.192H65.4847C65.3567 88.192 65.2927 88.128 65.2927 88V86H59.3567V88C59.3567 88.128 59.298 88.192 59.1807 88.192ZM61.2767 78.912C61.1807 80.6293 61.0367 81.9627 60.8447 82.912C60.6634 83.8507 60.4127 84.4907 60.0927 84.832H64.2207V78.912H61.2767ZM74.4661 80.736V82.304C74.4661 82.432 74.4074 82.496 74.2901 82.496H69.0581V83.168C69.0581 83.7547 69.2501 84.208 69.6341 84.528C70.0181 84.848 70.5194 85.008 71.1381 85.008C72.0127 85.008 72.8287 84.7093 73.5861 84.112C73.6927 84.048 73.7781 84.064 73.8421 84.16L74.3061 84.768C74.3807 84.8533 74.3701 84.9387 74.2741 85.024C73.3567 85.792 72.3007 86.176 71.1061 86.176C70.1781 86.176 69.3834 85.9147 68.7221 85.392C68.0607 84.8587 67.7301 84.1173 67.7301 83.168V80.736C67.7301 79.7013 68.0554 78.912 68.7061 78.368C69.3674 77.824 70.1727 77.552 71.1221 77.552C72.0607 77.552 72.8501 77.824 73.4901 78.368C74.1407 78.912 74.4661 79.7013 74.4661 80.736ZM73.1861 80.736C73.1861 80.0853 72.9941 79.5893 72.6101 79.248C72.2367 78.9067 71.7407 78.736 71.1221 78.736C70.4927 78.736 69.9914 78.9067 69.6181 79.248C69.2447 79.5787 69.0581 80.0747 69.0581 80.736V81.408H73.1861V80.736ZM82.2673 85.248C81.4246 85.8667 80.4806 86.176 79.4353 86.176C78.39 86.176 77.558 85.8933 76.9393 85.328C76.3206 84.752 76.0113 84.0053 76.0113 83.088V80.656C76.0113 79.7387 76.3206 78.992 76.9393 78.416C77.558 77.84 78.3846 77.552 79.4193 77.552C80.3473 77.552 81.2166 77.8187 82.0273 78.352C82.134 78.4267 82.15 78.5173 82.0753 78.624L81.6593 79.28C81.5846 79.376 81.4993 79.392 81.4033 79.328C80.7953 78.9333 80.1446 78.736 79.4513 78.736C78.7793 78.736 78.2566 78.912 77.8833 79.264C77.51 79.616 77.3233 80.08 77.3233 80.656V83.088C77.3233 83.6747 77.51 84.144 77.8833 84.496C78.2566 84.8373 78.774 85.008 79.4353 85.008C80.1713 85.008 80.886 84.7733 81.5793 84.304C81.6753 84.2187 81.7606 84.2293 81.8353 84.336L82.2993 84.992C82.374 85.0987 82.3633 85.184 82.2673 85.248ZM87.1589 86H83.9909C83.8736 86 83.8149 85.9413 83.8149 85.824V77.92C83.8149 77.792 83.8736 77.728 83.9909 77.728H84.9349C85.0629 77.728 85.1269 77.792 85.1269 77.92V80.496H87.1589C88.1403 80.496 88.9136 80.7467 89.4789 81.248C90.0549 81.7493 90.3429 82.432 90.3429 83.296C90.3429 84.2133 90.0656 84.896 89.5109 85.344C88.9563 85.7813 88.1723 86 87.1589 86ZM85.1269 81.616V84.88H86.9509C88.3269 84.88 89.0149 84.3413 89.0149 83.264C89.0256 82.72 88.8549 82.3093 88.5029 82.032C88.1616 81.7547 87.6443 81.616 86.9509 81.616H85.1269Z" fill="white"/>
</svg>
