<svg width="142" height="30" viewBox="0 0 142 30" fill="none" xmlns="http://www.w3.org/2000/svg">
<path d="M11.9134 10.5465V17.8913H13.1189V21.8874H11.8018V19.1191H5.17135V10.5465H6.48851V17.8913H10.5963V10.5465H11.9134ZM18.6499 19.2977C17.8239 19.2977 17.1114 19.1154 16.5123 18.7508C15.917 18.3824 15.4575 17.869 15.1338 17.2104C14.8138 16.5481 14.6538 15.7779 14.6538 14.8998C14.6538 14.0217 14.8138 13.2477 15.1338 12.578C15.4575 11.9045 15.9077 11.3799 16.4844 11.0041C17.0648 10.6246 17.742 10.4348 18.5159 10.4348C18.9624 10.4348 19.4034 10.5092 19.8387 10.6581C20.274 10.8069 20.6703 11.0488 21.0275 11.3836C21.3847 11.7148 21.6693 12.1538 21.8814 12.7008C22.0935 13.2477 22.1995 13.9212 22.1995 14.7212V15.2793H15.5914V14.1407H20.86C20.86 13.657 20.7633 13.2254 20.5698 12.8459C20.3801 12.4664 20.1084 12.1669 19.755 11.9473C19.4052 11.7278 18.9922 11.618 18.5159 11.618C17.9913 11.618 17.5374 11.7483 17.1541 12.0087C16.7746 12.2655 16.4825 12.6003 16.2779 13.0133C16.0733 13.4263 15.9709 13.8691 15.9709 14.3417V15.1007C15.9709 15.7481 16.0826 16.2969 16.3058 16.7471C16.5328 17.1936 16.8472 17.5341 17.249 17.7685C17.6509 17.9992 18.1178 18.1145 18.6499 18.1145C18.9959 18.1145 19.3085 18.0662 19.5875 17.9694C19.8703 17.869 20.114 17.7201 20.3187 17.5229C20.5233 17.322 20.6814 17.0727 20.7931 16.775L22.0656 17.1322C21.9316 17.5639 21.7065 17.9434 21.3903 18.2708C21.074 18.5945 20.6833 18.8475 20.2182 19.0298C19.7531 19.2084 19.2303 19.2977 18.6499 19.2977ZM29.9406 14.23V15.4579H25.2078V14.23H29.9406ZM25.5203 10.5465V19.1191H24.2032V10.5465H25.5203ZM30.9452 10.5465V19.1191H29.6281V10.5465H30.9452ZM32.1842 11.7743V10.5465H39.1496V11.7743H36.3366V19.1191H35.0195V11.7743H32.1842ZM41.0709 22.3339V10.5465H42.3434V11.9083H42.4997C42.5964 11.7594 42.7303 11.5697 42.9015 11.339C43.0764 11.1046 43.3257 10.8962 43.6494 10.7139C43.9768 10.5279 44.4196 10.4348 44.9777 10.4348C45.6995 10.4348 46.3358 10.6153 46.8865 10.9762C47.4371 11.3371 47.8669 11.8487 48.1757 12.511C48.4845 13.1733 48.6389 13.9547 48.6389 14.8551C48.6389 15.763 48.4845 16.5499 48.1757 17.216C47.8669 17.8783 47.439 18.3917 46.892 18.7564C46.3451 19.1173 45.7144 19.2977 45 19.2977C44.4493 19.2977 44.0084 19.2066 43.6773 19.0243C43.3461 18.8382 43.0913 18.628 42.9127 18.3936C42.7341 18.1555 42.5964 17.9583 42.4997 17.802H42.388V22.3339H41.0709ZM42.3657 14.8328C42.3657 15.4802 42.4606 16.0514 42.6503 16.5462C42.8401 17.0374 43.1173 17.4225 43.4819 17.7015C43.8466 17.9769 44.2931 18.1145 44.8214 18.1145C45.3721 18.1145 45.8316 17.9694 46.2 17.6792C46.5721 17.3853 46.8511 16.9909 47.0372 16.496C47.2269 15.9974 47.3218 15.443 47.3218 14.8328C47.3218 14.23 47.2288 13.6868 47.0427 13.2031C46.8604 12.7157 46.5832 12.3306 46.2111 12.0478C45.8428 11.7613 45.3795 11.618 44.8214 11.618C44.2856 11.618 43.8354 11.7538 43.4708 12.0255C43.1061 12.2934 42.8308 12.6692 42.6448 13.1529C42.4587 13.6328 42.3657 14.1928 42.3657 14.8328Z" fill="black"/>
<path d="M99.9467 19.1191V10.5465H106.689V19.1191H105.372V11.7743H101.264V19.1191H99.9467ZM111.617 19.3201C111.074 19.3201 110.581 19.2177 110.138 19.0131C109.695 18.8047 109.344 18.5052 109.083 18.1145C108.823 17.7201 108.692 17.2439 108.692 16.6857C108.692 16.1946 108.789 15.7965 108.983 15.4914C109.176 15.1826 109.435 14.9407 109.758 14.7658C110.082 14.5909 110.439 14.4607 110.83 14.3751C111.224 14.2858 111.621 14.2151 112.019 14.1631C112.54 14.0961 112.962 14.0459 113.286 14.0124C113.613 13.9752 113.851 13.9138 114 13.8282C114.153 13.7426 114.229 13.5938 114.229 13.3817V13.337C114.229 12.7864 114.078 12.3585 113.777 12.0534C113.479 11.7483 113.027 11.5957 112.421 11.5957C111.792 11.5957 111.299 11.7334 110.942 12.0087C110.584 12.2841 110.333 12.578 110.188 12.8905L108.938 12.4441C109.161 11.9231 109.459 11.5176 109.831 11.2274C110.207 10.9334 110.616 10.7288 111.059 10.6134C111.505 10.4944 111.944 10.4348 112.376 10.4348C112.651 10.4348 112.968 10.4683 113.325 10.5353C113.686 10.5985 114.034 10.7306 114.369 10.9316C114.707 11.1325 114.988 11.4357 115.211 11.8413C115.435 12.2469 115.546 12.7901 115.546 13.471V19.1191H114.229V17.9583H114.162C114.073 18.1443 113.924 18.3434 113.716 18.5554C113.507 18.7675 113.23 18.948 112.884 19.0968C112.538 19.2456 112.116 19.3201 111.617 19.3201ZM111.818 18.1369C112.339 18.1369 112.778 18.0345 113.135 17.8299C113.496 17.6252 113.768 17.3611 113.95 17.0374C114.136 16.7137 114.229 16.3732 114.229 16.016V14.8105C114.173 14.8774 114.05 14.9388 113.861 14.9947C113.675 15.0467 113.459 15.0933 113.213 15.1342C112.971 15.1714 112.735 15.2049 112.504 15.2346C112.277 15.2607 112.093 15.283 111.952 15.3016C111.61 15.3463 111.29 15.4188 110.992 15.5193C110.698 15.616 110.46 15.763 110.278 15.9602C110.099 16.1537 110.01 16.4179 110.01 16.7527C110.01 17.2104 110.179 17.5564 110.517 17.7908C110.86 18.0215 111.293 18.1369 111.818 18.1369ZM117.95 22.3339V10.5465H119.223V11.9083H119.379C119.476 11.7594 119.61 11.5697 119.781 11.339C119.956 11.1046 120.205 10.8962 120.529 10.7139C120.856 10.5279 121.299 10.4348 121.857 10.4348C122.579 10.4348 123.215 10.6153 123.766 10.9762C124.316 11.3371 124.746 11.8487 125.055 12.511C125.364 13.1733 125.518 13.9547 125.518 14.8551C125.518 15.763 125.364 16.5499 125.055 17.216C124.746 17.8783 124.318 18.3917 123.771 18.7564C123.224 19.1173 122.594 19.2977 121.879 19.2977C121.329 19.2977 120.888 19.2066 120.557 19.0243C120.225 18.8382 119.971 18.628 119.792 18.3936C119.613 18.1555 119.476 17.9583 119.379 17.802H119.267V22.3339H117.95ZM119.245 14.8328C119.245 15.4802 119.34 16.0514 119.53 16.5462C119.719 17.0374 119.997 17.4225 120.361 17.7015C120.726 17.9769 121.172 18.1145 121.701 18.1145C122.251 18.1145 122.711 17.9694 123.079 17.6792C123.451 17.3853 123.73 16.9909 123.917 16.496C124.106 15.9974 124.201 15.443 124.201 14.8328C124.201 14.23 124.108 13.6868 123.922 13.2031C123.74 12.7157 123.463 12.3306 123.09 12.0478C122.722 11.7613 122.259 11.618 121.701 11.618C121.165 11.618 120.715 11.7538 120.35 12.0255C119.985 12.2934 119.71 12.6692 119.524 13.1529C119.338 13.6328 119.245 14.1928 119.245 14.8328ZM127.528 19.1191V10.5465H128.845V14.2747H129.715L132.796 10.5465H134.493L131.032 14.6765L134.537 19.1191H132.841L130.028 15.5025H128.845V19.1191H127.528Z" fill="black"/>
<path d="M55.2231 15.5129H95.8419" stroke="#0B9B72" stroke-width="1.8307" stroke-miterlimit="10"/>
</svg>
