<svg width="152" height="152" viewBox="0 0 152 152" fill="none" xmlns="http://www.w3.org/2000/svg">
<path d="M37.769 72V73.5612V75.518L43.6602 72H46V79.6978H43.231V78.1367V75.259L35 80V72H37.769Z" fill="#1E348E"/>
<path d="M72.2361 79.6978V75.223L64 80V72H66.7708V75.518L72.6656 72H75V79.6978H72.2361Z" fill="#1E348E"/>
<path d="M129.231 79.6978V75.223L121 80V72H123.769V75.518L129.66 72H132V79.6978H129.231Z" fill="#1E348E"/>
<path d="M78.643 78.3776L82.4479 72H85.2511L90 80H86.9734L83.8747 74.7065L80.7472 80H77V78.3776H78.643Z" fill="#1E348E"/>
<path d="M107 80V72H118V74.9907L114.936 74.5794V73.6075H110.041V79.9851L107 80Z" fill="#1E348E"/>
<path d="M19 78.4284V76.6324L20.5017 76.3405V72H31V76.1384L23.1411 77.6352V80H20.495V78.1366L19 78.4284ZM23.1411 75.8391L28.3671 74.8438V73.6239H23.1411V75.8391Z" fill="#1E348E"/>
<path d="M15 78.3477V79.9701H12.2275V74.3701L10.8412 73.6224H6.77253V80H4V72H11.6244L15 73.9439V78.3776V78.3477Z" fill="#1E348E"/>
<path d="M49 73.6239V72H61V75.1431L58.686 76.0037L61 76.8569V80H50.5008V73.6239H49ZM53.1388 75.188H56.3719L58.3554 74.2077V73.6239H53.1322L53.1388 75.188ZM53.1388 78.3761H58.362V77.8148L56.3785 76.8269H53.1455L53.1388 78.3761Z" fill="#1E348E"/>
<path d="M91 73.6239V72H102.967V74.9486L100.333 74.5369V73.6239H95.1625V75.188H99.4435V76.812H95.1625V78.3761H100.366V77.4631L103 77.0514V80H92.528V73.6239H91Z" fill="#1E348E"/>
<path d="M146.423 77.9345V80H143.655V77.4331L141.822 77.0963L138.812 80H135L138.625 76.5126L135.429 75.9364V72H146.423V76.1609L148 76.4453V78.2189L146.423 77.9345ZM143.655 73.6239H138.189V74.6417L143.655 75.637V73.6239Z" fill="#1E348E"/>
</svg>
